<svg width="12" height="13" viewBox="0 0 12 13" fill="none" xmlns="http://www.w3.org/2000/svg">
<path d="M6.86144 5.78182L2.65716 1.57758C2.41961 1.34004 2.03306 1.34001 1.79546 1.57758L0.755252 2.61777C0.640155 2.73287 0.576782 2.88587 0.576782 3.04862C0.576782 3.21136 0.640155 3.36439 0.755252 3.47946L3.48846 6.21267L0.755155 8.94653C0.517632 9.1841 0.517632 9.57065 0.755179 9.80818L1.79539 10.8484C1.91049 10.9635 2.06349 11.0269 2.22626 11.0269C2.38903 11.0269 2.54203 10.9635 2.65711 10.8484L6.86144 6.64349C7.09897 6.40595 7.09897 6.01939 6.86144 5.78182ZM6.60399 6.38607L2.39971 10.591C2.35339 10.6373 2.29179 10.6628 2.22628 10.6628C2.16077 10.6628 2.0992 10.6373 2.05286 10.591L1.01263 9.55075C0.917022 9.45515 0.917022 9.29956 1.01263 9.20393L3.8746 6.34138C3.87472 6.34126 3.87484 6.34112 3.87496 6.34097C3.87511 6.34082 3.87528 6.3407 3.87542 6.34056C4.05154 6.16216 4.23474 5.97857 4.41991 5.79491C4.49129 5.72411 4.49175 5.60884 4.42095 5.53748C4.35015 5.4661 4.23489 5.46564 4.16353 5.53644C4.02219 5.67663 3.88205 5.81675 3.74525 5.95461L1.01268 3.22204C0.966342 3.1757 0.940857 3.11413 0.940857 3.04862C0.940857 2.98311 0.966367 2.92153 1.01268 2.8752L2.05289 1.83498C2.1007 1.78717 2.16349 1.76326 2.22631 1.76326C2.2891 1.76326 2.35191 1.78717 2.39973 1.83498L5.13218 4.56744C4.99073 4.70775 4.85512 4.84382 4.70665 4.99445C4.63607 5.06605 4.6369 5.18129 4.7085 5.25188C4.74396 5.28685 4.79012 5.30428 4.83629 5.30428C4.88333 5.30428 4.93032 5.28617 4.96592 5.25003C5.11379 5.10006 5.24876 4.9646 5.38963 4.82489L6.60399 6.03925C6.6996 6.13486 6.6996 6.29044 6.60399 6.38607Z" fill="#265285"/>
<path d="M11.7769 11.8604C11.6763 11.8604 11.5948 11.9419 11.5948 12.0424V12.2467C11.5948 12.3472 11.6763 12.4287 11.7769 12.4287C11.8774 12.4287 11.9589 12.3472 11.9589 12.2467V12.0424C11.9589 11.9419 11.8774 11.8604 11.7769 11.8604Z" fill="#265285"/>
<path d="M10.7024 11.8604C10.6019 11.8604 10.5204 11.9419 10.5204 12.0424V12.2467C10.5204 12.3472 10.6019 12.4287 10.7024 12.4287C10.803 12.4287 10.8845 12.3472 10.8845 12.2467V12.0424C10.8845 11.9419 10.803 11.8604 10.7024 11.8604Z" fill="#265285"/>
<path d="M9.62784 11.8604C9.52728 11.8604 9.4458 11.9419 9.4458 12.0424V12.2467C9.4458 12.3472 9.52728 12.4287 9.62784 12.4287C9.7284 12.4287 9.80988 12.3472 9.80988 12.2467V12.0424C9.80988 11.9419 9.72837 11.8604 9.62784 11.8604Z" fill="#265285"/>
<path d="M2.3721 0C2.27157 0 2.19006 0.0815042 2.19006 0.182037V0.386332C2.19006 0.486865 2.27157 0.56837 2.3721 0.56837C2.47263 0.56837 2.55414 0.486865 2.55414 0.386332V0.182037C2.55414 0.0815042 2.47263 0 2.3721 0Z" fill="#265285"/>
<path d="M1.29764 0C1.1971 0 1.1156 0.0815042 1.1156 0.182037V0.386332C1.1156 0.486865 1.1971 0.56837 1.29764 0.56837C1.39817 0.56837 1.47968 0.486865 1.47968 0.386332V0.182037C1.47968 0.0815042 1.39817 0 1.29764 0Z" fill="#265285"/>
<path d="M0.223053 0C0.12252 0 0.0410156 0.0815042 0.0410156 0.182037V0.386332C0.0410156 0.486865 0.12252 0.56837 0.223053 0.56837C0.323586 0.56837 0.405091 0.486865 0.405091 0.386332V0.182037C0.405091 0.0815042 0.323586 0 0.223053 0Z" fill="#265285"/>
<path d="M11.2442 5.78182L7.03984 1.57758C6.8023 1.34004 6.41575 1.34001 6.17815 1.57758L5.13794 2.61777C5.02285 2.73287 4.95947 2.88587 4.95947 3.04862C4.95947 3.21136 5.02285 3.36439 5.13794 3.47946L7.87115 6.21267L5.13787 8.94653C4.90035 9.1841 4.90035 9.57065 5.13789 9.80818L6.1781 10.8484C6.2932 10.9635 6.44621 11.0269 6.60897 11.0269C6.77174 11.0269 6.92475 10.9635 7.03982 10.8484L11.2441 6.64349C11.4817 6.40595 11.4817 6.01939 11.2442 5.78182ZM10.9867 6.38607L6.7824 10.591C6.73609 10.6373 6.67448 10.6628 6.60897 10.6628C6.54347 10.6628 6.48189 10.6373 6.43555 10.591L5.39532 9.55075C5.29971 9.45515 5.29971 9.29956 5.39532 9.20393L8.25731 6.34138C8.25743 6.34126 8.25755 6.34112 8.25768 6.34097C8.25782 6.34082 8.25799 6.3407 8.25814 6.34056C8.43425 6.16216 8.61745 5.97857 8.80262 5.79491C8.87401 5.72411 8.87447 5.60884 8.80367 5.53748C8.73287 5.4661 8.6176 5.46564 8.54624 5.53644C8.40491 5.67663 8.26476 5.81675 8.12797 5.95461L5.39537 3.22204C5.34903 3.1757 5.32355 3.11413 5.32355 3.04862C5.32355 2.98311 5.34906 2.92153 5.39537 2.8752L6.43558 1.83498C6.48339 1.78717 6.54618 1.76326 6.609 1.76326C6.67179 1.76326 6.7346 1.78717 6.78242 1.83498L9.51488 4.56744C9.37342 4.70775 9.23781 4.84382 9.08934 4.99445C9.01876 5.06605 9.01959 5.18129 9.09119 5.25188C9.12665 5.28685 9.17281 5.30428 9.21898 5.30428C9.26602 5.30428 9.31301 5.28617 9.34861 5.25003C9.49648 5.10006 9.63145 4.9646 9.77232 4.82489L10.9867 6.03925C11.0823 6.13486 11.0823 6.29044 10.9867 6.38607Z" fill="#265285"/>
</svg>
