<svg width="19" height="19" viewBox="0 0 19 19" fill="none" xmlns="http://www.w3.org/2000/svg">
<mask id="mask0_3239_651" style="mask-type:luminance" maskUnits="userSpaceOnUse" x="0" y="0" width="19" height="19">
<path d="M0 0H19V19H0V0Z" fill="white"/>
</mask>
<g mask="url(#mask0_3239_651)">
<path d="M10.0973 7.39714C10.4028 7.57111 10.6892 7.78958 10.9498 8.0502C12.5155 9.61584 12.5583 12.1114 10.5886 14.0811L7.921 16.7488C5.95127 18.7185 3.4557 18.6756 1.89006 17.1099C0.324411 15.5443 0.281513 13.0487 2.2512 11.079L4.19336 9.12889" stroke="#265285" stroke-width="1.8" stroke-miterlimit="10" stroke-linecap="round" stroke-linejoin="round"/>
<path d="M8.90271 11.6035C8.59726 11.4295 8.31085 11.2111 8.05019 10.9505C6.48455 9.38478 6.44169 6.88925 8.41138 4.91956L11.079 2.25192C13.0488 0.282187 15.5443 0.325086 17.11 1.89073C18.6756 3.45641 18.7185 5.95194 16.7488 7.92163L14.8067 9.87177" stroke="#265285" stroke-width="1.8" stroke-miterlimit="10" stroke-linecap="round" stroke-linejoin="round"/>
</g>
</svg>
