<svg width="20" height="21" viewBox="0 0 20 21" fill="none" xmlns="http://www.w3.org/2000/svg">
<mask id="mask0_3239_662" style="mask-type:luminance" maskUnits="userSpaceOnUse" x="0" y="0" width="20" height="21">
<path d="M0 0.5H20V20.5H0V0.5Z" fill="white"/>
</mask>
<g mask="url(#mask0_3239_662)">
<path d="M11.0342 7.399V9.12568C11.0342 9.18239 11.011 9.23661 10.9701 9.27583L10.1233 10.0852C10.0417 10.1632 9.91275 10.1617 9.83295 10.0819L9.02635 9.27532C8.9874 9.23638 8.96553 9.18353 8.96553 9.12845V7.399C8.96553 7.22763 8.77803 7.12275 8.6315 7.21161C7.83728 7.69325 7.31705 8.5815 7.35974 9.58767C7.41869 10.978 8.5708 12.0956 9.96221 12.115C11.4389 12.1355 12.6425 10.9446 12.6425 9.47259C12.6425 8.514 12.132 7.6747 11.3681 7.2115C11.2216 7.12271 11.0342 7.22775 11.0342 7.399Z" stroke="#265285" stroke-miterlimit="10" stroke-linecap="round" stroke-linejoin="round"/>
<path d="M8.99243 14.4529V15.3242" stroke="#265285" stroke-miterlimit="10" stroke-linecap="round" stroke-linejoin="round"/>
<path d="M8.99243 11.9161V13.0859" stroke="#265285" stroke-miterlimit="10" stroke-linecap="round" stroke-linejoin="round"/>
<path d="M11.0077 15.3242V11.9186" stroke="#265285" stroke-miterlimit="10" stroke-linecap="round" stroke-linejoin="round"/>
<path d="M10 13.4786V15.4297" stroke="#265285" stroke-miterlimit="10" stroke-linecap="round" stroke-linejoin="round"/>
<path d="M13.0233 6.61125C12.1886 5.9618 11.1396 5.5748 10.0001 5.5748C7.27869 5.5748 5.07263 7.7809 5.07263 10.5023C5.07263 13.2236 7.27869 15.4297 10.0001 15.4297C12.7214 15.4297 14.9276 13.2236 14.9276 10.5023C14.9276 9.41348 14.5742 8.40742 13.9762 7.59188" stroke="#265285" stroke-miterlimit="10" stroke-linecap="round" stroke-linejoin="round"/>
<path d="M2.65273 4.11945L2.16906 4.60312C1.97105 4.80113 1.95215 5.11578 2.125 5.33609L3.32223 6.86207C3.42363 6.99137 3.44059 7.16668 3.3693 7.31469C3.25293 7.55629 3.14926 7.80516 3.05945 8.06055C3.00414 8.21766 2.86629 8.33105 2.70094 8.35102L0.780117 8.58293C0.502109 8.61648 0.292969 8.85238 0.292969 9.13238V11.8676C0.292969 12.1476 0.502109 12.3835 0.780117 12.417L2.70094 12.6489C2.86629 12.6689 3.00414 12.7823 3.05945 12.9394C3.14926 13.1948 3.25293 13.4437 3.3693 13.6853C3.44059 13.8333 3.42363 14.0086 3.32223 14.1379L2.125 15.6639C1.95215 15.8842 1.97105 16.1989 2.16906 16.3969L4.10313 18.3309C4.30113 18.5289 4.61582 18.5479 4.83613 18.375L6.36211 17.1778C6.49137 17.0764 6.66672 17.0594 6.81473 17.1307C7.05633 17.2471 7.3052 17.3507 7.56059 17.4406C7.7177 17.4959 7.83109 17.6337 7.85105 17.7991L8.08297 19.7199C8.11652 19.9979 8.35242 20.207 8.63242 20.207H11.3676C11.6476 20.207 11.8835 19.9979 11.9171 19.7199L12.149 17.7991C12.1689 17.6337 12.2823 17.4959 12.4395 17.4406C12.6948 17.3507 12.9437 17.2471 13.1853 17.1307C13.3333 17.0594 13.5087 17.0764 13.6379 17.1778L15.1639 18.375C15.3842 18.5479 15.6989 18.5289 15.8969 18.3309L17.8309 16.3969C18.0289 16.1989 18.0479 15.8842 17.875 15.6639L16.6778 14.1379C16.5764 14.0086 16.5594 13.8333 16.6307 13.6853C16.7471 13.4437 16.8507 13.1948 16.9406 12.9394C16.9959 12.7823 17.1337 12.6689 17.2991 12.6489L19.2199 12.417C19.4979 12.3835 19.707 12.1476 19.707 11.8676V9.13238C19.707 8.85238 19.4979 8.61648 19.2199 8.58293L17.2991 8.35102C17.1337 8.33105 16.9959 8.21766 16.9406 8.06055C16.8507 7.80516 16.7471 7.55629 16.6307 7.31469C16.5594 7.16668 16.5764 6.99137 16.6778 6.86207L17.875 5.33609C18.0479 5.11578 18.0289 4.80113 17.8309 4.60312L15.8969 2.66906C15.6989 2.47105 15.3842 2.45211 15.1639 2.62496L13.6379 3.82219C13.5087 3.92359 13.3333 3.94059 13.1853 3.86926C12.9437 3.75289 12.6948 3.64926 12.4395 3.55941C12.2823 3.50414 12.1689 3.36629 12.149 3.20094L11.9171 1.28008C11.8835 1.00207 11.6476 0.792969 11.3676 0.792969H8.63242C8.35242 0.792969 8.11652 1.00207 8.08297 1.28008L7.85105 3.20094C7.83109 3.36629 7.7177 3.50414 7.56059 3.55941C7.3052 3.64926 7.05633 3.75289 6.81473 3.86926C6.66672 3.94059 6.49137 3.92359 6.36211 3.82219L4.83613 2.62496C4.61582 2.45211 4.30113 2.47105 4.10313 2.66906L3.61949 3.1527" stroke="#265285" stroke-miterlimit="10" stroke-linecap="round" stroke-linejoin="round"/>
</g>
</svg>
