<svg width="19" height="20" viewBox="0 0 19 20" fill="none" xmlns="http://www.w3.org/2000/svg">
<path d="M9.50173 1.85081C9.69456 1.85122 9.88508 1.89279 10.0605 1.97273L17.5521 5.53901C17.5795 5.54805 17.6057 5.56057 17.63 5.57626C17.61 5.591 17.5884 5.6035 17.5656 5.61352L10.0605 9.17979C9.88498 9.25929 9.69446 9.30042 9.50173 9.30042C9.309 9.30042 9.11848 9.25929 8.94291 9.17979L1.45137 5.61352C1.42392 5.60447 1.39775 5.59195 1.37348 5.57626C1.39349 5.56152 1.41507 5.54903 1.43782 5.53901L8.94291 1.97273C9.11839 1.89279 9.3089 1.85122 9.50173 1.85081ZM9.50173 0.496102C9.10716 0.495138 8.71731 0.5819 8.36039 0.75011L0.868847 4.313C0.614007 4.4117 0.394978 4.58517 0.240525 4.81062C0.086072 5.03608 0.00341797 5.30298 0.00341797 5.57626C0.00341797 5.84955 0.086072 6.11645 0.240525 6.3419C0.394978 6.56736 0.614007 6.74083 0.868847 6.83953L8.36039 10.4024C8.71765 10.5696 9.10728 10.6563 9.50173 10.6563C9.89618 10.6563 10.2858 10.5696 10.6431 10.4024L18.1346 6.83953C18.3895 6.74083 18.6085 6.56736 18.7629 6.3419C18.9174 6.11645 19 5.84955 19 5.57626C19 5.30298 18.9174 5.03608 18.7629 4.81062C18.6085 4.58517 18.3895 4.4117 18.1346 4.313L10.6431 0.75011C10.2862 0.5819 9.8963 0.495138 9.50173 0.496102Z" fill="#265285"/>
<path d="M9.50166 14.8227C8.99316 14.8253 8.49105 14.7093 8.03519 14.484L0.394626 10.6874C0.312197 10.6496 0.238212 10.5955 0.177061 10.5285C0.11591 10.4615 0.0688392 10.3829 0.0386402 10.2974C0.00844126 10.2119 -0.00427017 10.1211 0.00126007 10.0306C0.00679031 9.94005 0.0304495 9.85154 0.0708341 9.77032C0.111219 9.6891 0.167506 9.61681 0.236356 9.55776C0.305206 9.4987 0.385217 9.45407 0.471641 9.42652C0.558066 9.39898 0.649143 9.38907 0.739469 9.39739C0.829796 9.4057 0.917532 9.43208 0.997471 9.47495L8.63803 13.2681C8.90676 13.4002 9.20221 13.4689 9.50166 13.4689C9.8011 13.4689 10.0966 13.4002 10.3653 13.2681L18.0058 9.47495C18.1658 9.40147 18.3481 9.39316 18.5141 9.45176C18.6801 9.51037 18.8167 9.63129 18.8951 9.78891C18.9735 9.94653 18.9874 10.1285 18.9339 10.2962C18.8805 10.4639 18.7638 10.6042 18.6087 10.6874L10.9681 14.4806C10.5126 14.7071 10.0104 14.8242 9.50166 14.8227Z" fill="#265285"/>
<path d="M9.50166 19.4633C8.99334 19.4643 8.49159 19.3484 8.03519 19.1246L0.394626 15.328C0.312197 15.2902 0.238212 15.2361 0.177061 15.1691C0.11591 15.1021 0.0688392 15.0236 0.0386403 14.938C0.00844129 14.8525 -0.00427016 14.7618 0.00126007 14.6712C0.0067903 14.5807 0.0304495 14.4922 0.0708341 14.4109C0.111219 14.3297 0.167506 14.2574 0.236356 14.1984C0.305207 14.1393 0.385217 14.0947 0.471642 14.0671C0.558066 14.0396 0.649143 14.0297 0.73947 14.038C0.829796 14.0463 0.917532 14.0727 0.997472 14.1156L8.63803 17.9088C8.90676 18.0409 9.20221 18.1096 9.50166 18.1096C9.8011 18.1096 10.0966 18.0409 10.3653 17.9088L18.0058 14.1156C18.1658 14.0421 18.3481 14.0338 18.5141 14.0924C18.6801 14.151 18.8167 14.2719 18.8951 14.4295C18.9735 14.5872 18.9874 14.7691 18.9339 14.9368C18.8805 15.1045 18.7638 15.2448 18.6087 15.328L10.9681 19.1246C10.5117 19.3484 10.01 19.4643 9.50166 19.4633Z" fill="#265285"/>
</svg>
