<svg width="26" height="22" viewBox="0 0 26 22" fill="none" xmlns="http://www.w3.org/2000/svg">
<path d="M24.2429 19.1055H23.7508H2.24921H1.75709C1.33899 19.1055 1 19.4445 1 19.8626C1 20.2807 1.33899 20.6196 1.75709 20.6196H3.0063H22.9937H24.2429C24.661 20.6196 25 20.2807 25 19.8626C25 19.4445 24.661 19.1055 24.2429 19.1055Z" fill="#265285" stroke="#A2CFEB"/>
<path d="M3.65622 9.10938V16.6255H3.17234C2.76119 16.6255 2.42786 16.9588 2.42786 17.37V17.8539H23.5708V17.37C23.5708 16.9588 23.2375 16.6255 22.8263 16.6255H22.3425V9.10938H18.3967V16.6255H14.9723V9.10938H11.0264V16.6255H7.60192V9.10938H3.65622Z" fill="#265285" stroke="#A2CFEB"/>
<path d="M2.50162 7.86112H23.4969C23.4974 7.86104 23.4978 7.86104 23.4984 7.86112C23.9096 7.86112 24.2429 7.52778 24.2429 7.11663C24.2429 6.81595 24.0646 6.55679 23.808 6.4393L13.3411 1.03219C13.1267 0.921562 12.872 0.921562 12.6577 1.03219L2.15988 6.45522C1.85475 6.61288 1.69709 6.95873 1.77823 7.29247C1.85928 7.62621 2.1581 7.86112 2.50162 7.86112Z" fill="#265285" stroke="#A2CFEB"/>
</svg>
