<svg width="86" height="86" viewBox="0 0 86 86" fill="none" xmlns="http://www.w3.org/2000/svg">
<path d="M81.9688 13.7063H56.975C56.0344 9.675 53.4813 7.525 50.1219 6.9875C47.1656 1.20937 42.0594 0 36.0125 0C33.5938 0 25.3969 0.403125 20.6938 6.45C17.2 10.8844 16.2594 17.2 18.0063 25.3969C15.9906 26.4719 15.8562 28.7563 16.5281 30.9062C16.9312 32.9219 18.275 39.1031 21.6344 39.775C22.0375 41.2531 22.8437 43.9406 24.5906 46.6281V53.3469L7.65937 59.9312C3.09062 61.6781 0 66.1125 0 71.0844V84.6562C0 85.4625 0.5375 86 1.34375 86H72.5625C73.3688 86 73.9062 85.4625 73.9062 84.6562V76.5938H81.9688C84.2531 76.5938 86 74.8469 86 72.5625V17.7375C86 15.4531 84.1188 13.7063 81.9688 13.7063ZM23.3813 37.3563C21.9031 36.4156 21.9031 39.6406 19.2156 30.2344C18.4094 27.4125 19.8875 27.6812 19.7531 27.6812C20.5594 27.6812 21.2313 26.875 21.0969 26.0688C19.0813 18.1406 19.7531 12.0938 22.8438 8.19687C26.0688 4.16563 32.1156 2.41875 36.8187 2.6875H36.9531C45.4188 2.28437 47.9719 8.46562 47.9719 8.6C48.6437 10.3469 50.9281 8.46563 53.2125 11.5563C54.5562 13.4375 55.6313 17.4688 52.9438 25.8C52.8094 26.2031 52.9437 26.6063 53.0781 27.0094C53.8844 28.0844 55.6313 26.7406 54.6906 30.1C54.6906 30.2344 53.2125 37.0875 51.4656 37.0875C51.3312 37.0875 50.9281 36.9531 50.3906 37.2219C50.1219 37.3563 49.8531 37.7594 49.8531 38.1625C49.7187 38.7 47.3 51.1969 36.8187 51.6C26.3375 51.1969 23.9188 38.7 23.7844 38.1625C23.9188 37.8937 23.65 37.625 23.3813 37.3563ZM42.4625 83.3125H31.5781L35.475 71.8906C35.8781 70.6813 34.8031 70.4125 32.1156 66.65L37.0875 65.3063L41.925 66.65C37.4906 73.9062 36.9531 66.5156 42.4625 83.3125ZM25.3969 55.9L34.1312 63.2906L25.8 65.575L22.3062 57.1094L25.3969 55.9ZM39.775 63.2906L48.375 55.7656L51.3312 56.975L47.7031 65.575L39.775 63.2906ZM46.7625 50.1219V53.75L36.9531 62.2156L27.1438 54.0187V50.1219C32.6531 55.6312 40.85 56.0344 46.7625 50.1219ZM2.6875 71.0844C2.6875 67.3219 5.10625 63.8281 8.6 62.4844L19.7531 58.1844L23.7844 67.725C24.0531 68.2625 24.4563 68.5312 24.9937 68.5312H25.3969L29.2937 67.4563L32.6531 71.7562L28.6219 83.3125H2.6875V71.0844ZM71.2188 83.3125H45.2844L41.2531 71.7562L44.6125 67.4563L48.1063 68.3969H48.5094C49.0469 68.3969 49.5844 68.1281 49.7188 67.5906L53.75 57.9156L65.1719 62.35C68.6656 63.6938 71.0844 67.1875 71.0844 70.95V83.3125H71.2188ZM83.3125 72.5625C83.3125 73.3688 82.775 73.9062 81.9688 73.9062H73.9062V70.95C73.9062 66.1125 70.8156 61.5438 66.2469 59.7969L49.45 53.3469V46.6281C51.0625 43.9406 52.0031 41.2531 52.4062 39.775C55.6312 39.1031 57.1094 32.9219 57.5125 30.9062C58.1844 28.7563 58.05 26.6062 56.1688 25.3969C57.2437 21.9031 57.6469 18.8125 57.6469 16.2594H82.2375C83.0438 16.2594 83.5813 16.7969 83.5813 17.6031V72.5625H83.3125Z" fill="black"/>
<path d="M77.9375 22.5752H72.5625C71.7562 22.5752 71.2188 23.1127 71.2188 23.9189C71.2188 24.7252 71.7562 25.2627 72.5625 25.2627H77.9375C78.7438 25.2627 79.2812 24.7252 79.2812 23.9189C79.2812 23.1127 78.7438 22.5752 77.9375 22.5752Z" fill="black"/>
<path d="M77.9375 33.3252H72.5625C71.7562 33.3252 71.2188 33.8627 71.2188 34.6689C71.2188 35.4752 71.7562 36.0127 72.5625 36.0127H77.9375C78.7438 36.0127 79.2812 35.4752 79.2812 34.6689C79.2812 33.8627 78.7438 33.3252 77.9375 33.3252Z" fill="black"/>
<path d="M77.9375 44.0752H72.5625C71.7562 44.0752 71.2188 44.6127 71.2188 45.4189C71.2188 46.2252 71.7562 46.7627 72.5625 46.7627H77.9375C78.7438 46.7627 79.2812 46.2252 79.2812 45.4189C79.2812 44.6127 78.7438 44.0752 77.9375 44.0752Z" fill="black"/>
<path d="M65.8434 22.5752H63.1559C61.409 22.5752 61.409 25.2627 63.1559 25.2627H65.8434C66.6496 25.2627 67.1871 24.7252 67.1871 23.9189C67.1871 23.1127 66.6496 22.5752 65.8434 22.5752Z" fill="black"/>
<path d="M65.8438 33.3252C64.6344 33.4596 61.8125 32.6533 61.8125 34.6689C61.8125 35.4752 62.35 36.0127 63.1562 36.0127H65.8438C66.65 36.0127 67.1875 35.4752 67.1875 34.6689C67.1875 33.8627 66.65 33.3252 65.8438 33.3252Z" fill="black"/>
<path d="M65.8438 44.0752H63.1562C62.35 44.0752 61.8125 44.6127 61.8125 45.4189C61.8125 46.2252 62.35 46.7627 63.1562 46.7627H65.8438C66.65 46.7627 67.1875 46.2252 67.1875 45.4189C67.1875 44.6127 66.65 44.0752 65.8438 44.0752Z" fill="black"/>
<path d="M77.9375 54.6904H72.5625C71.7562 54.6904 71.2188 55.2279 71.2188 56.0342C71.2188 56.8404 71.7562 57.3779 72.5625 57.3779H77.9375C78.7438 57.3779 79.2812 56.8404 79.2812 56.0342C79.2812 55.2279 78.7438 54.6904 77.9375 54.6904Z" fill="black"/>
</svg>
