<svg width="72" height="73" viewBox="0 0 72 73" fill="none" xmlns="http://www.w3.org/2000/svg">
<g filter="url(#filter0_d_3342_17)">
<path d="M33.2775 66.0081C51.0925 66.0081 65.5344 51.5661 65.5344 33.7511C65.5344 15.9361 51.0925 1.49414 33.2775 1.49414C15.4624 1.49414 1.02051 15.9361 1.02051 33.7511C1.02051 51.5661 15.4624 66.0081 33.2775 66.0081Z" fill="#47A1D9"/>
</g>
<g filter="url(#filter1_d_3342_17)">
<path d="M33.2777 59.3132C19.1845 59.3132 7.71582 47.8445 7.71582 33.7513C7.71582 19.6581 19.1845 8.18945 33.2777 8.18945C47.3708 8.18945 58.8395 19.6581 58.8395 33.7513C58.8395 47.8445 47.3708 59.3132 33.2777 59.3132Z" fill="white"/>
</g>
<path fill-rule="evenodd" clip-rule="evenodd" d="M25.4386 31.7707L29.3527 28.3278C29.2985 28.1788 29.2689 28.0181 29.2689 27.8503C29.2689 27.0832 29.8876 26.4615 30.6508 26.4615C31.3994 26.4615 32.0089 27.0597 32.0319 27.8064L35.1255 28.895C35.3789 28.5959 35.7563 28.4063 36.1777 28.4063C36.4155 28.4063 36.6393 28.4666 36.8347 28.573L40.401 25.5104C40.3505 25.3661 40.3228 25.2108 40.3228 25.049C40.3228 24.282 40.9415 23.6602 41.7047 23.6602C42.4679 23.6602 43.0866 24.282 43.0866 25.049C43.0866 25.8161 42.4679 26.4379 41.7047 26.4379C41.4669 26.4379 41.2431 26.3775 41.0478 26.2712L37.4814 29.3337C37.532 29.4781 37.5596 29.6334 37.5596 29.7952C37.5596 30.5622 36.9409 31.184 36.1777 31.184C35.4291 31.184 34.8197 30.5858 34.7966 29.8391L31.703 28.7505C31.4496 29.0496 31.0722 29.2393 30.6508 29.2393C30.4187 29.2393 30.2001 29.1817 30.0081 29.0801L26.094 32.5231C26.1482 32.6719 26.1778 32.8328 26.1778 33.0005C26.1778 33.7676 25.5591 34.3894 24.7959 34.3894C24.0328 34.3893 23.4141 33.7676 23.4141 33.0005C23.4141 32.2334 24.0328 31.6116 24.7959 31.6116C25.028 31.6116 25.2466 31.6691 25.4386 31.7707ZM40.6535 29.1807C40.3099 29.1807 40.0295 29.4624 40.0295 29.8078V42.6058C40.0295 42.9512 40.3099 43.2329 40.6535 43.2329H42.7561C43.0998 43.2329 43.38 42.9512 43.38 42.6058V29.8078C43.38 29.4624 43.0998 29.1807 42.7561 29.1807H40.6535ZM35.1265 34.2948C34.7828 34.2948 34.5026 34.5765 34.5026 34.9219V42.7369C34.5026 43.0823 34.7828 43.364 35.1265 43.364H37.2291C37.5728 43.364 37.853 43.0823 37.853 42.7369C37.853 40.1319 37.853 37.5269 37.853 34.9219C37.853 34.5765 37.5728 34.2948 37.2291 34.2948C36.5282 34.2948 35.8274 34.2948 35.1265 34.2948ZM29.5995 32.4588C29.2558 32.4588 28.9755 32.7405 28.9755 33.0859V42.868C28.9755 43.2134 29.2558 43.4951 29.5995 43.4951H31.7021C32.0457 43.4951 32.326 43.2134 32.326 42.868V33.0859C32.326 32.7405 32.0457 32.4588 31.7021 32.4588H29.5995ZM24.0725 37.8567H26.1751C26.5187 37.8567 26.799 38.1384 26.799 38.4838V42.999C26.799 43.3444 26.5187 43.6261 26.1751 43.6261H24.0725C23.7289 43.6261 23.4485 43.3444 23.4485 42.999V38.4838C23.4486 38.1383 23.7289 37.8567 24.0725 37.8567Z" fill="url(#paint0_linear_3342_17)"/>
<defs>
<filter id="filter0_d_3342_17" x="0.112963" y="0.586596" width="71.774" height="71.774" filterUnits="userSpaceOnUse" color-interpolation-filters="sRGB">
<feFlood flood-opacity="0" result="BackgroundImageFix"/>
<feColorMatrix in="SourceAlpha" type="matrix" values="0 0 0 0 0 0 0 0 0 0 0 0 0 0 0 0 0 0 127 0" result="hardAlpha"/>
<feOffset dx="2.72263" dy="2.72263"/>
<feGaussianBlur stdDeviation="1.81509"/>
<feColorMatrix type="matrix" values="0 0 0 0 0.466667 0 0 0 0 0.466667 0 0 0 0 0.466667 0 0 0 0.35 0"/>
<feBlend mode="normal" in2="BackgroundImageFix" result="effect1_dropShadow_3342_17"/>
<feBlend mode="normal" in="SourceGraphic" in2="effect1_dropShadow_3342_17" result="shape"/>
</filter>
<filter id="filter1_d_3342_17" x="6.80828" y="7.28191" width="58.3844" height="58.3844" filterUnits="userSpaceOnUse" color-interpolation-filters="sRGB">
<feFlood flood-opacity="0" result="BackgroundImageFix"/>
<feColorMatrix in="SourceAlpha" type="matrix" values="0 0 0 0 0 0 0 0 0 0 0 0 0 0 0 0 0 0 127 0" result="hardAlpha"/>
<feOffset dx="2.72263" dy="2.72263"/>
<feGaussianBlur stdDeviation="1.81509"/>
<feColorMatrix type="matrix" values="0 0 0 0 0.466667 0 0 0 0 0.466667 0 0 0 0 0.466667 0 0 0 0.35 0"/>
<feBlend mode="normal" in2="BackgroundImageFix" result="effect1_dropShadow_3342_17"/>
<feBlend mode="normal" in="SourceGraphic" in2="effect1_dropShadow_3342_17" result="shape"/>
</filter>
<linearGradient id="paint0_linear_3342_17" x1="33.397" y1="23.6602" x2="33.9756" y2="79.3381" gradientUnits="userSpaceOnUse">
<stop stop-color="#265285"/>
<stop offset="1" stop-color="#CE0695"/>
</linearGradient>
</defs>
</svg>
