<svg width="78" height="86" viewBox="0 0 78 86" fill="none" xmlns="http://www.w3.org/2000/svg">
<path d="M73.3795 38.7777C72.5986 38.5048 71.7714 38.3887 70.9455 38.4361C70.1197 38.4836 69.3113 38.6937 68.5668 39.0544C67.8223 39.415 67.1564 39.9192 66.6072 40.5378C66.058 41.1565 65.6364 41.8775 65.3666 42.6595C65.0243 43.6424 64.6746 44.5202 64.315 45.3626C62.7614 45.1813 61.1871 45.3265 59.693 45.7889C58.1988 46.2513 56.8177 47.0206 55.6381 48.0477C54.3422 44.7365 50.7824 43.8013 47.3961 44.0991C35.0825 43.8569 18.7775 46.4296 12.009 58.8572C11.2492 58.2141 10.3323 57.7842 9.35189 57.6116C8.3715 57.4389 7.36286 57.5297 6.42905 57.8746L3.74759 58.8499C2.32975 59.3731 1.17592 60.4351 0.537156 61.8048C-0.101606 63.1745 -0.173601 64.741 0.336836 66.1635L6.19218 82.2522C6.71537 83.6704 7.77759 84.8245 9.14761 85.4633C10.5176 86.1021 12.0845 86.1738 13.5072 85.6629L16.1885 84.6877C17.2824 84.29 18.2277 83.566 18.8968 82.6136C19.5659 81.6613 19.9264 80.5264 19.9297 79.3625C45.9006 82.9199 71.1319 70.3294 77.3089 46.5561C77.795 45.0032 77.6565 43.3219 76.9228 41.8695C76.189 40.4171 74.9179 39.3079 73.3795 38.7777ZM55.9345 51.8049C56.7401 50.6774 57.8015 49.757 59.0316 49.1191C60.2618 48.4813 61.6257 48.1442 63.0113 48.1355C60.5439 53.1155 56.704 57.2862 51.9443 60.1557C52.4019 58.4845 53.0081 56.8576 53.7558 55.2945C54.8569 54.4121 55.6251 53.1816 55.9345 51.8049ZM16.8225 80.5314C16.2902 82.027 13.7878 82.4364 12.5311 82.9823C11.8197 83.2376 11.0363 83.2016 10.3514 82.8822C9.66639 82.5628 9.13528 81.9858 8.87363 81.2767L3.01821 65.1882C2.04327 62.0516 5.16405 61.3366 7.40525 60.5555C8.11662 60.3013 8.89948 60.3378 9.5841 60.6571C10.2687 60.9763 10.7999 61.5525 11.0626 62.2608L16.918 78.3495C17.0472 78.7014 17.1053 79.0755 17.0889 79.45C17.0725 79.8245 16.982 80.1921 16.8225 80.5314ZM74.575 45.7416C68.7398 68.4868 43.9402 80.2378 19.24 76.3865L13.8647 61.617C19.8535 48.3203 37.0486 46.6254 49.6485 46.9663C54.0044 46.9532 54.5591 53.2093 50.2991 53.7936C46.3679 54.2073 43.2071 54.6602 41.1471 55.1047C37.133 56.0089 31.9017 59.7612 28.2192 62.7526C27.7116 63.1767 27.3473 63.7472 27.1764 64.3862C27.0054 65.0252 27.0361 65.7014 27.2642 66.3223C27.4923 66.9432 27.9067 67.4785 28.4507 67.8548C28.9947 68.2312 29.6416 68.4302 30.3031 68.4248C49.1179 68.3673 62.5896 59.9383 68.0681 43.5763C68.3725 42.7355 68.9932 42.0468 69.7979 41.6569C70.6027 41.267 71.5279 41.2069 72.3763 41.4892C73.2248 41.7716 73.9295 42.3741 74.3402 43.1684C74.7509 43.9627 74.8351 44.886 74.575 45.7416ZM50.0648 56.6897C49.4346 58.3925 48.9417 60.1431 48.5911 61.9247C42.8026 64.4362 36.5436 65.6796 30.2346 65.5713C30.164 65.572 30.095 65.5506 30.037 65.5102C29.9791 65.4698 29.9352 65.4123 29.9115 65.3458C29.8877 65.2793 29.8853 65.2071 29.9045 65.1391C29.9237 65.0711 29.9636 65.0108 30.0187 64.9666C38.8092 58.0436 40.5274 57.6976 50.0648 56.6897Z" fill="black"/>
<path d="M44.1993 39.8461C49.4951 39.8402 54.5722 37.7338 58.3169 33.9891C62.0616 30.2444 64.168 25.1673 64.1739 19.8715C63.077 -6.62767 25.3176 -6.62001 24.2246 19.8716C24.2306 25.1673 26.337 30.2445 30.0816 33.9892C33.8263 37.7338 38.9035 39.8402 44.1993 39.8461ZM44.1993 2.75035C48.7385 2.75542 53.0904 4.56087 56.3001 7.77061C59.5099 10.9803 61.3153 15.3322 61.3204 19.8715C60.3803 42.585 28.0149 42.5784 27.0781 19.8713C27.0832 15.3321 28.8887 10.9802 32.0984 7.77054C35.3082 4.56084 39.66 2.75541 44.1993 2.75035Z" fill="black"/>
<path d="M42.4781 26.5883C42.6105 26.7208 42.7678 26.8259 42.9409 26.8977C43.114 26.9694 43.2995 27.0063 43.4868 27.0063C43.6742 27.0063 43.8597 26.9694 44.0328 26.8977C44.2059 26.8259 44.3632 26.7208 44.4956 26.5883L55.1963 15.8876C55.4553 15.6183 55.5983 15.2582 55.5947 14.8846C55.591 14.511 55.441 14.1537 55.1768 13.8896C54.9126 13.6254 54.5554 13.4754 54.1818 13.4717C53.8082 13.4681 53.4481 13.6112 53.1788 13.8702L43.4868 23.562L38.0751 18.1503C37.8058 17.8913 37.4457 17.7483 37.0721 17.7519C36.6985 17.7556 36.3412 17.9056 36.0771 18.1698C35.8129 18.434 35.6629 18.7912 35.6592 19.1648C35.6556 19.5384 35.7987 19.8985 36.0577 20.1678L42.4781 26.5883Z" fill="black"/>
<path d="M67.0273 19.8711C67.0273 20.0585 67.0642 20.244 67.1358 20.4172C67.2075 20.5903 67.3126 20.7476 67.4451 20.8801C67.5776 21.0126 67.7349 21.1177 67.908 21.1894C68.0812 21.261 68.2667 21.2979 68.4541 21.2979H72.7344C73.1128 21.2979 73.4757 21.1475 73.7433 20.88C74.0108 20.6124 74.1612 20.2495 74.1612 19.8711C74.1612 19.4927 74.0108 19.1298 73.7433 18.8622C73.4757 18.5947 73.1128 18.4443 72.7344 18.4443H68.4541C68.2667 18.4443 68.0812 18.4812 67.908 18.5528C67.7349 18.6245 67.5776 18.7296 67.4451 18.8621C67.3126 18.9946 67.2075 19.1519 67.1358 19.325C67.0642 19.4982 67.0273 19.6837 67.0273 19.8711Z" fill="black"/>
<path d="M65.6525 12.0632C65.7824 12.4185 66.0478 12.7077 66.3906 12.8676C66.7334 13.0274 67.1256 13.0448 67.4812 12.9159L71.5038 11.4515C71.8592 11.322 72.1487 11.0566 72.3085 10.7136C72.4683 10.3706 72.4853 9.97826 72.3558 9.62277C72.2262 9.26727 71.9608 8.9778 71.6178 8.81802C71.2749 8.65824 70.8825 8.64125 70.527 8.77077L66.5045 10.2352C66.3286 10.2992 66.1669 10.3974 66.0289 10.5239C65.8908 10.6505 65.779 10.803 65.6999 10.9727C65.6208 11.1425 65.5759 11.3261 65.5678 11.5132C65.5596 11.7003 65.5884 11.8872 65.6525 12.0632Z" fill="black"/>
<path d="M62.7816 5.70771C63.1169 5.70795 63.4415 5.58949 63.6977 5.37332L66.9762 2.6229C67.121 2.50293 67.2407 2.3555 67.3283 2.18911C67.4159 2.02272 67.4697 1.84065 67.4866 1.65337C67.5036 1.4661 67.4834 1.27732 67.4271 1.0979C67.3708 0.918477 67.2796 0.751959 67.1587 0.607926C67.0378 0.463893 66.8896 0.345189 66.7227 0.258646C66.5557 0.172103 66.3733 0.11943 66.186 0.103658C65.9986 0.0878862 65.8099 0.109326 65.6309 0.166745C65.4518 0.224164 65.2859 0.316428 65.1426 0.438227L61.8641 3.18865C61.6449 3.37915 61.4886 3.63168 61.4158 3.91288C61.3431 4.19407 61.3574 4.49072 61.4568 4.76363C61.5562 5.03654 61.736 5.27288 61.9726 5.44144C62.2091 5.61 62.4912 5.70284 62.7816 5.70771Z" fill="black"/>
</svg>
