<svg width="177" height="89" viewBox="0 0 177 89" fill="none" xmlns="http://www.w3.org/2000/svg">
<g filter="url(#filter0_d_3265_58)">
<path d="M153.663 18.1961L21.027 24.1949L1.2832 4.45109V68.4428C1.2832 76.102 7.49625 82.315 15.1554 82.315H156.743C164.402 82.315 170.615 76.102 170.615 68.4428V1.24414L153.663 18.1961Z" fill="#265285"/>
<path d="M153.686 18.6956L153.88 18.6868L154.017 18.5497L170.115 2.45124V68.4428C170.115 75.8258 164.126 81.815 156.743 81.815H15.1554C7.77239 81.815 1.7832 75.8258 1.7832 68.4428V5.65819L20.6735 24.5485L20.8294 24.7044L21.0496 24.6944L153.686 18.6956Z" stroke="white"/>
</g>
<defs>
<filter id="filter0_d_3265_58" x="0.375659" y="0.336596" width="176.592" height="88.3316" filterUnits="userSpaceOnUse" color-interpolation-filters="sRGB">
<feFlood flood-opacity="0" result="BackgroundImageFix"/>
<feColorMatrix in="SourceAlpha" type="matrix" values="0 0 0 0 0 0 0 0 0 0 0 0 0 0 0 0 0 0 127 0" result="hardAlpha"/>
<feOffset dx="2.72263" dy="2.72263"/>
<feGaussianBlur stdDeviation="1.81509"/>
<feColorMatrix type="matrix" values="0 0 0 0 0.466667 0 0 0 0 0.466667 0 0 0 0 0.466667 0 0 0 0.35 0"/>
<feBlend mode="normal" in2="BackgroundImageFix" result="effect1_dropShadow_3265_58"/>
<feBlend mode="normal" in="SourceGraphic" in2="effect1_dropShadow_3265_58" result="shape"/>
</filter>
</defs>
</svg>
