<svg width="72" height="72" viewBox="0 0 72 72" fill="none" xmlns="http://www.w3.org/2000/svg">
<g filter="url(#filter0_d_3342_18)">
<path d="M33.3263 65.4807C51.1413 65.4807 65.5832 51.0388 65.5832 33.2238C65.5832 15.4087 51.1413 0.966797 33.3263 0.966797C15.5113 0.966797 1.06934 15.4087 1.06934 33.2238C1.06934 51.0388 15.5113 65.4807 33.3263 65.4807Z" fill="#265285"/>
</g>
<g filter="url(#filter1_d_3342_18)">
<path d="M33.3265 58.7858C19.2333 58.7858 7.76465 47.3171 7.76465 33.224C7.76465 19.1308 19.2333 7.66211 33.3265 7.66211C47.4197 7.66211 58.8884 19.1308 58.8884 33.224C58.8884 47.3171 47.4197 58.7858 33.3265 58.7858Z" fill="white"/>
</g>
<path d="M31.4939 23.5097V29.3543C31.4939 29.7972 31.318 30.2219 31.0048 30.5351C30.6917 30.8483 30.2669 31.0242 29.824 31.0242H23.9795C23.5366 31.0242 23.1118 30.8483 22.7987 30.5351C22.4855 30.2219 22.3096 29.7972 22.3096 29.3543V23.5097C22.3096 23.0668 22.4855 22.6421 22.7987 22.3289C23.1118 22.0158 23.5366 21.8398 23.9795 21.8398H29.824C30.2669 21.8398 30.6917 22.0158 31.0048 22.3289C31.318 22.6421 31.4939 23.0668 31.4939 23.5097ZM41.5132 21.8398H35.6686C35.2257 21.8398 34.801 22.0158 34.4878 22.3289C34.1747 22.6421 33.9987 23.0668 33.9987 23.5097V29.3543C33.9987 29.7972 34.1747 30.2219 34.4878 30.5351C34.801 30.8483 35.2257 31.0242 35.6686 31.0242H41.5132C41.9561 31.0242 42.3808 30.8483 42.694 30.5351C43.0072 30.2219 43.1831 29.7972 43.1831 29.3543V23.5097C43.1831 23.0668 43.0072 22.6421 42.694 22.3289C42.3808 22.0158 41.9561 21.8398 41.5132 21.8398ZM29.824 33.529H23.9795C23.5366 33.529 23.1118 33.7049 22.7987 34.0181C22.4855 34.3313 22.3096 34.756 22.3096 35.1989V41.0435C22.3096 41.4864 22.4855 41.9111 22.7987 42.2243C23.1118 42.5374 23.5366 42.7134 23.9795 42.7134H29.824C30.2669 42.7134 30.6917 42.5374 31.0048 42.2243C31.318 41.9111 31.4939 41.4864 31.4939 41.0435V35.1989C31.4939 34.756 31.318 34.3313 31.0048 34.0181C30.6917 33.7049 30.2669 33.529 29.824 33.529ZM38.5909 33.529C37.6827 33.529 36.7948 33.7983 36.0396 34.3029C35.2845 34.8075 34.6959 35.5247 34.3483 36.3638C34.0007 37.2029 33.9098 38.1263 34.087 39.0171C34.2642 39.9079 34.7015 40.7261 35.3438 41.3683C35.986 42.0106 36.8042 42.4479 37.695 42.6251C38.5858 42.8023 39.5092 42.7114 40.3483 42.3638C41.1874 42.0162 41.9046 41.4276 42.4092 40.6725C42.9138 39.9173 43.1831 39.0294 43.1831 38.1212C43.1831 36.9033 42.6993 35.7352 41.8381 34.874C40.9769 34.0128 39.8088 33.529 38.5909 33.529Z" fill="url(#paint0_linear_3342_18)"/>
<defs>
<filter id="filter0_d_3342_18" x="0.161792" y="0.0592525" width="71.774" height="71.774" filterUnits="userSpaceOnUse" color-interpolation-filters="sRGB">
<feFlood flood-opacity="0" result="BackgroundImageFix"/>
<feColorMatrix in="SourceAlpha" type="matrix" values="0 0 0 0 0 0 0 0 0 0 0 0 0 0 0 0 0 0 127 0" result="hardAlpha"/>
<feOffset dx="2.72263" dy="2.72263"/>
<feGaussianBlur stdDeviation="1.81509"/>
<feColorMatrix type="matrix" values="0 0 0 0 0.466667 0 0 0 0 0.466667 0 0 0 0 0.466667 0 0 0 0.35 0"/>
<feBlend mode="normal" in2="BackgroundImageFix" result="effect1_dropShadow_3342_18"/>
<feBlend mode="normal" in="SourceGraphic" in2="effect1_dropShadow_3342_18" result="shape"/>
</filter>
<filter id="filter1_d_3342_18" x="6.8571" y="6.75457" width="58.3844" height="58.3844" filterUnits="userSpaceOnUse" color-interpolation-filters="sRGB">
<feFlood flood-opacity="0" result="BackgroundImageFix"/>
<feColorMatrix in="SourceAlpha" type="matrix" values="0 0 0 0 0 0 0 0 0 0 0 0 0 0 0 0 0 0 127 0" result="hardAlpha"/>
<feOffset dx="2.72263" dy="2.72263"/>
<feGaussianBlur stdDeviation="1.81509"/>
<feColorMatrix type="matrix" values="0 0 0 0 0.466667 0 0 0 0 0.466667 0 0 0 0 0.466667 0 0 0 0.35 0"/>
<feBlend mode="normal" in2="BackgroundImageFix" result="effect1_dropShadow_3342_18"/>
<feBlend mode="normal" in="SourceGraphic" in2="effect1_dropShadow_3342_18" result="shape"/>
</filter>
<linearGradient id="paint0_linear_3342_18" x1="32.7463" y1="21.8398" x2="33.3512" y2="80.0486" gradientUnits="userSpaceOnUse">
<stop stop-color="#265285"/>
<stop offset="1" stop-color="#CE0695"/>
</linearGradient>
</defs>
</svg>
