<svg width="15" height="9" viewBox="0 0 15 9" fill="none" xmlns="http://www.w3.org/2000/svg">
<path d="M14.7423 3.7354C14.712 3.69704 13.9852 2.78531 12.7392 1.8699C11.0742 0.646603 9.26247 0 7.49995 0C5.7375 0 3.92579 0.646603 2.2607 1.8699C1.01471 2.78528 0.287919 3.69704 0.25761 3.7354L0 4.06121L0.257643 4.38706C0.287952 4.42541 1.01474 5.33718 2.26073 6.25259C3.92582 7.47585 5.73753 8.12245 7.49998 8.12245C9.26247 8.12245 11.0742 7.47585 12.7392 6.25259C13.9852 5.33718 14.712 4.42541 14.7423 4.38706L15 4.06121L14.7423 3.7354ZM7.49995 6.90631C5.93117 6.90631 4.65485 5.63002 4.65485 4.06121C4.65485 3.81542 4.68617 3.57682 4.74505 3.34916L4.09549 3.23985C4.03185 3.50337 3.9981 3.77841 3.9981 4.06121C3.9981 5.07457 4.43096 5.98864 5.12127 6.62867C4.23265 6.30043 3.47703 5.83982 2.90674 5.42324C2.20021 4.9072 1.67071 4.38528 1.36883 4.06121C1.67084 3.73704 2.20028 3.21518 2.90674 2.69918C3.47703 2.2826 4.23269 1.82199 5.12127 1.49371L5.55702 1.98489C6.06594 1.50836 6.74942 1.2161 7.49995 1.2161C9.06873 1.2161 10.345 2.4924 10.345 4.06121C10.345 5.63002 9.06873 6.90631 7.49995 6.90631ZM12.0932 5.42324C11.5228 5.83982 10.7672 6.30043 9.87863 6.62867C10.5689 5.98867 11.0018 5.07461 11.0018 4.06118C11.0018 3.04775 10.5689 2.13371 9.87863 1.49368C10.7672 1.82195 11.5228 2.28257 12.0932 2.69914C12.7997 3.21518 13.3292 3.7371 13.6311 4.06114C13.3291 4.38538 12.7996 4.90727 12.0932 5.42324Z" fill="white"/>
<path d="M5.68926 3.50771C5.63586 3.6827 5.60693 3.86833 5.60693 4.06079C5.60693 5.10614 6.45437 5.95361 7.49975 5.95361C8.5451 5.95361 9.39254 5.10617 9.39254 4.06079C9.39254 3.01541 8.5451 2.16797 7.49975 2.16797C6.99057 2.16797 6.52871 2.36939 6.18849 2.69646L7.12212 3.74883L5.68926 3.50771Z" fill="white"/>
</svg>
