<svg width="40" height="41" viewBox="0 0 40 41" fill="none" xmlns="http://www.w3.org/2000/svg">
<path d="M32.4903 34.919L30.9933 30.4274C30.4702 28.8592 29.1355 27.7017 27.5085 27.4056L23.187 26.6193V26.2843C23.939 25.8478 24.5934 25.2639 25.1146 24.5726H26.4202C27.4898 24.5726 28.3602 23.7022 28.3602 22.6327V14.8729C28.3602 10.2377 24.5889 6.46643 19.9537 6.46643C15.3186 6.46643 11.5473 10.2377 11.5473 14.8729V19.3994C11.5473 20.6462 12.4339 21.6892 13.6095 21.9323C13.9722 23.7908 15.1336 25.3635 16.7205 26.2843V26.6193L12.3983 27.4056C10.772 27.7017 9.43664 28.8592 8.91414 30.4274L8.65549 31.204L6.453 29.0015C6.2008 28.7493 6.2008 28.3387 6.453 28.0865L9.00726 25.5329L4.21301 20.7386L1.32636 23.6253C0.471493 24.4801 0.000732422 25.6169 0.000732422 26.8262C0.000732422 28.0354 0.471493 29.1716 1.32636 30.0264L10.0658 38.7659C10.9207 39.6208 12.0575 40.0922 13.2667 40.0922C14.476 40.0922 15.6121 39.6208 16.447 38.7853L19.5968 35.8993L18.6145 34.919H32.4903ZM27.0669 22.6327C27.0669 22.9896 26.7765 23.2793 26.4202 23.2793H25.8764C26.0639 22.8519 26.2062 22.4012 26.298 21.9323C26.5748 21.8748 26.8296 21.7649 27.0669 21.6265V22.6327ZM26.4202 20.5129V18.2859C26.805 18.5103 27.0669 18.9228 27.0669 19.3994C27.0669 19.876 26.805 20.2886 26.4202 20.5129ZM13.4872 20.5129C13.1025 20.2886 12.8406 19.876 12.8406 19.3994C12.8406 18.9228 13.1025 18.5103 13.4872 18.2859V20.5129ZM13.4872 16.1662V16.9046C13.257 16.9648 13.0411 17.0553 12.8406 17.1724V14.8729C12.8406 10.9509 16.0318 7.75973 19.9537 7.75973C23.8757 7.75973 27.0669 10.9509 27.0669 14.8729V17.1724C26.8664 17.0553 26.6504 16.9641 26.4202 16.9046V16.1662H25.7736C23.8614 16.1662 22.0638 15.4212 20.711 14.0691L19.9537 13.3119L19.1965 14.0691C17.8437 15.4212 16.046 16.1662 14.1339 16.1662H13.4872ZM14.7805 20.6927V17.4349C16.7224 17.2888 18.5331 16.4876 19.9537 15.1367C21.3744 16.4876 23.185 17.2894 25.1269 17.4349V20.6927C25.1269 21.6355 24.8696 22.5176 24.4273 23.2793H19.9537V24.5726H23.3642C22.4524 25.3751 21.2606 25.8659 19.9537 25.8659C17.1014 25.8659 14.7805 23.5451 14.7805 20.6927ZM21.8937 26.8611V26.8915L19.9537 28.8314L18.0138 26.8915V26.8611C18.6268 27.0538 19.278 27.1592 19.9537 27.1592C20.6295 27.1592 21.2807 27.0538 21.8937 26.8611ZM10.1402 30.8361C10.5133 29.7161 11.4671 28.889 12.6291 28.6769L17.1492 27.8556L19.9537 30.6602L22.7576 27.8563L27.277 28.6775C28.4391 28.8896 29.3929 29.7161 29.766 30.8367L30.6965 33.6257H17.3212L14.8025 31.107L12.0038 33.6386C11.76 33.8837 11.3339 33.8837 11.0895 33.6386L9.67719 32.2263L10.1402 30.8361ZM4.21236 22.5673L7.17789 25.5329L6.47563 26.2351L3.5101 23.2696L4.21236 22.5673ZM15.5514 37.8528C14.9409 38.462 14.1287 38.7989 13.2654 38.7989C12.4022 38.7989 11.59 38.462 10.9789 37.8515L2.23943 29.1127C1.62899 28.5023 1.29274 27.6901 1.29274 26.8268C1.29274 25.9629 1.62899 25.1507 2.23943 24.5403L2.59509 24.1846L5.56062 27.1502L5.53734 27.1734C4.78141 27.93 4.78141 29.1606 5.53734 29.9172L10.1745 34.5543C10.5411 34.9203 11.028 35.1227 11.5467 35.1227C12.0653 35.1227 12.5522 34.9209 12.8949 34.5769L12.9434 34.5336L15.9225 37.5127L15.5514 37.8528ZM16.877 36.6371L13.9043 33.6645L14.7586 32.8924L17.726 35.8599L16.877 36.6371Z" fill="#265285"/>
<path d="M38.0601 0H29.007C27.9374 0 27.067 0.87039 27.067 1.93995V7.11314C27.067 8.1827 27.9374 9.05309 29.007 9.05309H30.7342L30.0655 12.953L36.3057 9.05309H38.0601C39.1296 9.05309 40 8.1827 40 7.11314V1.93995C40 0.87039 39.1296 0 38.0601 0ZM38.7067 7.11314C38.7067 7.46944 38.4164 7.75979 38.0601 7.75979H35.9345L31.8276 10.3263L32.268 7.75979H29.007C28.6507 7.75979 28.3603 7.46944 28.3603 7.11314V1.93995C28.3603 1.58364 28.6507 1.2933 29.007 1.2933H38.0601C38.4164 1.2933 38.7067 1.58364 38.7067 1.93995V7.11314Z" fill="#265285"/>
<path d="M37.4134 2.58655H29.6536V3.87985H37.4134V2.58655Z" fill="#265285"/>
<path d="M34.8268 5.17322H29.6536V6.46652H34.8268V5.17322Z" fill="#265285"/>
<path d="M37.4133 5.17322H36.12V6.46652H37.4133V5.17322Z" fill="#265285"/>
<path d="M19.9536 1.93994C11.5045 1.93994 4.2265 7.78436 2.3344 15.9367L1.109 13.8939L0 14.5593L2.27297 18.3467L6.06039 16.0738L5.39499 14.9647L3.64257 16.0162C5.47518 8.55839 12.1816 3.23324 19.9536 3.23324C21.6524 3.23324 23.3285 3.48543 24.9354 3.98335L25.3183 2.74825C23.5872 2.21153 21.7824 1.93994 19.9536 1.93994Z" fill="#265285"/>
<path d="M39.6857 14.318L35.8983 12.045L33.626 15.8331L34.735 16.4985L35.8666 14.6122C36.4622 16.355 36.7668 18.1779 36.7668 20.046C36.7668 23.8917 35.4347 27.6513 33.0168 30.6317L34.0211 31.4465C36.6258 28.2365 38.0601 24.1872 38.0601 20.046C38.0601 18.0679 37.7413 16.1364 37.1198 14.287L39.0203 15.427L39.6857 14.318Z" fill="#265285"/>
</svg>
