<svg width="40" height="40" viewBox="0 0 40 40" fill="none" xmlns="http://www.w3.org/2000/svg">
<path d="M21.7578 40H18.2422C16.9498 40 15.8984 38.9486 15.8984 37.6562C15.8984 36.5662 16.6465 35.6475 17.6562 35.3866V34.4143C17.6562 34.192 17.4948 33.9995 17.2722 33.9562C15.4009 33.5925 13.6485 32.8667 12.0638 31.799C11.8741 31.671 11.6223 31.6924 11.465 31.8496L10.7714 32.5431C11.2552 33.3852 11.1941 34.47 10.558 35.2295C10.135 35.7344 9.51688 36.0405 8.86187 36.0693C8.20695 36.0975 7.56469 35.8488 7.10094 35.3852L4.61492 32.8992C4.17227 32.4566 3.92852 31.868 3.92852 31.242C3.92852 30.6159 4.17227 30.0273 4.61492 29.5846C5.05766 29.142 5.64617 28.8982 6.27227 28.8982C6.69797 28.8982 7.10641 29.0109 7.46328 29.2222L8.15047 28.535C8.30773 28.3778 8.32898 28.1259 8.20109 27.9362C7.13336 26.3515 6.40758 24.5991 6.04391 22.7279C6.00063 22.5052 5.80797 22.3438 5.58578 22.3438H4.6143C4.5082 22.7591 4.28867 23.138 3.97125 23.4444C3.50938 23.8902 2.90188 24.1218 2.25898 24.1002C0.992266 24.055 0 23.0097 0 21.7204V18.2422C0 17.6013 0.25375 17.003 0.714531 16.5573C1.17531 16.1119 1.78336 15.8784 2.42344 15.8998C3.45984 15.9344 4.33578 16.677 4.60344 17.6562H5.5857C5.80797 17.6562 6.00063 17.4948 6.04383 17.2722C6.4075 15.4009 7.13328 13.6485 8.20102 12.0638C8.32891 11.8741 8.30758 11.6222 8.15039 11.465L7.4632 10.7778C7.10633 10.9891 6.69789 11.1018 6.27219 11.1018C5.64609 11.1018 5.05758 10.858 4.61484 10.4154C3.70102 9.50156 3.70102 8.01461 4.61484 7.1007L7.10078 4.61484C8.01461 3.70094 9.50148 3.70109 10.4154 4.61484C10.858 5.05758 11.1018 5.64609 11.1018 6.27219C11.1018 6.69781 10.9891 7.10625 10.7778 7.4632L11.465 8.15039C11.6223 8.30773 11.8741 8.32891 12.0638 8.20102C13.6485 7.13328 15.4009 6.4075 17.2721 6.04383C17.4948 6.00055 17.6562 5.80789 17.6562 5.5857V4.61336C16.6465 4.3525 15.8984 3.43383 15.8984 2.34375C15.8984 1.05141 16.9498 0 18.2422 0H21.7578C23.0502 0 24.1016 1.05141 24.1016 2.34375C24.1016 3.43383 23.3535 4.3525 22.3438 4.61336V5.5857C22.3438 5.80797 22.5052 6.00063 22.7278 6.04383C24.5991 6.4075 26.3515 7.13328 27.9362 8.20102C28.1259 8.32891 28.3777 8.30766 28.535 8.15039L29.2228 7.46266C28.6932 6.56398 28.8139 5.38555 29.5846 4.61484C30.4984 3.70109 31.9853 3.70094 32.8992 4.61484L35.3852 7.1007C36.299 8.01453 36.299 9.50148 35.3852 10.4154C34.9424 10.858 34.3539 11.1018 33.7278 11.1018C33.3022 11.1018 32.8937 10.9891 32.5368 10.7778L31.8496 11.465C31.6923 11.6222 31.6711 11.8741 31.799 12.0638C32.8667 13.6485 33.5925 15.4009 33.9562 17.2721C33.9995 17.4948 34.1921 17.6562 34.4143 17.6562H35.3949C35.6483 16.7187 36.4587 15.9948 37.4455 15.9077H37.4456C38.1019 15.8492 38.7552 16.0705 39.2388 16.5133C39.7225 16.9562 40 17.5864 40 18.2422V21.7578C40 22.4136 39.7225 23.0438 39.2388 23.4867C38.7552 23.9295 38.1011 24.1501 37.4456 24.0923C36.4587 24.0052 35.6483 23.2813 35.3949 22.3438H34.4143C34.192 22.3438 33.9995 22.5052 33.9562 22.7278C33.5925 24.5991 32.8667 26.3515 31.799 27.9362C31.6711 28.1259 31.6924 28.3778 31.8496 28.535L32.5368 29.2222C32.8937 29.0109 33.3022 28.8982 33.7278 28.8982C34.3539 28.8982 34.9424 29.142 35.3852 29.5846C35.8278 30.0273 36.0716 30.6159 36.0716 31.242C36.0716 31.868 35.8278 32.4566 35.3851 32.8992L32.8992 35.3852C32.4355 35.8489 31.794 36.0983 31.1382 36.0693C30.4832 36.0405 29.8651 35.7344 29.4421 35.2295C28.806 34.47 28.7448 33.3852 29.2287 32.5431L28.5351 31.8496C28.3778 31.6923 28.126 31.671 27.9363 31.799C26.3516 32.8667 24.5992 33.5925 22.728 33.9562C22.5053 33.9995 22.3438 34.1921 22.3438 34.4143V35.3866C23.3536 35.6475 24.1016 36.5662 24.1016 37.6562C24.1016 38.9486 23.0502 40 21.7578 40ZM11.7938 30.1539C12.19 30.1539 12.589 30.2687 12.937 30.5032C14.3469 31.4531 15.9058 32.0989 17.5703 32.4223C18.5254 32.6079 19.2188 33.4456 19.2188 34.4143V35.8984C19.2188 36.437 18.7807 36.875 18.2422 36.875C17.8114 36.875 17.4609 37.2255 17.4609 37.6562C17.4609 38.087 17.8114 38.4375 18.2422 38.4375H21.7578C22.1886 38.4375 22.5391 38.087 22.5391 37.6562C22.5391 37.2255 22.1886 36.875 21.7578 36.875C21.2193 36.875 20.7812 36.437 20.7812 35.8984V34.4143C20.7812 33.4457 21.4746 32.6079 22.4298 32.4223C24.0943 32.0988 25.6532 31.4531 27.0631 30.5032C27.8715 29.9585 28.9552 30.06 29.6399 30.7448L30.7145 31.8194C31.0815 32.1863 31.0815 32.7835 30.7145 33.1505C30.4168 33.4482 30.3841 33.9206 30.6399 34.2262C30.7842 34.3984 30.9856 34.4986 31.207 34.5084C31.4299 34.5176 31.6376 34.4372 31.7945 34.2803L34.2803 31.7944C34.428 31.6468 34.5091 31.4507 34.5091 31.242C34.5091 31.0333 34.4279 30.8371 34.2803 30.6896C33.9757 30.385 33.48 30.3852 33.1755 30.6896L33.1505 30.7146C32.7836 31.0816 32.1864 31.0816 31.8194 30.7146L30.7448 29.64C30.0601 28.9553 29.9585 27.8716 30.5032 27.0632C31.4531 25.6533 32.0989 24.0944 32.4223 22.4298C32.6079 21.4746 33.4456 20.7812 34.4143 20.7812H35.9337C36.4527 20.7812 36.875 21.2035 36.875 21.7226C36.875 22.1436 37.1859 22.5008 37.583 22.5359C37.8066 22.5554 38.0201 22.484 38.1834 22.3343C38.3473 22.1844 38.4374 21.9796 38.4374 21.7578V18.2422C38.4374 18.0204 38.3473 17.8156 38.1834 17.6657C38.0199 17.5159 37.8055 17.4442 37.583 17.4641C37.1859 17.4992 36.875 17.8564 36.875 18.2774C36.875 18.7964 36.4527 19.2188 35.9337 19.2188H34.4143C33.4457 19.2188 32.6079 18.5254 32.4223 17.5702C32.0988 15.9057 31.4531 14.3468 30.5032 12.9369C29.9584 12.1284 30.0601 11.0447 30.7448 10.3601L31.7944 9.31047C32.1752 8.92969 32.7947 8.92977 33.1755 9.31047C33.4801 9.615 33.9758 9.61516 34.2804 9.31047C34.585 9.00586 34.585 8.51023 34.2804 8.20555L31.7945 5.71969C31.4901 5.41523 30.9944 5.41492 30.6896 5.71969C30.385 6.02422 30.385 6.51992 30.6896 6.82453C31.0704 7.20531 31.0704 7.82492 30.6896 8.2057L29.64 9.25531C28.9552 9.94 27.8716 10.0416 27.0631 9.49687C25.6533 8.54695 24.0944 7.90117 22.4298 7.57773C21.4746 7.39211 20.7812 6.55438 20.7812 5.5857V4.10156C20.7812 3.56305 21.2193 3.125 21.7578 3.125C22.1886 3.125 22.5391 2.77453 22.5391 2.34375C22.5391 1.91297 22.1886 1.5625 21.7578 1.5625H18.2422C17.8114 1.5625 17.4609 1.91297 17.4609 2.34375C17.4609 2.77453 17.8114 3.125 18.2422 3.125C18.7807 3.125 19.2188 3.56305 19.2188 4.10156V5.5857C19.2188 6.5543 18.5254 7.39211 17.5702 7.57766C15.9057 7.90117 14.3468 8.54688 12.9369 9.4968C12.1285 10.0415 11.0448 9.94 10.3601 9.25523L9.31047 8.20562C9.12609 8.02117 9.02445 7.77594 9.02445 7.51508C9.02445 7.25406 9.12617 7.00875 9.31078 6.8243C9.61516 6.51992 9.61516 6.02422 9.31047 5.71961C9.00586 5.41484 8.51016 5.415 8.20562 5.71961L5.71969 8.20547C5.41508 8.51008 5.41508 9.0057 5.71969 9.31039C5.86727 9.45797 6.06344 9.53922 6.27211 9.53922C6.48078 9.53922 6.67695 9.45805 6.82445 9.31047C7.20516 8.92961 7.82477 8.92969 8.20562 9.31039L9.25523 10.36C9.93992 11.0447 10.0415 12.1284 9.4968 12.9368C8.54688 14.3467 7.90109 15.9056 7.57766 17.5702C7.39211 18.5254 6.55438 19.2188 5.5857 19.2188H4.06063C3.54469 19.2188 3.125 18.7991 3.125 18.2831C3.125 17.8439 2.78688 17.4752 2.37133 17.4614C2.1575 17.4535 1.95422 17.5319 1.80078 17.6805C1.64711 17.8291 1.5625 18.0286 1.5625 18.2422V21.7204C1.5625 22.1568 1.89984 22.5238 2.31453 22.5386C2.52977 22.5465 2.73227 22.4687 2.88609 22.3202C3.04016 22.1715 3.125 21.9717 3.125 21.7578C3.125 21.2193 3.56305 20.7812 4.10156 20.7812H5.5857C6.5543 20.7812 7.39211 21.4746 7.57766 22.4298C7.90117 24.0943 8.54688 25.6532 9.4968 27.0631C10.0416 27.8716 9.93992 28.9553 9.25523 29.6399L8.18062 30.7145C7.81367 31.0816 7.21648 31.0815 6.84953 30.7145L6.82453 30.6895C6.67695 30.5419 6.48086 30.4607 6.27219 30.4607C6.06352 30.4607 5.86727 30.542 5.71977 30.6895C5.57219 30.8371 5.49094 31.0332 5.49094 31.242C5.49094 31.4506 5.57211 31.6468 5.71969 31.7943L8.2057 34.2802C8.36258 34.437 8.57164 34.5181 8.79305 34.5083C9.01445 34.4985 9.21586 34.3983 9.36016 34.2261C9.61602 33.9206 9.58328 33.4481 9.28563 33.1504C8.91859 32.7834 8.91859 32.1862 9.28555 31.8193L10.3602 30.7447C10.7501 30.3548 11.2695 30.1539 11.7938 30.1539Z" fill="#265285"/>
<path d="M16.9824 16.7092C15.1731 16.7092 13.7012 15.2373 13.7012 13.428C13.7012 11.6187 15.1731 10.1467 16.9824 10.1467C18.7917 10.1467 20.2637 11.6187 20.2637 13.428C20.2637 15.2373 18.7917 16.7092 16.9824 16.7092ZM16.9824 11.7092C16.0347 11.7092 15.2637 12.4802 15.2637 13.428C15.2637 14.3757 16.0347 15.1467 16.9824 15.1467C17.9302 15.1467 18.7012 14.3757 18.7012 13.428C18.7012 12.4802 17.9302 11.7092 16.9824 11.7092Z" fill="#265285"/>
<path d="M14.7658 27.7973C13.2006 27.7973 11.9272 26.524 11.9272 24.9588C11.9272 23.3937 13.2006 22.1202 14.7658 22.1202C16.3309 22.1202 17.6043 23.3937 17.6043 24.9588C17.6043 26.524 16.3309 27.7973 14.7658 27.7973ZM14.7658 23.6827C14.0622 23.6827 13.4897 24.2552 13.4897 24.9588C13.4897 25.6624 14.0622 26.2348 14.7658 26.2348C15.4694 26.2348 16.0418 25.6624 16.0418 24.9588C16.0418 24.2552 15.4694 23.6827 14.7658 23.6827Z" fill="#265285"/>
<path d="M25.4557 27.02C23.0072 27.02 20.9471 25.1883 20.6636 22.7594C20.6135 22.3309 20.9204 21.9429 21.3489 21.8928C21.7776 21.8432 22.1654 22.1496 22.2155 22.5783C22.4071 24.2197 23.8 25.4575 25.4557 25.4575C27.2545 25.4575 28.7181 23.9939 28.7181 22.195C28.7181 20.5289 27.4715 19.1349 25.8185 18.9525C25.3896 18.9052 25.0803 18.5191 25.1276 18.0903C25.175 17.6614 25.5614 17.3529 25.9898 17.3994C28.436 17.6693 30.2806 19.7311 30.2806 22.195C30.2806 24.8555 28.1161 27.02 25.4557 27.02Z" fill="#265285"/>
<path d="M24.4531 14.2094C24.2477 14.2094 24.0461 14.1258 23.9008 13.9804C23.7555 13.8351 23.6719 13.6336 23.6719 13.4281C23.6719 13.2219 23.7554 13.0211 23.9008 12.8758C24.0461 12.7305 24.2477 12.6469 24.4531 12.6469C24.6586 12.6469 24.8602 12.7304 25.0054 12.8758C25.1507 13.0211 25.2344 13.2226 25.2344 13.4281C25.2344 13.6336 25.1508 13.8351 25.0054 13.9804C24.8602 14.1258 24.6586 14.2094 24.4531 14.2094Z" fill="#265285"/>
<path d="M20 30.0781C19.7945 30.0781 19.593 29.9945 19.4477 29.8491C19.3023 29.7039 19.2188 29.5023 19.2188 29.2969C19.2188 29.0914 19.3023 28.8898 19.4477 28.7445C19.593 28.5992 19.7937 28.5156 20 28.5156C20.2055 28.5156 20.407 28.5991 20.5523 28.7445C20.6976 28.8898 20.7812 29.0914 20.7812 29.2969C20.7812 29.5023 20.6977 29.7039 20.5523 29.8491C20.407 29.9945 20.2055 30.0781 20 30.0781Z" fill="#265285"/>
<path d="M22.5876 20.1266C22.3822 20.1266 22.1806 20.043 22.0353 19.8976C21.89 19.7524 21.8064 19.5508 21.8064 19.3453C21.8064 19.139 21.8899 18.9383 22.0353 18.7922C22.1806 18.6469 22.3822 18.5641 22.5876 18.5641C22.7931 18.5641 22.9947 18.6469 23.1399 18.7922C23.2852 18.9383 23.3689 19.1391 23.3689 19.3453C23.3689 19.5508 23.2853 19.7515 23.1399 19.8976C22.9947 20.043 22.7931 20.1266 22.5876 20.1266Z" fill="#265285"/>
</svg>
