<svg width="40" height="40" viewBox="0 0 40 40" fill="none" xmlns="http://www.w3.org/2000/svg">
<path d="M8.66699 23.3307C8.66699 29.5908 13.7412 34.6656 20.0006 34.6656C26.26 34.6656 31.3342 29.5908 31.3342 23.3307C31.3342 17.0706 26.26 11.9957 20.0006 11.9957C13.7441 12.0027 8.67397 17.0734 8.66699 23.3307ZM20.0005 13.3292C25.5235 13.3292 30.0007 17.807 30.0007 23.3307C30.0007 28.8544 25.5235 33.3321 20.0005 33.3321C14.4775 33.3321 10.0003 28.8544 10.0003 23.3307C10.0065 17.8097 14.4802 13.3355 20.0005 13.3292Z" fill="#265285"/>
<path d="M20.0003 29.9984C23.6823 29.9984 26.6671 27.0133 26.6671 23.3308C26.6671 19.6484 23.6823 16.6632 20.0003 16.6632C16.3183 16.6632 13.3335 19.6484 13.3335 23.3308C13.3375 27.0115 16.32 29.9943 20.0003 29.9984ZM20.0003 17.9967C22.9459 17.9967 25.3337 20.3849 25.3337 23.3308C25.3337 26.2768 22.9459 28.6649 20.0003 28.6649C17.0547 28.6649 14.6669 26.2768 14.6669 23.3308C14.6701 20.3863 17.0561 18 20.0003 17.9967Z" fill="#265285"/>
<path d="M1.09267 12.0272L2.04667 12.1832C2.23003 12.8429 2.49455 13.4774 2.83402 14.0721L2.27136 14.8522C1.93781 15.3074 1.94867 15.9292 2.29802 16.3724C2.48935 16.6064 2.69805 16.8339 2.93604 17.0752C3.16007 17.2919 3.3847 17.4953 3.63869 17.7099C4.07728 18.0509 4.68891 18.0594 5.13672 17.7306L5.92473 17.1625C6.35286 17.3995 6.80106 17.5983 7.26408 17.7566C6.93677 18.4956 6.67529 19.262 6.48271 20.0469L4.80336 20.3223C4.07129 20.4386 3.50521 21.0265 3.41669 21.7625C3.30467 22.808 3.30467 23.8623 3.41669 24.9077C3.50824 25.6394 4.07195 26.2228 4.80007 26.3392L6.48008 26.6145C6.81706 28.0089 7.37024 29.3419 8.11942 30.5651L7.13337 31.9446C6.69299 32.5454 6.70471 33.3655 7.16206 33.9535C7.49397 34.3579 7.84622 34.7451 8.21742 35.1137C8.55808 35.4544 8.92408 35.7878 9.39144 36.1805C9.97371 36.6308 10.7838 36.6406 11.3768 36.2045L12.7655 35.2104C13.9886 35.9597 15.3214 36.5129 16.7156 36.8499L16.991 38.5295C17.1072 39.2616 17.6951 39.8278 18.431 39.9163C19.4756 40.0279 20.5292 40.0279 21.5737 39.9163C22.3068 39.8256 22.8914 39.2605 23.0071 38.5308L23.2824 36.8506C24.6766 36.5136 26.0094 35.9603 27.2325 35.211L28.6192 36.2039C29.2219 36.6436 30.0441 36.627 30.6285 36.1632C31.0739 35.7885 31.4399 35.4551 31.7805 35.1143C32.1559 34.7414 32.512 34.3495 32.8472 33.9402C33.2953 33.3571 33.305 32.5483 32.8712 31.9545L31.8785 30.565C32.6278 29.3418 33.1809 28.0088 33.5179 26.6145L35.1972 26.3391C35.9288 26.222 36.4945 25.6346 36.5839 24.8989C36.6948 23.8572 36.6948 22.8068 36.5839 21.7651V21.7585C36.4931 21.0253 35.9282 20.4406 35.1986 20.325L33.5185 20.0496C33.325 19.2637 33.0624 18.4964 32.7339 17.7566C33.1969 17.5983 33.6451 17.3995 34.0732 17.1626L34.8672 17.73C35.325 18.0611 35.9479 18.0445 36.3872 17.6893C36.6179 17.4933 36.8426 17.2892 37.0813 17.0586C37.3013 16.8319 37.5133 16.6045 37.7159 16.3559C38.0519 15.9171 38.0592 15.3097 37.7339 14.863L37.1659 14.0755C37.5053 13.4808 37.7698 12.8463 37.9533 12.1866L38.9206 12.0279C39.4677 11.9309 39.8865 11.4864 39.9506 10.9344C39.9793 10.627 40 10.3203 40 10.001C40 9.68159 39.9793 9.37288 39.95 9.05949C39.8892 8.50197 39.4615 8.05476 38.9073 7.96932L37.9533 7.81332C37.7699 7.15357 37.5054 6.5191 37.1659 5.92438L37.7339 5.12824C38.0625 4.67379 38.0489 4.05624 37.7006 3.61667C37.5082 3.37977 37.297 3.14616 37.0673 2.91591C36.8406 2.69586 36.6133 2.48384 36.3646 2.28117C35.9258 1.94119 35.3149 1.93303 34.8672 2.26116L34.0772 2.82658C33.4816 2.48911 32.8472 2.22535 32.1879 2.04111L32.0326 1.09029C31.947 0.532036 31.4956 0.101879 30.9339 0.043493C30.3097 -0.0144977 29.6814 -0.0144977 29.0572 0.043493C28.4997 0.104248 28.0525 0.532036 27.9671 1.08634L27.8131 2.04111C27.1544 2.22456 26.5204 2.48746 25.9251 2.82389L25.1337 2.26116C24.6796 1.93138 24.0614 1.94501 23.6223 2.29447C23.3883 2.48581 23.1609 2.69454 22.927 2.92525C22.693 3.15597 22.4903 3.38398 22.2909 3.62667C21.9465 4.06664 21.9356 4.68169 22.2643 5.13357L22.8322 5.92102C22.6299 6.27581 22.454 6.64508 22.3062 7.02587C22.0861 6.87375 21.832 6.77805 21.5662 6.74717C20.5217 6.63448 19.468 6.63448 18.4235 6.74717C18.1599 6.77765 17.908 6.87296 17.6902 7.02456C17.5429 6.6439 17.3673 6.27482 17.1649 5.92043L17.7335 5.12831C18.0621 4.67386 18.0485 4.0563 17.7002 3.61673C17.5078 3.37983 17.2966 3.14622 17.0669 2.91597C16.8402 2.69592 16.6129 2.48391 16.3642 2.28123C15.9257 1.94053 15.3143 1.93237 14.8668 2.26122L14.0769 2.82665C13.4812 2.48917 12.8468 2.22542 12.1875 2.04118L12.0322 1.09035C11.9466 0.532102 11.4952 0.101944 10.9335 0.0435588C10.3093 -0.0144318 9.68102 -0.0144318 9.05676 0.0435588C8.4993 0.104314 8.05215 0.532102 7.96672 1.0864L7.81272 2.04118C7.15397 2.22463 6.51996 2.48753 5.92466 2.82395L5.13329 2.26122C4.67923 1.93145 4.06102 1.94507 3.6219 2.29453C3.38793 2.48588 3.16053 2.69461 2.92656 2.92532C2.69258 3.15603 2.48987 3.38404 2.29052 3.62674C1.9461 4.0667 1.93524 4.68176 2.26386 5.13364L2.83185 5.92109C2.49316 6.51521 2.22937 7.14903 2.04647 7.80799L1.09577 7.96333C0.537582 8.0489 0.107477 8.50039 0.0490985 9.06213C0.0206661 9.36748 0 9.67416 0 9.99557C0 10.3169 0.0206661 10.6237 0.0500199 10.939C0.118929 11.4923 0.542848 11.9348 1.09267 12.0272ZM24.1745 5.49824L23.3825 4.39944C23.5352 4.2181 23.6998 4.03807 23.8645 3.87338C24.0471 3.69671 24.2292 3.52464 24.4052 3.37667L25.5059 4.16346C25.7276 4.32216 26.0236 4.3298 26.2532 4.18282C26.9555 3.73377 27.7314 3.41189 28.5452 3.23199C28.8113 3.17288 29.0146 2.95764 29.0586 2.68855L29.2753 1.36372C29.758 1.32205 30.2433 1.32205 30.726 1.36372L30.9426 2.68855C30.9866 2.95764 31.1899 3.17282 31.456 3.23199C32.2699 3.41189 33.0458 3.73377 33.748 4.18282C33.9777 4.3298 34.2736 4.32216 34.4954 4.16346L35.5954 3.37667C35.7788 3.53136 35.9567 3.69941 36.1288 3.86607C36.3008 4.03274 36.4681 4.2208 36.6181 4.39951L35.8268 5.4983C35.6659 5.72138 35.6585 6.02028 35.8081 6.25106C36.261 6.9507 36.5846 7.72597 36.7634 8.54008C36.8226 8.80621 37.0378 9.00953 37.3068 9.0535L38.6315 9.2702C38.6528 9.50821 38.6675 9.74623 38.6675 9.99564C38.6675 10.245 38.6522 10.487 38.6315 10.7211L37.3068 10.9378C37.0378 10.9817 36.8226 11.1851 36.7634 11.4512C36.5846 12.2652 36.261 13.0406 35.8081 13.7402C35.6585 13.971 35.6659 14.2699 35.8268 14.493L36.6188 15.5911C36.4641 15.7745 36.2967 15.9518 36.1368 16.1178C35.9521 16.2972 35.7667 16.4652 35.5954 16.6139L34.4974 15.8224C34.2747 15.6616 33.9761 15.654 33.7454 15.8031C33.2457 16.1255 32.7063 16.3819 32.1407 16.5658C32.0534 16.4092 31.9727 16.2498 31.8787 16.0991L32.8714 14.7122C32.951 14.5992 33.0162 14.4767 33.0654 14.3475C34.4911 13.3582 35.3394 11.731 35.3341 9.99557C35.3341 7.04963 32.9463 4.66149 30.0007 4.66149C27.0551 4.66149 24.6673 7.04963 24.6673 9.99557C24.6673 10.0776 24.6813 10.1589 24.6846 10.241C24.2258 10.073 23.7585 9.92975 23.2845 9.8116L23.1172 8.78942C23.1748 8.71583 23.2162 8.63085 23.2385 8.54008C23.4173 7.72604 23.741 6.9507 24.1939 6.25106C24.3432 6.02015 24.3355 5.72118 24.1745 5.49824ZM26.1018 10.8363C26.0381 10.5605 26.0042 10.2786 26.0005 9.99557C26.0005 7.78614 27.7914 5.99501 30.0006 5.99501C32.2097 5.99501 34.0006 7.78614 34.0006 9.99557C34.0037 11.0317 33.6009 12.0279 32.8786 12.7706C32.8639 12.75 32.8526 12.728 32.8373 12.708C32.508 12.3014 32.1556 11.914 31.7819 11.5478C31.4092 11.1722 31.0173 10.8161 30.6079 10.481C30.026 10.0301 29.2155 10.02 28.6225 10.4563L27.2338 11.4511C26.8672 11.2258 26.4859 11.0251 26.1018 10.8363ZM18.5684 8.07194C19.5181 7.96926 20.476 7.96926 21.4258 8.07194C21.5658 8.09419 21.6744 8.20602 21.6924 8.34662L22.0411 10.4716C22.0856 10.7441 22.2935 10.961 22.5639 11.017C24.1066 11.3367 25.5748 11.9459 26.8906 12.8126C27.1209 12.9638 27.4206 12.9578 27.6446 12.7973L29.4006 11.5391C29.51 11.4521 29.6634 11.4467 29.7786 11.5258C30.1503 11.8314 30.5063 12.1556 30.8452 12.4973C31.1825 12.8278 31.5005 13.1773 31.7979 13.5441C31.8796 13.6615 31.8755 13.8183 31.7879 13.9314L30.5339 15.6857C30.3734 15.9098 30.3674 16.2094 30.5185 16.4398C31.3853 17.7556 31.9946 19.224 32.3139 20.767C32.3699 21.0374 32.5868 21.2452 32.8593 21.2898L34.984 21.6385C35.1244 21.657 35.236 21.7654 35.2586 21.9052C35.3595 22.8532 35.3595 23.8091 35.2586 24.757C35.2322 24.8953 35.1217 25.002 34.9826 25.0237L32.8585 25.3724C32.5861 25.4169 32.3692 25.6248 32.3132 25.8952C31.9939 27.4383 31.3846 28.9066 30.5178 30.2225C30.3666 30.4528 30.3727 30.7525 30.5331 30.9765L31.7952 32.7402C31.8766 32.8496 31.88 32.9984 31.8038 33.1115C31.5004 33.4809 31.1784 33.8348 30.8392 34.1717C30.5258 34.4851 30.1865 34.7931 29.7932 35.1251C29.6762 35.2143 29.5137 35.2126 29.3985 35.1211L27.6444 33.8656C27.4204 33.7051 27.1208 33.6991 26.8904 33.8503C25.5748 34.7172 24.1066 35.3265 22.5637 35.6459C22.2934 35.7019 22.0856 35.9188 22.041 36.1913L21.6923 38.3163C21.6751 38.4548 21.5697 38.5659 21.4323 38.5903C20.4826 38.693 19.5246 38.693 18.5749 38.5903C18.4347 38.568 18.326 38.4558 18.3082 38.315L17.9595 36.1906C17.915 35.9181 17.7072 35.7012 17.4369 35.6452C15.894 35.3258 14.4258 34.7165 13.1102 33.8496C12.8798 33.6984 12.5801 33.7045 12.3562 33.865L10.6001 35.1218C10.4936 35.207 10.3448 35.2153 10.2295 35.1425C9.8141 34.7924 9.47476 34.4844 9.16279 34.171C8.82779 33.8384 8.50957 33.4892 8.20945 33.1248C8.12264 33.0071 8.12429 32.8461 8.21347 32.7301L9.46679 30.9758C9.62725 30.7518 9.63331 30.4521 9.48213 30.2217C8.61534 28.9059 8.00608 27.4375 7.68674 25.8945C7.63073 25.6242 7.41387 25.4163 7.1414 25.3717L5.01667 25.023C4.8803 25.0014 4.77137 24.898 4.74268 24.7629C4.64093 23.8131 4.64093 22.855 4.74268 21.9052C4.76499 21.765 4.87714 21.6563 5.01798 21.6385L7.14205 21.2897C7.41453 21.2452 7.63139 21.0374 7.6874 20.767C8.00674 19.2239 8.616 17.7555 9.48279 16.4397C9.63397 16.2093 9.62791 15.9096 9.46745 15.6856L8.21077 13.9294C8.12547 13.8192 8.11988 13.6669 8.19675 13.5506C8.49779 13.1791 8.81989 12.8251 9.16141 12.4905C9.49404 12.1552 9.84339 11.837 10.2081 11.537C10.3252 11.4492 10.4867 11.4508 10.6021 11.541L12.3562 12.7959C12.5802 12.9564 12.8798 12.9624 13.1102 12.8112C14.4259 11.9445 15.8942 11.3353 17.4369 11.0156C17.7072 10.9596 17.915 10.7427 17.9595 10.4702L18.3082 8.34458C18.326 8.20668 18.4314 8.09616 18.5684 8.07194ZM7.15811 12.7146C7.14409 12.7319 7.13475 12.7519 7.12145 12.77C5.76131 11.3981 5.56814 9.25308 6.66134 7.66035C7.75453 6.06761 9.82536 5.47671 11.5943 6.25297C13.3632 7.02923 14.3307 8.95332 13.899 10.8364C13.5149 11.0251 13.1356 11.2258 12.7656 11.4511L11.3789 10.4583C10.7801 10.0197 9.96252 10.0336 9.37887 10.4923C8.97693 10.8223 8.59197 11.1723 8.22551 11.5412C7.84747 11.9114 7.49107 12.3032 7.15811 12.7146ZM1.36936 9.27013L2.69403 9.05344C2.96309 9.00947 3.17824 8.80614 3.23741 8.54001C3.41623 7.72597 3.73984 6.95064 4.19279 6.251C4.34239 6.02022 4.33495 5.72131 4.1741 5.49824L3.38207 4.39944C3.53476 4.2181 3.69943 4.03807 3.8641 3.87338C4.04674 3.69671 4.22879 3.52464 4.40478 3.37667L5.50548 4.16346C5.72721 4.32216 6.02319 4.3298 6.25282 4.18282C6.95507 3.73377 7.73097 3.41189 8.54485 3.23199C8.81094 3.17288 9.01425 2.95764 9.05821 2.68855L9.27488 1.36372C9.75757 1.32205 10.2429 1.32205 10.7256 1.36372L10.9423 2.68855C10.9862 2.95764 11.1895 3.17282 11.4556 3.23199C12.2695 3.41189 13.0454 3.73377 13.7476 4.18282C13.9773 4.3298 14.2732 4.32216 14.495 4.16346L15.595 3.37667C15.7784 3.53136 15.9564 3.69941 16.1284 3.86607C16.3004 4.03274 16.4677 4.2208 16.6177 4.39951L15.8264 5.4983C15.6655 5.72138 15.6581 6.02028 15.8077 6.25106C16.2606 6.9507 16.5842 7.72597 16.7631 8.54008C16.7854 8.63085 16.8267 8.71589 16.8844 8.78942L16.717 9.8116C16.2431 9.92975 15.7758 10.0731 15.317 10.241C15.317 10.1589 15.3343 10.0776 15.3343 9.99557C15.3343 7.04944 12.9463 4.66116 10.0006 4.66116C7.05478 4.66116 4.66679 7.04944 4.66679 9.99557C4.66251 11.7296 5.50976 13.3552 6.93348 14.3449C6.98271 14.4733 7.04767 14.5951 7.12685 14.7076L8.12086 16.0964C8.02688 16.2498 7.94619 16.4092 7.85885 16.5632C7.29389 16.38 6.75493 16.1245 6.25552 15.8031C6.02483 15.654 5.72623 15.6616 5.50351 15.8224L4.40616 16.6132C4.2228 16.4552 4.04483 16.2932 3.87885 16.1325C3.7022 15.9499 3.53016 15.7678 3.3822 15.5918L4.17423 14.493C4.33508 14.2699 4.34252 13.971 4.19292 13.7402C3.73998 13.0406 3.41636 12.2653 3.23754 11.4512C3.17844 11.1851 2.96322 10.9817 2.69416 10.9378L1.36949 10.7211C1.34817 10.4831 1.33349 10.245 1.33349 9.99564C1.33336 9.74617 1.34869 9.50479 1.36936 9.27013Z" fill="#265285"/>
</svg>
