<svg width="40" height="40" viewBox="0 0 40 40" fill="none" xmlns="http://www.w3.org/2000/svg">
<g clip-path="url(#clip0_170_255)">
<path d="M34.7494 21.4031L34.7397 20.2218C34.6969 14.9732 31.8752 10.1553 27.3184 7.54397L26.305 6.96326L21.1545 15.8842C20.4192 15.6934 19.6183 15.6824 18.841 15.8842L13.6905 6.96333L12.6771 7.54405C8.12443 10.153 5.29865 14.9691 5.25584 20.2219L5.24615 21.4031H15.5151C15.7119 22.2359 16.1346 22.9821 16.7156 23.5727L11.5648 32.4941L12.5714 33.0821C17.1451 35.7537 22.8448 35.7571 27.4241 33.0821L28.4307 32.494L23.28 23.5727C23.8611 22.982 24.2838 22.2359 24.4805 21.4031H34.7494V21.4031ZM27.1388 10.2061C30.0551 12.2675 31.9572 15.5122 32.3295 19.0596H24.4211C24.1942 18.2793 23.7663 17.584 23.1969 17.0336L27.1388 10.2061ZM22.2612 20.344C22.2612 21.5921 21.2459 22.6075 19.9978 22.6075C18.7497 22.6075 17.7343 21.5921 17.7343 20.344C17.7343 19.0959 18.7497 18.0805 19.9978 18.0805C21.2459 18.0805 22.2612 19.0959 22.2612 20.344ZM12.8567 10.2061L16.7986 17.0336C16.2292 17.584 15.8013 18.2792 15.5744 19.0596H7.66596C8.03834 15.5122 9.9404 12.2675 12.8567 10.2061ZM14.7879 31.5985L18.7293 24.7718C19.5345 25.0029 20.4081 25.018 21.2663 24.7719L25.2076 31.5985C21.9134 33.1234 18.0918 33.1278 14.7879 31.5985Z" fill="#265285"/>
<path d="M34.1383 5.85716C30.3612 2.08016 25.3394 0 19.9978 0C8.94533 0 0 8.94432 0 19.9978C0 25.3394 2.08016 30.3612 5.85716 34.1383C13.6722 41.9535 26.3221 41.9545 34.1382 34.1383C41.9534 26.3233 41.9545 13.6732 34.1383 5.85716ZM19.9978 37.6521C10.2632 37.6521 2.34349 29.7324 2.34349 19.9978C2.34349 10.2632 10.2632 2.34349 19.9978 2.34349C29.7324 2.34349 37.6521 10.2632 37.6521 19.9978C37.6521 29.7324 29.7324 37.6521 19.9978 37.6521Z" fill="#265285"/>
</g>
<defs>
<clipPath id="clip0_170_255">
<rect width="40" height="40" fill="white"/>
</clipPath>
</defs>
</svg>
