<svg width="40" height="33" viewBox="0 0 40 33" fill="none" xmlns="http://www.w3.org/2000/svg">
<path d="M39.8916 19.9212L37.2791 15.6003C37.182 15.4383 37.0263 15.2984 36.8443 15.1967L38.0117 6.82306C38.2236 5.31839 36.9932 4.07127 35.0187 3.78665C34.6929 3.72697 33.9767 3.60445 33.1425 3.46415L33.4672 2.0546C33.5191 1.83169 33.4638 1.60484 33.3116 1.41579C33.1599 1.22733 32.9311 1.10067 32.6716 1.05989L26.2887 0.0159853C26.0249 -0.0276206 25.757 0.018686 25.5334 0.146342C25.3112 0.273208 25.1605 0.464824 25.1091 0.686279L24.7823 2.0982C23.9491 1.96587 23.2328 1.85402 22.9037 1.80673C21.323 1.51881 19.8609 1.99485 19.1375 2.98218C18.9965 2.95313 18.8493 2.93732 18.6978 2.93732H18.3713V1.1865C18.3713 0.913135 18.1087 0.69247 17.7853 0.69247H15.183C15.0823 0.69247 14.983 0.714207 14.8955 0.755706L13.6175 1.36303C13.3363 1.49674 13.2362 1.79777 13.3948 2.03556C13.5542 2.27335 13.9113 2.35766 14.1933 2.22395L15.337 1.68052H17.1995V2.93725H16.8729C15.8503 2.93725 15.0183 3.63943 15.0183 4.50358V5.07928H14.4925C13.7066 5.07928 13.0668 5.61876 13.0668 6.28134V9.54441C12.9066 9.53387 12.7512 9.5207 12.5996 9.50753C11.7621 9.43573 10.9708 9.36722 9.97391 9.78615C8.97164 10.1998 8.55367 10.7702 8.11148 11.3749C7.66305 11.9868 7.16148 12.6718 5.89516 13.4899C5.48812 12.8108 4.83969 12.3992 4.11008 12.359C3.5007 12.326 2.93359 12.5612 2.59375 12.99C2.18359 13.5084 2.18125 14.2026 2.58594 14.8942C2.68359 15.0616 2.78828 15.2243 2.90078 15.381C2.82891 15.4476 2.76797 15.5207 2.72109 15.5991L0.105546 19.9245C-0.0389854 20.1683 -0.0350792 20.4271 0.117265 20.634C0.260233 20.8289 0.518827 20.9455 0.808671 20.9455H1.73359V26.3216C1.73359 26.595 1.99609 26.8157 2.31953 26.8157C2.64297 26.8157 2.90547 26.595 2.90547 26.3216V20.9455H16.6558C17.073 20.9455 17.523 20.7038 17.7253 20.3698L19.4135 17.5751V32.012H2.90547V28.6046C2.90547 28.3313 2.64297 28.1106 2.31953 28.1106C1.99609 28.1106 1.73359 28.3313 1.73359 28.6046V32.1938C1.73359 32.6384 2.1625 33 2.68906 33H37.3105C37.837 33 38.2659 32.6384 38.2659 32.1938V20.9455H39.1901C39.4823 20.9455 39.7416 20.8282 39.8846 20.6313C40.0361 20.4225 40.0384 20.1636 39.8916 19.9212ZM26.2277 1.01187L32.2858 2.00256L31.9935 3.27135C30.6902 3.05437 27.1714 2.48025 25.9338 2.28158L26.2277 1.01187ZM22.6667 2.77436C22.6758 2.776 26.5679 3.38813 28.0546 3.63218L25.3739 13.0559C25.2984 13.3213 25.4923 13.5879 25.807 13.6515C25.853 13.6608 25.8989 13.6653 25.9441 13.6653C26.2089 13.6653 26.449 13.5129 26.5134 13.2864L29.2059 3.82156C30.5935 4.04934 34.8011 4.7577 34.8105 4.75902C35.9388 4.91869 37.0063 5.58286 36.8481 6.70726L35.6886 15.0234H33.3277L34.1637 8.49925C34.1948 8.24743 33.9878 8.00925 33.6925 7.96116L31.0529 7.52971C30.7345 7.47741 30.4277 7.65289 30.3661 7.92065C30.3045 8.18848 30.5121 8.44774 30.8298 8.49965L32.9402 8.84461L32.148 15.0234H22.5031V7.13924L24.087 7.39764C24.1245 7.40377 24.162 7.40673 24.1989 7.40673C24.474 7.40673 24.7194 7.24265 24.7735 7.00651C24.835 6.73868 24.6273 6.47948 24.3096 6.42764L22.4908 6.1309C22.4026 5.53912 21.8036 5.07928 21.0783 5.07928H20.5525V4.50358C20.5525 4.12548 20.3932 3.77841 20.1284 3.50756C20.6494 2.7764 21.737 2.60231 22.6667 2.77436ZM16.1901 4.50358C16.1901 4.18477 16.4963 3.92524 16.8729 3.92524H18.6978C18.8365 3.92524 18.9654 3.96061 19.0732 4.02101C19.0776 4.02372 19.0821 4.02615 19.0866 4.02879C19.264 4.13332 19.3805 4.30709 19.3805 4.50358V5.07928H16.19V4.50358H16.1901ZM9.10914 11.8933C9.5193 11.3321 9.79039 10.9619 10.4927 10.6721C11.1895 10.3796 11.7035 10.4238 12.4809 10.4903C13.4262 10.572 14.5855 10.6714 16.4643 10.2137L17.333 11.6976C17.3362 11.7029 17.3385 11.7082 17.3416 11.7134C15.7644 12.0738 14.8925 11.946 14.1137 11.8307C13.3426 11.7167 12.6138 11.6094 11.5903 12.0388C10.5693 12.4611 10.1459 13.0762 9.6982 13.7277C9.42945 14.1183 9.12789 14.5557 8.64742 15.0233H6.79359L6.42328 14.3909C7.99742 13.4122 8.60992 12.5757 9.10914 11.8933ZM16.8916 8.76392C16.6705 8.38648 16.6455 8.04198 16.8229 7.81875C16.933 7.68042 17.1088 7.60731 17.3065 7.61785C17.6237 7.63563 17.9315 7.86157 18.1526 8.239C18.8893 9.49771 18.9659 10.7163 18.7041 11.9203C18.6166 11.6964 18.5096 11.4764 18.3838 11.261L16.8916 8.76392ZM17.4823 15.0233H10.1248C10.3615 14.7329 10.5474 14.4628 10.7115 14.2237C11.1295 13.6164 11.4045 13.2159 12.1091 12.9248C12.7911 12.6389 13.2129 12.7008 13.9113 12.8043C14.7371 12.9261 15.8402 13.0882 17.7221 12.6501C17.9127 13.4188 17.833 14.2309 17.4823 15.0233ZM3.56867 13.5386C3.67414 13.4049 3.84445 13.3344 4.0343 13.345C4.34289 13.3614 4.64367 13.5828 4.85852 13.9497L5.48664 15.0233H4.01711C3.88039 14.8448 3.75226 14.6557 3.63742 14.4581C3.4218 14.0906 3.3968 13.7554 3.56867 13.5386ZM16.6823 19.9186C16.6737 19.9305 16.6592 19.9546 16.6268 19.9575H1.40078L3.76398 16.0489C3.77258 16.037 3.78664 16.0126 3.8468 16.0113H19.0439L16.6823 19.9186ZM18.7509 15.0233C19.6658 13.1863 20.8149 10.5556 19.2033 7.80162C18.7931 7.10011 18.1299 6.67334 17.383 6.63184C16.7659 6.59759 16.1925 6.83604 15.8488 7.26946C15.4331 7.79444 15.43 8.49787 15.8402 9.20136L15.9089 9.31795C15.2589 9.46418 14.7152 9.53335 14.2387 9.55904V6.28148C14.2387 6.16554 14.3551 6.0674 14.4926 6.0674H21.0783C21.2158 6.0674 21.3314 6.16554 21.3314 6.28148V15.0234H18.7509V15.0233ZM31.8364 19.9555C31.8364 19.9555 31.8364 19.9555 31.8356 19.9555C31.5122 19.9555 31.2505 20.1768 31.2497 20.4495C31.2497 20.7222 31.5122 20.9435 31.8356 20.9435L37.0941 20.9455V32.012H20.5852V17.575L22.275 20.3698C22.4766 20.7037 22.9273 20.9455 23.3461 20.9455L29.1302 20.9435C29.4537 20.9435 29.7162 20.7222 29.7162 20.4495C29.7154 20.1768 29.4537 19.9554 29.1302 19.9554C29.1295 19.9554 29.1295 19.9554 29.1295 19.9554L23.3742 19.9574C23.341 19.9497 23.3258 19.9304 23.3188 19.9212L20.9555 16.0113H36.1816C36.2058 16.0113 36.2238 16.0185 36.2347 16.0475L38.5987 19.9574L31.8364 19.9555Z" fill="#265285"/>
</svg>
