<svg width="40" height="34" viewBox="0 0 40 34" fill="none" xmlns="http://www.w3.org/2000/svg">
<path d="M35.625 8.7525C35.6306 8.7525 35.6356 8.74937 35.6406 8.74937C38.0456 8.74062 40 6.78188 40 4.375C40 1.96312 38.0369 0 35.625 0H4.375C1.96312 0 0 1.96312 0 4.375C0 6.78188 1.95437 8.74 4.35938 8.74937C4.365 8.74937 4.37 8.7525 4.375 8.7525H8.75187V10.0012H4.37563H4.375C1.96312 10.0012 0 11.9644 0 14.3762C0 16.7831 1.955 18.7419 4.36 18.7506C4.36562 18.7506 4.37063 18.7537 4.37563 18.7537H8.75187V33.1362C8.75187 33.4819 9.03125 33.7612 9.37687 33.7612H29.3744C29.4481 33.7612 29.5169 33.7431 29.5825 33.7194C29.5913 33.7163 29.6 33.7175 29.6087 33.7144C29.69 33.6812 29.7619 33.6319 29.8225 33.57L33.5669 29.8256C33.625 29.7681 33.6706 29.6987 33.7025 29.6219C33.7344 29.5456 33.7506 29.4644 33.7506 29.3831V18.7519H35.625C38.0369 18.7519 40 16.7887 40 14.3769C40 11.965 38.0369 10.0019 35.625 10.0019H33.7506V8.75313H35.625V8.7525ZM32.5006 28.7575H29.3731C29.0275 28.7575 28.7481 29.0369 28.7481 29.3825V32.5112H10.0019V8.75625H32.5006V28.7575ZM29.9981 30.0075H31.6169L29.9981 31.6262V30.0075ZM1.25 14.3762C1.25 12.6531 2.65188 11.2512 4.375 11.2512C6.09812 11.2512 7.5 12.6531 7.5 14.3762C7.5 16.0994 6.09812 17.5012 4.375 17.5012C2.65188 17.5012 1.25 16.0994 1.25 14.3762ZM7.42813 17.5037C8.2425 16.7087 8.75 15.6012 8.75 14.3762C8.75 13.1525 8.24312 12.0456 7.43125 11.2512H8.75187V17.5037H7.42813ZM35.625 11.2512C37.3481 11.2512 38.75 12.6531 38.75 14.3762C38.75 16.0994 37.3481 17.5012 35.625 17.5012H33.7506V11.2512H35.625ZM35.625 1.25C37.3481 1.25 38.75 2.65188 38.75 4.375C38.75 6.09812 37.3481 7.5 35.625 7.5C35.6206 7.5 35.6169 7.5025 35.6125 7.5025H7.42813C8.2425 6.7075 8.75 5.6 8.75 4.375C8.75 3.15125 8.24312 2.04437 7.43125 1.25H35.625ZM1.25 4.375C1.25 2.65188 2.65188 1.25 4.375 1.25C6.09812 1.25 7.5 2.65188 7.5 4.375C7.5 6.09812 6.09812 7.5 4.375 7.5C2.65188 7.5 1.25 6.09812 1.25 4.375Z" fill="#265285"/>
<path d="M13.7705 24.5601C13.783 24.5988 13.798 24.6332 13.8167 24.6688C13.8348 24.7032 13.8561 24.7338 13.8817 24.7645C13.9092 24.7982 13.9392 24.827 13.973 24.8545C13.9898 24.8676 13.9998 24.8863 14.018 24.8982C14.038 24.9113 14.0611 24.917 14.083 24.9276C14.103 24.9382 14.1217 24.9476 14.143 24.9557C14.213 24.9813 14.2861 24.9988 14.3586 24.9988H14.3592H29.3592C29.3842 24.9988 29.4048 24.987 29.4292 24.9851C29.4723 24.9801 29.5155 24.9732 29.5573 24.9595C29.5923 24.947 29.623 24.932 29.6548 24.9145C29.6686 24.907 29.6836 24.9038 29.6967 24.8957C29.7098 24.8876 29.7155 24.8745 29.728 24.8657C29.7711 24.8326 29.8092 24.797 29.8436 24.7532C29.8623 24.7288 29.8792 24.7045 29.8942 24.6776C29.9167 24.6382 29.9342 24.5976 29.948 24.5532C29.9598 24.5151 29.9667 24.4776 29.9711 24.4376C29.9736 24.4157 29.9842 24.397 29.9842 24.3738C29.9842 24.3557 29.9748 24.3401 29.9736 24.3226C29.9705 24.2782 29.9605 24.2357 29.9473 24.192C29.9361 24.1557 29.9242 24.1226 29.9073 24.0888C29.8973 24.0707 29.8961 24.0495 29.8848 24.0313L24.2598 15.2907C24.2586 15.2882 24.2561 15.2876 24.2542 15.2851C24.2311 15.2495 24.1948 15.2226 24.1636 15.1926C24.1355 15.1645 24.1111 15.1313 24.078 15.1095C24.0755 15.1076 24.0742 15.1051 24.0717 15.1032C24.0442 15.0857 24.0123 15.082 23.9836 15.0688C23.9405 15.0495 23.8992 15.027 23.8536 15.0182C23.8123 15.0095 23.7711 15.0151 23.7298 15.0151C23.6911 15.0151 23.653 15.0101 23.6142 15.0176C23.5655 15.0276 23.5217 15.0507 23.4761 15.0713C23.4492 15.0838 23.4205 15.0863 23.3948 15.1032C23.3923 15.1045 23.3911 15.1076 23.3886 15.1088C23.3548 15.1313 23.3298 15.1657 23.2998 15.1951C23.2698 15.2251 23.2348 15.2507 23.2123 15.2857C23.2111 15.2876 23.208 15.2888 23.2067 15.2913L20.2798 19.8388L18.9436 17.7838C18.9423 17.782 18.9405 17.7813 18.9392 17.7795C18.9173 17.7457 18.8823 17.7213 18.8536 17.692C18.8236 17.662 18.798 17.627 18.7636 17.6038C18.7617 17.6026 18.7611 17.6007 18.7592 17.5995C18.733 17.5826 18.703 17.5788 18.6755 17.5663C18.6305 17.5457 18.5867 17.5213 18.5386 17.512C18.4986 17.5038 18.4586 17.5095 18.4186 17.5095C18.3786 17.5095 18.3386 17.5038 18.2986 17.512C18.2511 17.5213 18.2073 17.5457 18.163 17.5657C18.1348 17.5788 18.1042 17.582 18.078 17.5995C18.0761 17.6007 18.0755 17.6026 18.0736 17.6038C18.0392 17.6263 18.0148 17.6613 17.9848 17.6907C17.9555 17.7207 17.9205 17.7451 17.898 17.7795C17.8967 17.7813 17.8948 17.782 17.8936 17.7838L13.8311 24.0338C13.8205 24.0495 13.8198 24.0676 13.8117 24.0838C13.7917 24.1207 13.778 24.1582 13.7661 24.1988C13.7536 24.2401 13.7448 24.2807 13.7411 24.3226C13.7398 24.3407 13.7305 24.3563 13.7305 24.3745C13.7305 24.3963 13.7411 24.4145 13.743 24.4363C13.7498 24.4782 13.758 24.5188 13.7705 24.5601ZM20.793 21.3532C20.7998 21.3438 20.8055 21.3345 20.8111 21.3245L23.7336 16.7832L28.2161 23.7488H19.2511L20.793 21.3532ZM17.7648 23.7488H15.5105L18.4211 19.2713L19.5392 20.9913L17.7648 23.7488Z" fill="#265285"/>
<path d="M15.61 16.2382C16.6437 16.2382 17.485 15.3969 17.485 14.3632C17.485 13.3294 16.6437 12.4882 15.61 12.4882C14.5762 12.4882 13.735 13.3294 13.735 14.3632C13.735 15.3969 14.5756 16.2382 15.61 16.2382ZM15.61 13.7382C15.955 13.7382 16.235 14.0182 16.235 14.3632C16.235 14.7082 15.955 14.9882 15.61 14.9882C15.265 14.9882 14.985 14.7082 14.985 14.3632C14.985 14.0182 15.265 13.7382 15.61 13.7382Z" fill="#265285"/>
</svg>
