<svg width="40" height="40" viewBox="0 0 40 40" fill="none" xmlns="http://www.w3.org/2000/svg">
<path d="M39.7546 28.9232L32.8127 22.1421C32.6599 21.9929 32.4581 21.9107 32.2446 21.9107H31.4243V21.065H33.3011C33.6086 21.065 33.8914 20.9106 34.0577 20.652C34.2241 20.3935 34.2473 20.072 34.1198 19.7923L33.7657 19.0153L34.1198 18.2382C34.2472 17.9584 34.2241 17.637 34.0577 17.3784C33.8914 17.1198 33.6085 16.9655 33.3011 16.9655H31.4243V15.9632H33.3011C33.6086 15.9632 33.8914 15.8088 34.0577 15.5503C34.2241 15.2917 34.2473 14.9703 34.1198 14.6905L33.7657 13.9135L34.1198 13.1364C34.2472 12.8566 34.2241 12.5352 34.0577 12.2766C33.8914 12.018 33.6085 11.8636 33.3011 11.8636H31.3572C31.1355 11.0469 30.3881 10.4443 29.5021 10.4443H22.3151V7.28016C22.3151 6.95599 22.0523 6.69318 21.7281 6.69318C21.4039 6.69318 21.1411 6.95599 21.1411 7.28016V21.9107H17.0026V19.0787H17.542C17.8662 19.0787 18.129 18.8158 18.129 18.4917C18.129 18.1675 17.8662 17.9047 17.542 17.9047H17.0026V16.0792H17.542C17.8662 16.0792 18.129 15.8163 18.129 15.4922C18.129 15.168 17.8662 14.9052 17.542 14.9052H17.0026V13.0797H17.542C17.8662 13.0797 18.129 12.8169 18.129 12.4927C18.129 12.1685 17.8662 11.9057 17.542 11.9057H17.0026V10.0802H17.542C17.8662 10.0802 18.129 9.81743 18.129 9.49327C18.129 9.1691 17.8662 8.9063 17.542 8.9063H17.0026V7.08074H17.542C17.8662 7.08074 18.129 6.81794 18.129 6.49377C18.129 6.16961 17.8662 5.9068 17.542 5.9068H17.0026V4.08117H17.542C17.8662 4.08117 18.129 3.81836 18.129 3.4942C18.129 3.17003 17.8662 2.90723 17.542 2.90723H17.0026V1.17394H21.1411V4.7763C21.1411 5.10046 21.4039 5.36327 21.7281 5.36327C22.0523 5.36327 22.3151 5.10046 22.3151 4.7763V0.897986C22.315 0.402818 21.9122 0 21.417 0H16.7265C16.2314 0 15.8285 0.402818 15.8285 0.897986V21.9107H14.7643V11.0313C14.7643 10.8548 14.7117 10.6844 14.6123 10.5388L12.3338 7.19688C12.1708 6.95771 11.9007 6.81504 11.6113 6.81504C11.3219 6.81504 11.0518 6.95779 10.8888 7.19681L8.61003 10.5389C8.51071 10.6847 8.4582 10.855 8.4582 11.0314V21.9108H7.75537C7.54186 21.9108 7.34009 21.993 7.18723 22.1423L0.245332 28.9232C0.007794 29.1552 -0.0646805 29.5039 0.0606237 29.8114C0.185928 30.1189 0.481461 30.3176 0.813545 30.3176H7.07633V38.2205C7.07633 39.2018 7.87464 40 8.85587 40H31.0659C32.0472 40 32.8455 39.2017 32.8455 38.2205V34.5711C32.8455 34.2469 32.5827 33.9841 32.2585 33.9841C31.9343 33.9841 31.6715 34.2469 31.6715 34.5711V38.2205C31.6715 38.5545 31.3998 38.8261 31.0659 38.8261H8.85579C8.5219 38.8261 8.25024 38.5544 8.25024 38.2205V30.3177H11.9795C12.1931 30.3177 12.395 30.2355 12.5476 30.0862L14.8118 27.8745C15.0437 27.648 15.0481 27.2764 14.8216 27.0445C14.595 26.8127 14.2233 26.8083 13.9915 27.0348L11.8325 29.1438H1.6996L7.90243 23.0847H18.0354L15.8079 25.2606C15.576 25.4871 15.5716 25.8588 15.7982 26.0906C15.9131 26.2083 16.0656 26.2674 16.2181 26.2674C16.366 26.2674 16.5141 26.2118 16.6282 26.1003L19.7154 23.0846H31.6715V32.0672C31.6715 32.3914 31.9343 32.6542 32.2585 32.6542C32.5827 32.6542 32.8455 32.3914 32.8455 32.0672V30.3176H39.1865C39.5186 30.3176 39.8141 30.1189 39.9394 29.8114C40.0647 29.504 39.9921 29.1553 39.7546 28.9232ZM32.8747 18.1393L32.6456 18.6422C32.5376 18.8792 32.5376 19.1512 32.6456 19.3883L32.8747 19.8911H31.4242V18.1393H32.8747ZM32.6457 14.2865L32.8747 14.7893H31.4243V13.0376H32.8747L32.6457 13.5404C32.5376 13.7774 32.5376 14.0494 32.6457 14.2865ZM22.315 14.4177H27.5528C27.6584 14.4177 27.7443 14.5036 27.7443 14.6091V16.4564C27.7443 16.562 27.6584 16.6479 27.5528 16.6479H22.315V14.4177ZM11.6112 8.22111L13.1271 10.4442H10.0954L11.6112 8.22111ZM9.63219 11.6183H11.0493V21.9107H9.63219V11.6183ZM12.2233 21.9107V11.6183H13.5903V21.9107H12.2233ZM22.315 21.9107V20.6679H27.102C27.4262 20.6679 27.689 20.4051 27.689 20.081C27.689 19.7568 27.4262 19.494 27.102 19.494H22.315V17.8218H27.5528C28.3057 17.8218 28.9183 17.2093 28.9183 16.4564V14.6091C28.9183 13.8563 28.3057 13.2438 27.5528 13.2438H22.315V11.6183H29.502C29.9146 11.6183 30.2502 11.9539 30.2502 12.3664V21.9107H22.315ZM32.8454 29.1438V23.8152L38.3004 29.1438H32.8454Z" fill="#265285"/>
</svg>
