<svg width="38" height="41" viewBox="0 0 38 41" fill="none" xmlns="http://www.w3.org/2000/svg">
<path d="M13.6126 24.8796H11.2669C10.5363 24.8796 9.94181 24.2854 9.94181 23.5544V22.247C9.94181 22.1698 9.88718 22.103 9.80631 22.0807C8.99298 21.8591 8.20865 21.5332 7.47528 21.1123C7.40875 21.0742 7.33032 21.0818 7.28057 21.1315L6.34669 22.0654C6.09644 22.3157 5.76378 22.4533 5.40977 22.4533C5.05605 22.4533 4.72309 22.3157 4.47284 22.0654L2.81414 20.4067C2.56389 20.1565 2.42594 19.8235 2.42594 19.4698C2.42594 19.1158 2.56389 18.7828 2.81414 18.5329L3.74771 17.599C3.79776 17.5492 3.80539 17.4708 3.76694 17.4043C3.34639 16.6709 3.02045 15.8866 2.79888 15.0732C2.7766 14.9924 2.70977 14.9377 2.63255 14.9377H1.32513C0.594507 14.9377 0 14.3432 0 13.6126V11.2669C0 10.5363 0.594507 9.94181 1.32513 9.94181H2.63255C2.70977 9.94181 2.7766 9.88749 2.79888 9.80631C3.02045 8.99329 3.34639 8.20895 3.76724 7.47528C3.80539 7.40875 3.79776 7.33032 3.74802 7.28057L2.81414 6.34669C2.56389 6.09675 2.42594 5.76378 2.42594 5.40977C2.42594 5.05605 2.56389 4.72309 2.81414 4.47284L4.47284 2.81414C4.72309 2.56389 5.05575 2.42625 5.40977 2.42625C5.76378 2.42625 6.09674 2.56389 6.347 2.81445L7.28057 3.74802C7.33032 3.79776 7.40844 3.80539 7.47528 3.76724C8.20865 3.34639 8.99267 3.02075 9.806 2.79888C9.88749 2.7766 9.94181 2.70977 9.94181 2.63255V1.32513C9.94181 0.594507 10.5363 0 11.2669 0H13.6126C14.3432 0 14.9377 0.594507 14.9377 1.32513V2.63255C14.9377 2.70977 14.9921 2.7766 15.0732 2.79858C15.8863 3.02045 16.6706 3.34639 17.404 3.76724C17.4708 3.80539 17.5489 3.79776 17.599 3.74802L18.5326 2.81414C19.0505 2.29654 19.8888 2.29624 20.4067 2.81445L20.5822 2.98993C21.13 3.53744 20.302 4.36694 19.7536 3.81851C19.6456 3.72513 19.507 3.49715 19.3614 3.64303L18.4276 4.5766C18.0052 4.99898 17.3445 5.08413 16.8208 4.78352C16.1738 4.41241 15.4819 4.12492 14.765 3.9293C14.1766 3.76907 13.7655 3.23561 13.7655 2.63225V1.32513C13.7655 1.24059 13.6968 1.17192 13.6123 1.17192H11.2666C11.1824 1.17192 11.1137 1.24059 11.1137 1.32513V2.63255C11.1137 3.23591 10.7026 3.76907 10.1142 3.9296C9.39705 4.12523 8.70519 4.41241 8.05819 4.78352C7.53479 5.08413 6.87406 4.99898 6.45168 4.5766L5.51811 3.64303C5.48087 3.6058 5.43876 3.59817 5.40977 3.59817C5.38077 3.59817 5.33866 3.6058 5.30173 3.64303L3.64273 5.30173C3.6058 5.33866 3.59786 5.38108 3.59786 5.40977C3.59786 5.43876 3.6058 5.48118 3.64273 5.51811L4.5766 6.45198C4.99898 6.87436 5.08413 7.53479 4.78352 8.05849C4.41241 8.7058 4.12492 9.39736 3.9293 10.1145C3.76907 10.703 3.23561 11.1137 2.63255 11.1137H1.32513C1.24059 11.1137 1.17192 11.1827 1.17192 11.2669V13.6126C1.17192 13.6972 1.24059 13.7658 1.32513 13.7658H2.63255C3.23561 13.7658 3.76907 14.1766 3.9296 14.765C4.12492 15.4825 4.41241 16.1741 4.78352 16.8211C5.08413 17.3448 4.99898 18.0052 4.5766 18.4276L3.64303 19.3614C3.6058 19.3984 3.59817 19.4408 3.59817 19.4698C3.59817 19.4985 3.6061 19.5409 3.64303 19.5781L5.30173 21.2365C5.36155 21.2963 5.4586 21.2966 5.51841 21.2365L6.45198 20.3029C6.87436 19.8806 7.5351 19.7954 8.0588 20.096C8.7058 20.4671 9.39735 20.7546 10.1145 20.9503C10.7029 21.1105 11.114 21.6439 11.114 22.2473V23.5544C11.114 23.639 11.1827 23.7076 11.2669 23.7076H13.6126C13.6972 23.7076 13.7658 23.639 13.7658 23.5544V22.2473C13.7658 21.6439 14.1769 21.1105 14.7653 20.9503C15.5139 20.7464 15.821 21.8771 15.0735 22.0807C14.9924 22.103 14.9377 22.1698 14.9377 22.2473V23.5544C14.9377 24.285 14.3432 24.8796 13.6126 24.8796Z" fill="#265285"/>
<path d="M6.91718 12.4397C6.91718 8.56506 10.8132 5.90901 14.4034 7.27686C15.127 7.55306 14.7111 8.64838 13.9859 8.37218C11.1526 7.29212 8.08879 9.39548 8.08879 12.4397C8.08879 14.916 10.1744 16.9309 12.6996 16.7829C13.4717 16.7362 13.544 17.9072 12.7685 17.953C9.58452 18.1403 6.91718 15.6012 6.91718 12.4397Z" fill="#265285"/>
<path d="M32.4261 26.0207L26.4889 24.8662V23.3991C28.1562 22.2617 29.0589 20.6509 29.2555 18.8418C30.121 18.7731 30.804 18.047 30.804 17.1644V15.9602C32.2149 15.3467 32.0244 13.2876 30.5318 12.9403V12.4755C30.5318 8.29659 27.1439 4.90869 22.9652 4.90869H22.3308C18.1518 4.90869 14.7642 8.29659 14.7642 12.4752V12.9403C13.2722 13.2873 13.0805 15.3467 14.492 15.9602V17.1644C14.492 18.047 15.175 18.7731 16.0405 18.8418C16.212 20.4202 16.9518 21.8649 18.1188 22.8696C18.3422 23.0622 18.5717 23.2386 18.807 23.3991V24.8662L12.8699 26.0207C9.73747 26.6299 7.29596 28.3957 7.29596 31.6539V37.6139C7.29596 38.9326 8.36503 40.0017 9.68375 40.0017H35.6122C36.931 40.0017 38 38.9326 38 37.6139V31.6539C38 28.4063 35.5735 26.6326 32.4261 26.0207ZM27.5489 26.2661C27.1234 26.8847 26.4731 27.8289 25.7705 28.8458C25.4843 29.2606 24.9706 29.3134 24.7698 29.1931L23.8442 28.638C24.7469 28.1048 25.9961 27.1893 26.3751 26.0378L27.5489 26.2661ZM22.6478 27.9547C21.7579 27.5067 19.9839 26.3997 19.979 25.3536C19.979 25.352 19.979 25.3505 19.979 25.349V24.0461C21.6844 24.7816 23.6095 24.7825 25.317 24.0461V25.349C25.317 26.397 23.5387 27.5063 22.6478 27.9547ZM15.9361 12.4752C15.9361 10.0716 17.2692 7.97339 19.2349 6.88143V7.61602C19.2349 8.39058 20.4068 8.3918 20.4068 7.61602V6.37634C20.9327 6.21001 21.4875 6.11022 22.0619 6.08641V8.98387C22.0619 9.75844 23.2338 9.75966 23.2338 8.98387V6.08641C23.8082 6.11022 24.3633 6.21001 24.8891 6.37634V7.61602C24.8891 8.39058 26.0611 8.3918 26.0611 7.61602V6.88143C28.0268 7.97339 29.3598 10.0716 29.3598 12.4752V12.8988H15.9361V12.4752ZM15.1262 14.0707H30.1698C30.7314 14.0707 30.7308 14.9195 30.1698 14.9195H15.1262C14.5643 14.9195 14.5649 14.0707 15.1262 14.0707ZM17.1752 18.2485C17.1685 17.9299 16.9082 17.675 16.5892 17.675C16.4916 17.6509 15.6636 17.8273 15.6636 17.1644V16.0917H29.6321V17.1644C29.6321 17.8261 28.7821 17.6564 28.7064 17.675C28.3878 17.675 28.1275 17.9299 28.1205 18.2485C28.089 19.7134 27.4665 21.0739 26.4126 21.9815C24.1747 23.9085 21.1213 23.9088 18.8833 21.9815C17.8292 21.0739 17.2066 19.7134 17.1752 18.2485ZM18.9206 26.0378C19.2999 27.1893 20.5488 28.1048 21.4518 28.638C20.524 29.1348 20.5897 29.2835 20.1682 29.2337C19.906 29.2023 19.6707 29.0564 19.5206 28.8391C18.8199 27.8247 18.1716 26.8832 17.7468 26.2661L18.9206 26.0378ZM12.1597 38.8297H9.68345C9.01203 38.8297 8.46758 38.2853 8.46758 37.6139V31.6539C8.46758 29.8978 9.26534 28.6838 11.0153 27.8451C11.0861 28.157 12.1597 31.0713 12.1597 35.1434V38.8297ZM22.0619 38.8297H13.3317V35.1434C13.3317 30.7313 12.2177 27.8903 12.1082 27.4093C12.7924 27.1819 12.2843 27.3571 16.4925 26.5099C17.702 28.2675 19.9591 31.5467 21.2898 33.438C21.7951 34.1561 22.0619 34.9996 22.0619 35.8777V38.8297ZM22.6478 33.427C22.5313 33.1984 22.3979 32.9768 22.2484 32.7638C21.7985 32.1248 21.2147 31.2861 20.6055 30.4069C20.7865 30.3669 20.9632 30.2973 21.1289 30.1981L22.6478 29.2871L24.1671 30.1981C24.3325 30.2973 24.5095 30.3669 24.6905 30.4069C24.0813 31.2855 23.4975 32.1242 23.0476 32.7638C22.8978 32.9768 22.7644 33.1984 22.6478 33.427ZM36.8281 37.6139C36.8281 38.2853 36.284 38.8297 35.6122 38.8297H33.1359V36.619C33.1359 35.8444 31.964 35.8432 31.964 36.619V38.8297H23.2338V35.8777C23.2338 34.9996 23.5008 34.1561 24.0059 33.4383C24.7628 32.3625 27.8791 27.8656 28.8035 26.5099C33.0096 27.3568 32.5024 27.1816 33.1875 27.4093C33.1024 27.7697 32.1163 30.4496 31.9802 34.251C31.9521 35.0274 33.1234 35.0656 33.1512 34.2931C33.283 30.6144 34.1855 28.2473 34.2804 27.8451C36.0303 28.6838 36.8281 29.8978 36.8281 31.6536V37.6139Z" fill="#265285"/>
</svg>
