<svg width="14" height="11" viewBox="0 0 14 11" fill="none" xmlns="http://www.w3.org/2000/svg">
<path d="M2.39447 10.7102C2.28717 10.7102 2.18004 10.6683 2.09959 10.5851C0.745637 9.18517 0 7.32763 0 5.35469C0 3.38217 0.745391 1.52493 2.09882 0.125064C2.25624 -0.0377677 2.51587 -0.0421974 2.67881 0.115303C2.84164 0.272748 2.84602 0.532404 2.68857 0.695263C1.48381 1.94135 0.820313 3.59608 0.820313 5.35469C0.820313 7.11369 1.48403 8.7687 2.68926 10.0149C2.84673 10.1777 2.84241 10.4373 2.67958 10.5948C2.59993 10.6718 2.49711 10.7102 2.39447 10.7102Z" fill="#47A1D9"/>
<path d="M3.76096 9.29637C3.65366 9.29637 3.54653 9.25456 3.46608 9.17136C2.47772 8.14944 1.93341 6.79368 1.93341 5.35387C1.93341 3.91449 2.47744 2.55906 3.46529 1.5372C3.62271 1.37431 3.88239 1.36994 4.04525 1.52738C4.20811 1.68483 4.21248 1.94449 4.05504 2.10735C3.21586 2.97543 2.7537 4.12838 2.7537 5.35387C2.7537 6.57974 3.21608 7.73294 4.0557 8.6011C4.2132 8.76394 4.20885 9.02359 4.04602 9.18107C3.96642 9.25804 3.86361 9.29637 3.76096 9.29637Z" fill="#47A1D9"/>
<path d="M5.12748 7.88455C5.02019 7.88455 4.91305 7.84275 4.83261 7.75954C4.20985 7.11562 3.86688 6.26165 3.86688 5.35498C3.86688 4.44876 4.20955 3.59511 4.83179 2.9513C4.98915 2.78844 5.24884 2.78393 5.41175 2.94143C5.57464 3.09885 5.57907 3.35851 5.42165 3.52139C4.94803 4.01145 4.68719 4.66261 4.68719 5.35501C4.68719 6.04774 4.94825 6.69915 5.42228 7.18931C5.57978 7.35214 5.57543 7.6118 5.41257 7.76927C5.33294 7.84624 5.23013 7.88455 5.12748 7.88455Z" fill="#47A1D9"/>
<path d="M11.6048 10.7117C11.5021 10.7117 11.3993 10.6734 11.3197 10.5963C11.1569 10.4388 11.1526 10.1792 11.3101 10.0163C12.5157 8.77008 13.1797 7.11482 13.1797 5.35547C13.1797 3.59648 12.516 1.94147 11.3108 0.695304C11.1533 0.532472 11.1576 0.272815 11.3205 0.115343C11.4834 -0.0421847 11.743 -0.0377822 11.9005 0.125022C13.2544 1.52497 14 3.38251 14 5.35547C14 7.32884 13.2541 9.18666 11.8996 10.5867C11.8192 10.6699 11.7121 10.7117 11.6048 10.7117Z" fill="#47A1D9"/>
<path d="M10.2382 9.29792C10.1355 9.29792 10.0327 9.25958 9.95306 9.18253C9.79028 9.025 9.78602 8.76534 9.94349 8.60257C10.7836 7.73435 11.2462 6.58088 11.2462 5.35465C11.2462 4.1288 10.7838 2.97558 9.9442 2.10741C9.7867 1.94458 9.79105 1.68492 9.95388 1.52745C10.1167 1.36992 10.3764 1.37433 10.5338 1.53713C11.5222 2.5591 12.0665 3.91484 12.0665 5.35465C12.0665 6.7949 11.5219 8.15096 10.533 9.17298C10.4526 9.25614 10.3455 9.29792 10.2382 9.29792Z" fill="#47A1D9"/>
<path d="M8.87172 7.88611C8.76899 7.88611 8.66615 7.84777 8.58652 7.77066C8.42375 7.61314 8.41951 7.35348 8.57703 7.1907C9.05148 6.70048 9.31275 6.04883 9.31275 5.35577C9.31275 4.66305 9.05169 4.01164 8.57766 3.52147C8.42016 3.35864 8.42451 3.09898 8.58734 2.94151C8.75017 2.78398 9.00986 2.78839 9.1673 2.95122C9.79006 3.59514 10.133 4.44911 10.133 5.35577C10.133 6.2629 9.78976 7.11718 9.16643 7.76118C9.08604 7.84433 8.97893 7.88611 8.87172 7.88611Z" fill="#47A1D9"/>
<path d="M6.99999 6.58594C6.32739 6.58594 5.78021 6.03395 5.78021 5.35547C5.78021 4.67699 6.32742 4.125 6.99999 4.125C7.67259 4.125 8.21977 4.67699 8.21977 5.35547C8.21977 6.03395 7.67259 6.58594 6.99999 6.58594Z" fill="#47A1D9"/>
</svg>
