<svg width="72" height="72" viewBox="0 0 72 72" fill="none" xmlns="http://www.w3.org/2000/svg">
<g filter="url(#filter0_d_3342_16)">
<path d="M33.2863 65.4807C51.1013 65.4807 65.5432 51.0388 65.5432 33.2238C65.5432 15.4087 51.1013 0.966797 33.2863 0.966797C15.4712 0.966797 1.0293 15.4087 1.0293 33.2238C1.0293 51.0388 15.4712 65.4807 33.2863 65.4807Z" fill="#265285"/>
</g>
<g filter="url(#filter1_d_3342_16)">
<path d="M58.5237 37.321C60.7857 23.386 51.3228 10.2557 37.3878 7.99377C23.4528 5.73179 10.3225 15.1947 8.06051 29.1297C5.79854 43.0647 15.2614 56.195 29.1965 58.457C43.1315 60.719 56.2618 51.2561 58.5237 37.321Z" fill="white"/>
</g>
<path d="M32.9811 35.3598C34.6907 35.3598 36.0766 33.9739 36.0766 32.2644C36.0766 30.5548 34.6907 29.1689 32.9811 29.1689C31.2716 29.1689 29.8857 30.5548 29.8857 32.2644C29.8857 33.9739 31.2716 35.3598 32.9811 35.3598Z" fill="url(#paint0_linear_3342_16)"/>
<path d="M41.1997 28.5879H41.199C40.198 28.5879 39.3857 29.4002 39.3857 30.4019V32.1828C39.3857 35.6921 36.5399 38.5387 33.0298 38.5387C29.5195 38.5387 26.6731 35.692 26.6731 32.1828V30.4019C26.6731 29.3994 25.86 28.5879 24.8592 28.5879C23.8582 28.5879 23.0459 29.4002 23.0459 30.4019V32.1497C23.0459 35.4048 24.6037 38.2958 27.0142 40.1182C27.1539 40.2238 27.236 40.3888 27.236 40.5639V45.4706C27.236 45.7798 27.4867 46.0306 27.796 46.0306H38.1605C38.4698 46.0306 38.7205 45.7798 38.7205 45.4706V40.6138C38.7205 40.4375 38.8035 40.2717 38.9448 40.1662C41.4155 38.3213 43.013 35.3551 43.013 32.0419V30.4019C43.0129 29.4002 42.2007 28.5879 41.1997 28.5879Z" fill="url(#paint1_linear_3342_16)"/>
<path d="M30.086 23.753C30.1821 23.8698 30.2311 24.0183 30.2233 24.1693L30.1182 26.1982C30.0953 26.639 30.5365 26.9554 30.9466 26.7923L32.8057 26.0534C32.9494 25.9963 33.1095 25.9963 33.2531 26.0534L35.1123 26.7923C35.5224 26.9554 35.9635 26.639 35.9407 26.1982L35.8356 24.1693C35.8277 24.0183 35.8767 23.8698 35.9728 23.753L37.2289 22.2273C37.5069 21.8897 37.3462 21.3777 36.9252 21.2594L34.9737 20.7111C34.8334 20.6716 34.712 20.583 34.6319 20.4614L33.5349 18.7976C33.2957 18.4346 32.7631 18.4346 32.5238 18.7976L31.4269 20.4614C31.3467 20.5831 31.2254 20.6717 31.0851 20.7111L29.1335 21.2595C28.7125 21.3777 28.5519 21.8897 28.8298 22.2274L30.086 23.753Z" fill="url(#paint2_linear_3342_16)"/>
<path d="M27.4492 25.7646C27.7772 25.4366 27.7772 24.9047 27.4492 24.5767L24.1234 21.2509C23.7954 20.9229 23.2635 20.9229 22.9355 21.2509C22.6074 21.5789 22.6074 22.1107 22.9355 22.4388L26.2613 25.7646C26.5893 26.0926 27.1211 26.0926 27.4492 25.7646Z" fill="url(#paint3_linear_3342_16)"/>
<path d="M43.331 21.2509C43.003 20.9229 42.4712 20.9229 42.1431 21.2509L38.8173 24.5767C38.4893 24.9046 38.4893 25.4365 38.8173 25.7646C39.1454 26.0926 39.6772 26.0926 40.0052 25.7646L43.331 22.4388C43.6591 22.1108 43.6591 21.5789 43.331 21.2509Z" fill="url(#paint4_linear_3342_16)"/>
<defs>
<filter id="filter0_d_3342_16" x="0.121753" y="0.0592525" width="71.774" height="71.774" filterUnits="userSpaceOnUse" color-interpolation-filters="sRGB">
<feFlood flood-opacity="0" result="BackgroundImageFix"/>
<feColorMatrix in="SourceAlpha" type="matrix" values="0 0 0 0 0 0 0 0 0 0 0 0 0 0 0 0 0 0 127 0" result="hardAlpha"/>
<feOffset dx="2.72263" dy="2.72263"/>
<feGaussianBlur stdDeviation="1.81509"/>
<feColorMatrix type="matrix" values="0 0 0 0 0.466667 0 0 0 0 0.466667 0 0 0 0 0.466667 0 0 0 0.35 0"/>
<feBlend mode="normal" in2="BackgroundImageFix" result="effect1_dropShadow_3342_16"/>
<feBlend mode="normal" in="SourceGraphic" in2="effect1_dropShadow_3342_16" result="shape"/>
</filter>
<filter id="filter1_d_3342_16" x="6.81902" y="6.75164" width="58.3912" height="58.3922" filterUnits="userSpaceOnUse" color-interpolation-filters="sRGB">
<feFlood flood-opacity="0" result="BackgroundImageFix"/>
<feColorMatrix in="SourceAlpha" type="matrix" values="0 0 0 0 0 0 0 0 0 0 0 0 0 0 0 0 0 0 127 0" result="hardAlpha"/>
<feOffset dx="2.72263" dy="2.72263"/>
<feGaussianBlur stdDeviation="1.81509"/>
<feColorMatrix type="matrix" values="0 0 0 0 0.466667 0 0 0 0 0.466667 0 0 0 0 0.466667 0 0 0 0.35 0"/>
<feBlend mode="normal" in2="BackgroundImageFix" result="effect1_dropShadow_3342_16"/>
<feBlend mode="normal" in="SourceGraphic" in2="effect1_dropShadow_3342_16" result="shape"/>
</filter>
<linearGradient id="paint0_linear_3342_16" x1="32.9811" y1="29.1689" x2="33.1605" y2="46.4329" gradientUnits="userSpaceOnUse">
<stop stop-color="#265285"/>
<stop offset="1" stop-color="#CE0695"/>
</linearGradient>
<linearGradient id="paint1_linear_3342_16" x1="33.0294" y1="28.5879" x2="33.471" y2="77.2306" gradientUnits="userSpaceOnUse">
<stop stop-color="#265285"/>
<stop offset="1" stop-color="#CE0695"/>
</linearGradient>
<linearGradient id="paint2_linear_3342_16" x1="33.0294" y1="18.5254" x2="33.2601" y2="41.7005" gradientUnits="userSpaceOnUse">
<stop stop-color="#265285"/>
<stop offset="1" stop-color="#CE0695"/>
</linearGradient>
<linearGradient id="paint3_linear_3342_16" x1="25.1923" y1="21.0049" x2="25.3374" y2="34.964" gradientUnits="userSpaceOnUse">
<stop stop-color="#265285"/>
<stop offset="1" stop-color="#CE0695"/>
</linearGradient>
<linearGradient id="paint4_linear_3342_16" x1="41.0742" y1="21.0049" x2="41.2192" y2="34.964" gradientUnits="userSpaceOnUse">
<stop stop-color="#265285"/>
<stop offset="1" stop-color="#CE0695"/>
</linearGradient>
</defs>
</svg>
