<svg width="73" height="73" viewBox="0 0 73 73" fill="none" xmlns="http://www.w3.org/2000/svg">
<g filter="url(#filter0_d_3342_19)">
<path d="M33.6525 66.0081C51.4675 66.0081 65.9094 51.5661 65.9094 33.7511C65.9094 15.9361 51.4675 1.49414 33.6525 1.49414C15.8375 1.49414 1.39551 15.9361 1.39551 33.7511C1.39551 51.5661 15.8375 66.0081 33.6525 66.0081Z" fill="#47A1D9"/>
</g>
<g filter="url(#filter1_d_3342_19)">
<path d="M33.6527 59.3132C19.5595 59.3132 8.09082 47.8445 8.09082 33.7513C8.09082 19.6581 19.5595 8.18945 33.6527 8.18945C47.7459 8.18945 59.2146 19.6581 59.2146 33.7513C59.2146 47.8445 47.7459 59.3132 33.6527 59.3132Z" fill="white"/>
</g>
<path fill-rule="evenodd" clip-rule="evenodd" d="M39.5015 33.3014C39.8385 32.7464 40.5856 32.556 41.1691 32.8764C41.815 33.2306 42.6378 33.6834 43.2836 34.0376C43.8671 34.358 44.0674 35.0687 43.7304 35.6237C42.4742 37.694 39.659 42.3304 38.9912 43.4311C38.8972 43.5867 38.7654 43.7202 38.6067 43.8189C38.1745 44.0906 37.2259 44.6863 36.3286 45.2495C35.9428 45.4921 35.446 45.5061 35.0455 45.2866C34.6451 45.066 34.4095 44.6503 34.4376 44.2114C34.5023 43.1896 34.5694 42.1121 34.6012 41.6198C34.6121 41.4398 34.6671 41.2644 34.7623 41.1089C35.4301 40.0081 38.2453 35.3717 39.5015 33.3014ZM32.0887 45.0683C32.0094 44.7467 31.9789 44.4111 31.9996 44.0721C32.0643 43.0514 32.1327 41.9727 32.1632 41.4804C32.1974 40.9405 32.3634 40.4157 32.6478 39.9477L37.3871 32.1403C38.3979 30.4741 40.6381 29.904 42.39 30.8654L42.5536 30.9548V25.3291C42.5536 23.4051 40.914 21.8457 38.8911 21.8457H26.683C25.7112 21.8457 24.7797 22.2126 24.0936 22.8663C23.4063 23.5189 23.0205 24.4048 23.0205 25.3291V41.5849C23.0205 42.5092 23.4063 43.3951 24.0936 44.0477C24.7797 44.7014 25.7112 45.0683 26.683 45.0683H32.0887ZM27.9038 38.1015H30.559C31.2329 38.1015 31.7798 37.5813 31.7798 36.9404C31.7798 36.2995 31.2329 35.7793 30.559 35.7793H27.9038C27.2299 35.7793 26.683 36.2995 26.683 36.9404C26.683 37.5813 27.2299 38.1015 27.9038 38.1015ZM27.9038 33.457H33.2143C33.8882 33.457 34.4351 32.9368 34.4351 32.2959C34.4351 31.6549 33.8882 31.1347 33.2143 31.1347H27.9038C27.2299 31.1347 26.683 31.6549 26.683 32.2959C26.683 32.9368 27.2299 33.457 27.9038 33.457ZM27.9038 28.8125H35.2287C35.9026 28.8125 36.4495 28.2923 36.4495 27.6514C36.4495 27.0104 35.9026 26.4902 35.2287 26.4902H27.9038C27.2299 26.4902 26.683 27.0104 26.683 27.6514C26.683 28.2923 27.2299 28.8125 27.9038 28.8125Z" fill="url(#paint0_linear_3342_19)"/>
<defs>
<filter id="filter0_d_3342_19" x="0.487963" y="0.586596" width="71.774" height="71.774" filterUnits="userSpaceOnUse" color-interpolation-filters="sRGB">
<feFlood flood-opacity="0" result="BackgroundImageFix"/>
<feColorMatrix in="SourceAlpha" type="matrix" values="0 0 0 0 0 0 0 0 0 0 0 0 0 0 0 0 0 0 127 0" result="hardAlpha"/>
<feOffset dx="2.72263" dy="2.72263"/>
<feGaussianBlur stdDeviation="1.81509"/>
<feColorMatrix type="matrix" values="0 0 0 0 0.466667 0 0 0 0 0.466667 0 0 0 0 0.466667 0 0 0 0.35 0"/>
<feBlend mode="normal" in2="BackgroundImageFix" result="effect1_dropShadow_3342_19"/>
<feBlend mode="normal" in="SourceGraphic" in2="effect1_dropShadow_3342_19" result="shape"/>
</filter>
<filter id="filter1_d_3342_19" x="7.18328" y="7.28191" width="58.3844" height="58.3844" filterUnits="userSpaceOnUse" color-interpolation-filters="sRGB">
<feFlood flood-opacity="0" result="BackgroundImageFix"/>
<feColorMatrix in="SourceAlpha" type="matrix" values="0 0 0 0 0 0 0 0 0 0 0 0 0 0 0 0 0 0 127 0" result="hardAlpha"/>
<feOffset dx="2.72263" dy="2.72263"/>
<feGaussianBlur stdDeviation="1.81509"/>
<feColorMatrix type="matrix" values="0 0 0 0 0.466667 0 0 0 0 0.466667 0 0 0 0 0.466667 0 0 0 0.35 0"/>
<feBlend mode="normal" in2="BackgroundImageFix" result="effect1_dropShadow_3342_19"/>
<feBlend mode="normal" in="SourceGraphic" in2="effect1_dropShadow_3342_19" result="shape"/>
</filter>
<linearGradient id="paint0_linear_3342_19" x1="33.4573" y1="21.8457" x2="34.2302" y2="87.6449" gradientUnits="userSpaceOnUse">
<stop stop-color="#265285"/>
<stop offset="1" stop-color="#CE0695"/>
</linearGradient>
</defs>
</svg>
