<svg width="70" height="70" viewBox="0 0 70 70" fill="none" xmlns="http://www.w3.org/2000/svg">
<g clip-path="url(#clip0_279_179)">
<path d="M42.9173 28.4976L32.3998 38.4316L27.3521 33.2387C26.7926 32.6626 25.8711 32.6495 25.2956 33.2091C24.7195 33.7692 24.7064 34.6901 25.266 35.2662L31.3199 41.4808C31.8824 42.0467 32.7913 42.0661 33.3771 41.5242L44.9454 30.6129C45.2263 30.3479 45.3904 29.9821 45.4012 29.5963C45.4121 29.2105 45.269 28.8361 45.0035 28.5557C44.4405 27.9705 43.5122 27.9449 42.9173 28.4976Z" fill="url(#paint0_linear_279_179)"/>
<path d="M35.1128 13.2095C23.0926 13.2095 13.3187 22.9834 13.3187 35.0036C13.3187 47.0243 23.0926 56.7982 35.1128 56.7982C47.1336 56.7982 56.9075 47.0243 56.9075 35.0036C56.9075 22.9834 47.1336 13.2095 35.1128 13.2095ZM35.1128 53.8806C24.6973 53.8806 16.2363 45.4048 16.2363 35.0036C16.2363 24.6023 24.6973 16.1271 35.1128 16.1271C45.5386 16.1271 53.9899 24.5783 53.9899 35.0036C53.9899 45.4288 45.5386 53.8806 35.1128 53.8806Z" fill="url(#paint1_linear_279_179)"/>
<path d="M65.1058 26.9801L65.5873 18.3294C65.6209 17.7487 65.3053 17.2034 64.785 16.9435L57.0825 13.0487L53.1876 5.34613C52.9226 4.83043 52.3807 4.51645 51.8018 4.5438L43.1362 5.01107L35.9152 0.240371C35.4286 -0.0804491 34.7978 -0.0804491 34.3105 0.240371L27.0895 5.01107L18.4394 4.52955C17.8581 4.49536 17.3134 4.81105 17.0535 5.33189L13.1581 13.0344L5.45615 16.9293C4.93988 17.1937 4.62647 17.7356 4.65382 18.3151L5.13476 26.9658L0.364638 34.1869C0.0438185 34.6735 0.0438185 35.3043 0.364638 35.7915L5.12052 43.0268L4.639 51.6775C4.60538 52.2582 4.92051 52.8035 5.44134 53.0634L13.1439 56.9582L17.0387 64.6607C17.3031 65.177 17.845 65.4904 18.4246 65.4631L27.0753 64.9816L34.2963 69.7517C34.7801 70.0828 35.4172 70.0828 35.901 69.7517L43.122 64.9816L51.7727 65.4631C52.3534 65.4967 52.8981 65.181 53.1586 64.6607L57.0534 56.9582L64.7559 53.0634C65.2716 52.7984 65.5856 52.257 65.5583 51.6775L65.0768 43.0268L69.8469 35.8058C70.1677 35.3191 70.1677 34.6877 69.8469 34.2011L65.1058 26.9801ZM62.3922 41.8307C62.2144 42.0917 62.1318 42.4057 62.1592 42.7208L62.6111 50.9042L55.3319 54.5803C55.0544 54.7193 54.8293 54.945 54.6903 55.2225L51.0137 62.5016L42.8302 62.0497C42.5168 62.0383 42.2074 62.1193 41.9401 62.2828L35.1129 66.7908L28.2862 62.2828C28.0492 62.1227 27.7699 62.0361 27.4839 62.0349H27.4109L19.2269 62.4874L15.5509 55.2077C15.4118 54.9302 15.1867 54.7051 14.9087 54.566L7.61471 50.9042L8.06716 42.7208C8.07856 42.4074 7.99707 42.0979 7.83352 41.8307L3.32609 35.0034L7.83352 28.1762C8.01188 27.9158 8.09451 27.6012 8.06716 27.2867L7.61471 19.1026L14.8944 15.4266C15.1719 15.2876 15.397 15.0625 15.536 14.785L19.2121 7.50526L27.3961 7.95771C27.709 7.96854 28.0184 7.88762 28.2862 7.72407L35.1129 3.21664L41.9401 7.72407C42.2011 7.90243 42.5157 7.98506 42.8302 7.95771L51.0137 7.50526L54.6903 14.785C54.8293 15.0625 55.0544 15.2876 55.3319 15.4266L62.6111 19.1026L62.1592 27.2867C62.1478 27.5995 62.2293 27.9089 62.3922 28.1762L66.9002 35.0034L62.3922 41.8307Z" fill="url(#paint2_linear_279_179)"/>
</g>
<defs>
<linearGradient id="paint0_linear_279_179" x1="35.1283" y1="28.0994" x2="35.1283" y2="41.9182" gradientUnits="userSpaceOnUse">
<stop stop-color="#CE0695"/>
<stop offset="1" stop-color="#47A1D9"/>
</linearGradient>
<linearGradient id="paint1_linear_279_179" x1="35.1131" y1="13.2095" x2="35.1131" y2="56.7982" gradientUnits="userSpaceOnUse">
<stop stop-color="#CE0695"/>
<stop offset="1" stop-color="#47A1D9"/>
</linearGradient>
<linearGradient id="paint2_linear_279_179" x1="35.1058" y1="-0.000244141" x2="35.1058" y2="70" gradientUnits="userSpaceOnUse">
<stop stop-color="#CE0695"/>
<stop offset="1" stop-color="#47A1D9"/>
</linearGradient>
<clipPath id="clip0_279_179">
<rect width="70" height="70" fill="white"/>
</clipPath>
</defs>
</svg>
