<svg width="64" height="70" viewBox="0 0 64 70" fill="none" xmlns="http://www.w3.org/2000/svg">
<path d="M43.6284 29.2317C44.7948 28.0773 45.5187 26.4768 45.5187 24.71C45.5187 21.2007 42.6631 18.3457 39.1531 18.3457C36.4483 18.3457 34.0511 20.0603 33.156 22.5728C32.7808 22.5036 32.3949 22.4656 31.9999 22.4656C31.6049 22.4656 31.2191 22.5036 30.8438 22.5728C29.9487 20.0602 27.5513 18.3457 24.8467 18.3457C21.3367 18.3457 18.4811 21.2007 18.4811 24.71C18.4811 26.4768 19.2051 28.0773 20.3715 29.2317C17.5737 30.8255 15.7725 33.8434 15.7725 37.1256C15.7725 37.6921 16.2316 38.151 16.7979 38.151C17.3642 38.151 17.8233 37.6921 17.8233 37.1256C17.8233 34.2268 19.6383 31.5944 22.3434 30.562C23.1123 30.8922 23.9585 31.0757 24.8469 31.0757C25.2382 31.0757 25.6256 31.0379 26.0049 30.9679C26.329 31.8745 26.8527 32.6866 27.5234 33.3511C24.7002 34.9496 22.926 37.9453 22.926 41.246C22.926 41.8124 23.3851 42.2714 23.9514 42.2714C24.5177 42.2714 24.9768 41.8124 24.9768 41.246C24.9768 38.4168 26.6606 35.8764 29.2665 34.7742C29.3362 34.7447 29.4006 34.7079 29.4599 34.6659C30.2385 35.0062 31.0973 35.1963 31.9999 35.1963C32.8886 35.1963 33.7349 35.0126 34.5038 34.6823C37.2077 35.7147 39.023 38.3498 39.023 41.246C39.023 41.8124 39.4822 42.2714 40.0484 42.2714C40.6147 42.2714 41.0738 41.8124 41.0738 41.246C41.0738 37.9667 39.2723 34.9463 36.4753 33.352C37.1466 32.6874 37.6706 31.8749 37.9949 30.9679C38.3743 31.0379 38.7616 31.0757 39.1529 31.0757C40.0413 31.0757 40.8875 30.8922 41.6563 30.562C44.3614 31.5944 46.1764 34.2265 46.1764 37.1256C46.1764 37.6921 46.6355 38.151 47.2017 38.151C47.768 38.151 48.2271 37.6921 48.2271 37.1256C48.2274 33.8433 46.4263 30.8255 43.6284 29.2317ZM25.6348 28.831C25.6348 28.8713 25.6371 28.911 25.6378 28.951C25.3795 28.9992 25.115 29.0249 24.8469 29.0249C22.4677 29.0249 20.532 27.0893 20.532 24.71C20.532 22.3316 22.4677 20.3965 24.8469 20.3965C26.6825 20.3965 28.3085 21.5612 28.9136 23.2666C26.9599 24.3547 25.6348 26.4406 25.6348 28.831ZM27.6856 28.831C27.6856 26.4521 29.621 24.5165 32 24.5165C34.3791 24.5165 36.3145 26.4519 36.3145 28.831C36.3145 31.2101 34.3791 33.1455 32 33.1455C29.621 33.1455 27.6856 31.2099 27.6856 28.831ZM38.3621 28.951C38.3628 28.911 38.3652 28.8712 38.3652 28.831C38.3652 26.4406 37.0401 24.3548 35.0863 23.2668C35.6915 21.5613 37.3175 20.3966 39.1531 20.3966C41.5323 20.3966 43.4679 22.3316 43.4679 24.7101C43.4679 27.0893 41.5323 29.025 39.1531 29.025C38.885 29.0249 38.6204 28.9992 38.3621 28.951Z" fill="url(#paint0_linear_279_185)"/>
<path d="M58.5551 44.3159V25.6773C61.111 25.195 63.0508 22.9467 63.0508 20.2527C63.0508 17.2079 60.5739 14.731 57.5291 14.731C55.8558 14.731 54.355 15.4802 53.3417 16.6596L37.2105 7.34553C37.4111 6.77418 37.5216 6.16058 37.5216 5.52142C37.5216 2.47695 35.0446 0 32 0C28.9554 0 26.4783 2.47695 26.4783 5.52156C26.4783 6.16072 26.5887 6.77418 26.7894 7.34567L10.6582 16.6596C9.64487 15.4802 8.1441 14.731 6.47079 14.731C3.42604 14.731 0.949097 17.2079 0.949097 20.2527C0.949097 22.9467 2.88887 25.1948 5.44485 25.6773V44.3159C2.88887 44.7982 0.949097 47.0464 0.949097 49.7405C0.949097 52.7852 3.42604 55.2622 6.47079 55.2622C8.1415 55.2622 9.64008 54.5153 10.6535 53.3392L26.7892 62.6549C26.5887 63.2261 26.4783 63.8396 26.4783 64.4784C26.4783 67.5232 28.9553 70.0001 32 70.0001C35.0448 70.0001 37.5217 67.5232 37.5217 64.4784C37.5217 63.8396 37.4114 63.2261 37.2108 62.6549L53.3466 53.3392C54.36 54.5154 55.8585 55.2622 57.5293 55.2622C60.574 55.2622 63.0509 52.7852 63.0509 49.7405C63.0508 47.0463 61.1109 44.7982 58.5551 44.3159ZM57.5291 16.7818C59.4429 16.7818 61 18.3389 61 20.2527C61 22.1665 59.4429 23.7236 57.5291 23.7236C55.6153 23.7236 54.0582 22.1665 54.0582 20.2527C54.0582 18.3389 55.6153 16.7818 57.5291 16.7818ZM32 2.05079C33.9138 2.05079 35.4709 3.60776 35.4709 5.52156C35.4709 7.43358 33.9167 8.98945 32.0054 8.99232C32.0036 8.99232 32.0018 8.99204 32 8.99204C31.9982 8.99204 31.9965 8.99232 31.9947 8.99232C30.0834 8.98945 28.5291 7.43358 28.5291 5.52156C28.5291 3.60776 30.0861 2.05079 32 2.05079ZM2.99989 20.2527C2.99989 18.3389 4.55699 16.7818 6.47079 16.7818C8.38459 16.7818 9.94169 18.3389 9.94169 20.2527C9.94169 22.1665 8.38459 23.7236 6.47079 23.7236C4.55699 23.7236 2.99989 22.1665 2.99989 20.2527ZM6.47079 53.2113C4.55699 53.2113 2.99989 51.6542 2.99989 49.7403C2.99989 47.8265 4.55699 46.2695 6.47079 46.2695C8.38459 46.2695 9.94169 47.8265 9.94169 49.7403C9.94169 51.6542 8.38459 53.2113 6.47079 53.2113ZM32 67.9492C30.0862 67.9492 28.5291 66.3921 28.5291 64.4783C28.5291 62.5645 30.0862 61.0074 32 61.0074C33.9138 61.0074 35.4709 62.5645 35.4709 64.4783C35.4709 66.3921 33.9138 67.9492 32 67.9492ZM36.183 60.8801C35.3822 59.9504 34.2782 59.2899 33.0253 59.0537V55.1033C33.0253 54.5369 32.5662 54.0779 31.9999 54.0779C31.4336 54.0779 30.9745 54.5369 30.9745 55.1033V59.0537C29.7217 59.2901 28.6177 59.9504 27.8168 60.8801L11.6813 51.5646C11.882 50.9931 11.9923 50.3797 11.9923 49.7405C11.9923 49.1008 11.8817 48.4866 11.6808 47.9147L15.1029 45.9385C15.5933 45.6552 15.7612 45.028 15.478 44.5376C15.1949 44.0472 14.5677 43.8795 14.0772 44.1625L10.6521 46.1405C9.85132 45.2117 8.74772 44.5518 7.4955 44.3157V25.6774C8.74813 25.4413 9.852 24.7811 10.6528 23.8518L14.0825 25.8325C14.244 25.9257 14.4203 25.97 14.5944 25.97C14.9486 25.97 15.2933 25.7861 15.4832 25.4573C15.7665 24.9669 15.5985 24.3396 15.108 24.0565L11.6809 22.0773C11.8816 21.5057 11.9921 20.892 11.9921 20.2527C11.9921 19.6161 11.8826 19.005 11.6834 18.4355L27.8168 9.12015C28.6176 10.0496 29.7215 10.7099 30.9741 10.9462V14.897C30.9741 15.4634 31.4332 15.9224 31.9995 15.9224C32.5658 15.9224 33.0249 15.4634 33.0249 14.897V10.9462C34.2775 10.7099 35.3814 10.0496 36.1821 9.12015L52.3156 18.4355C52.1165 19.005 52.0069 19.6161 52.0069 20.2527C52.0069 20.892 52.1173 21.5057 52.318 22.0773L48.8909 24.0565C48.4005 24.3396 48.2325 24.9669 48.5157 25.4573C48.7056 25.7861 49.0503 25.97 49.4046 25.97C49.5785 25.97 49.755 25.9257 49.9164 25.8325L53.3462 23.8518C54.1471 24.7811 55.251 25.4413 56.5034 25.6774V44.3157C55.2512 44.5518 54.1478 45.2117 53.3469 46.1405L49.9218 44.1625C49.4314 43.8797 48.8042 44.0472 48.5209 44.5376C48.2377 45.028 48.4057 45.6552 48.8961 45.9385L52.3182 47.9147C52.1172 48.4866 52.0066 49.1008 52.0066 49.7405C52.0066 50.3797 52.1169 50.9933 52.3176 51.5646L36.183 60.8801ZM57.5291 53.2113C55.6153 53.2113 54.0582 51.6542 54.0582 49.7403C54.0582 47.8265 55.6153 46.2695 57.5291 46.2695C59.4429 46.2695 61 47.8265 61 49.7403C61 51.6542 59.4429 53.2113 57.5291 53.2113Z" fill="url(#paint1_linear_279_185)"/>
<path d="M40.5885 45.5945H37.5369C36.9706 45.5945 36.5115 46.0534 36.5115 46.6199C36.5115 47.1863 36.9706 47.6453 37.5369 47.6453H40.5885C41.1548 47.6453 41.6139 47.1863 41.6139 46.6199C41.6139 46.0534 41.1548 45.5945 40.5885 45.5945Z" fill="url(#paint2_linear_279_185)"/>
<path d="M40.5884 49.6108H23.4114C22.8451 49.6108 22.386 50.0698 22.386 50.6362C22.386 51.2027 22.8451 51.6616 23.4114 51.6616H40.5885C41.1548 51.6616 41.6139 51.2027 41.6139 50.6362C41.6139 50.0698 41.1547 49.6108 40.5884 49.6108Z" fill="url(#paint3_linear_279_185)"/>
<path d="M23.4114 47.6453H23.4257C23.9919 47.6453 24.451 47.1863 24.451 46.6199C24.451 46.0534 23.9919 45.5945 23.4257 45.5945H23.4114C22.8451 45.5945 22.386 46.0534 22.386 46.6199C22.386 47.1863 22.8451 47.6453 23.4114 47.6453Z" fill="url(#paint4_linear_279_185)"/>
<path d="M26.9774 47.6453C27.5436 47.6453 28.0027 47.1863 28.0027 46.6199C28.0027 46.0534 27.5436 45.5945 26.9774 45.5945H26.9631C26.3968 45.5945 25.9377 46.0534 25.9377 46.6199C25.9377 47.1863 26.3968 47.6453 26.9631 47.6453H26.9774Z" fill="url(#paint5_linear_279_185)"/>
<path d="M30.5291 47.6453C31.0953 47.6453 31.5544 47.1863 31.5544 46.6199C31.5544 46.0534 31.0953 45.5945 30.5291 45.5945H30.5148C29.9485 45.5945 29.4894 46.0534 29.4894 46.6199C29.4894 47.1863 29.9485 47.6453 30.5148 47.6453H30.5291Z" fill="url(#paint6_linear_279_185)"/>
<defs>
<linearGradient id="paint0_linear_279_185" x1="31.9998" y1="18.3457" x2="31.9998" y2="42.2714" gradientUnits="userSpaceOnUse">
<stop stop-color="#CE0695"/>
<stop offset="1" stop-color="#47A1D9"/>
</linearGradient>
<linearGradient id="paint1_linear_279_185" x1="32" y1="0" x2="32" y2="70.0001" gradientUnits="userSpaceOnUse">
<stop stop-color="#CE0695"/>
<stop offset="1" stop-color="#47A1D9"/>
</linearGradient>
<linearGradient id="paint2_linear_279_185" x1="39.0627" y1="45.5945" x2="39.0627" y2="47.6453" gradientUnits="userSpaceOnUse">
<stop stop-color="#CE0695"/>
<stop offset="1" stop-color="#47A1D9"/>
</linearGradient>
<linearGradient id="paint3_linear_279_185" x1="32" y1="49.6108" x2="32" y2="51.6616" gradientUnits="userSpaceOnUse">
<stop stop-color="#CE0695"/>
<stop offset="1" stop-color="#47A1D9"/>
</linearGradient>
<linearGradient id="paint4_linear_279_185" x1="23.4185" y1="45.5945" x2="23.4185" y2="47.6453" gradientUnits="userSpaceOnUse">
<stop stop-color="#CE0695"/>
<stop offset="1" stop-color="#47A1D9"/>
</linearGradient>
<linearGradient id="paint5_linear_279_185" x1="26.9702" y1="45.5945" x2="26.9702" y2="47.6453" gradientUnits="userSpaceOnUse">
<stop stop-color="#CE0695"/>
<stop offset="1" stop-color="#47A1D9"/>
</linearGradient>
<linearGradient id="paint6_linear_279_185" x1="30.5219" y1="45.5945" x2="30.5219" y2="47.6453" gradientUnits="userSpaceOnUse">
<stop stop-color="#CE0695"/>
<stop offset="1" stop-color="#47A1D9"/>
</linearGradient>
</defs>
</svg>
