<svg width="70" height="70" viewBox="0 0 70 70" fill="none" xmlns="http://www.w3.org/2000/svg">
<path d="M35 0C25.7174 0 16.815 3.6875 10.2513 10.2513C3.68749 16.8151 0 25.7175 0 35.0001C0 35.6631 0.263392 36.299 0.732233 36.7678C1.20107 37.2367 1.83696 37.5001 2.5 37.5001H32.5V67.5001C32.5 68.1632 32.7634 68.799 33.2322 69.2679C33.7011 69.7367 34.337 70.0001 35 70.0001C44.2826 70.0001 53.185 66.3126 59.7487 59.7488C66.3125 53.1851 70 44.2827 70 35.0001C70 25.7175 66.3125 16.8151 59.7487 10.2513C53.185 3.6875 44.2826 0 35 0ZM37.5 65.0001V35.0001C37.5 34.337 37.2366 33.7011 36.7678 33.2323C36.2989 32.7635 35.663 32.5001 35 32.5001H5C5.49761 26.8111 7.60864 21.3823 11.085 16.8516C14.5614 12.321 19.2587 8.87667 24.625 6.92344C29.9913 4.97021 35.8036 4.58921 41.3789 5.82521C46.9543 7.06121 52.061 9.86285 56.0991 13.9009C60.1372 17.939 62.9388 23.0458 64.1748 28.6211C65.4108 34.1965 65.0298 40.0088 63.0766 45.3751C61.1233 50.7414 57.6791 55.4387 53.1484 58.9151C48.6177 62.3915 43.189 64.5025 37.5 65.0001Z" fill="url(#paint0_linear_279_194)"/>
<path d="M25 42.5002H4.07503C3.67002 42.48 3.26618 42.5587 2.89835 42.7294C2.53052 42.9002 2.20974 43.1578 1.96368 43.4801C1.71762 43.8025 1.55367 44.1798 1.48596 44.5797C1.41825 44.9795 1.44882 45.3898 1.57503 45.7752C3.28081 51.0366 6.20925 55.8189 10.1203 59.7299C14.0313 63.641 18.8136 66.5694 24.075 68.2752C24.4604 68.4014 24.8707 68.432 25.2705 68.3643C25.6704 68.2966 26.0477 68.1326 26.3701 67.8866C26.6924 67.6405 26.95 67.3197 27.1208 66.9519C27.2915 66.5841 27.3702 66.1802 27.35 65.7752V45.0002C27.3512 44.3623 27.1085 43.7481 26.6716 43.2834C26.2347 42.8186 25.6367 42.5384 25 42.5002ZM22.5 62.2502C15.9773 59.2562 10.7441 54.0229 7.75003 47.5002H22.5V62.2502Z" fill="url(#paint1_linear_279_194)"/>
<defs>
<linearGradient id="paint0_linear_279_194" x1="35" y1="0" x2="35" y2="70.0001" gradientUnits="userSpaceOnUse">
<stop stop-color="#CE0695"/>
<stop offset="1" stop-color="#47A1D9"/>
</linearGradient>
<linearGradient id="paint1_linear_279_194" x1="14.402" y1="42.4971" x2="14.402" y2="68.3994" gradientUnits="userSpaceOnUse">
<stop stop-color="#CE0695"/>
<stop offset="1" stop-color="#47A1D9"/>
</linearGradient>
</defs>
</svg>
