<svg width="70" height="70" viewBox="0 0 70 70" fill="none" xmlns="http://www.w3.org/2000/svg">
<g clip-path="url(#clip0_279_197)">
<path d="M24.3026 16.4365C24.1015 17.0554 24.2994 17.7187 24.8067 18.1266L29.3232 21.7567L27.803 27.3484C27.6324 27.9762 27.8622 28.6292 28.389 29.0123C28.9159 29.3945 29.6075 29.4113 30.1521 29.0551L35.0003 25.8814L39.8486 29.0552C40.11 29.2262 40.4052 29.3113 40.6998 29.3113C41.0192 29.3113 41.3379 29.2113 41.6115 29.0123C42.1385 28.6296 42.3685 27.9762 42.1974 27.3484L40.6772 21.7569L45.1935 18.1269C45.7011 17.7192 45.8991 17.0557 45.6978 16.4365C45.4967 15.8171 44.9466 15.3967 44.2965 15.3653L38.5088 15.0831L36.452 9.66602C36.221 9.05748 35.6511 8.66414 35.0001 8.66414C34.3492 8.66414 33.7792 9.05734 33.5485 9.66588L31.4915 15.0832L25.7042 15.3653C25.0539 15.3967 24.5037 15.8171 24.3026 16.4365ZM32.013 17.2478C32.6298 17.2177 33.17 16.8252 33.3889 16.2479L35 12.0049L36.6111 16.2483C36.8304 16.8254 37.3707 17.2177 37.987 17.2478L42.5202 17.4688L38.9825 20.3122C38.5011 20.6992 38.2949 21.3343 38.4569 21.9298L39.6476 26.3095L35.8501 23.8235C35.5919 23.6545 35.2959 23.57 34.9999 23.57C34.7039 23.57 34.4076 23.6547 34.1492 23.8237L30.352 26.3095L31.5427 21.9301C31.7048 21.3341 31.4985 20.6989 31.017 20.3122L27.4794 17.469L32.013 17.2478ZM33.9063 5.10754V1.09375C33.9063 0.489727 34.396 0 35 0C35.604 0 36.0938 0.489727 36.0938 1.09375V5.10754C36.0938 5.71156 35.604 6.20129 35 6.20129C34.396 6.20129 33.9063 5.71156 33.9063 5.10754ZM40.5671 11.5877C40.1629 11.1389 40.1991 10.4472 40.648 10.0431L45.1207 6.01562C45.5697 5.61135 46.2613 5.64758 46.6655 6.09656C47.0697 6.54541 47.0334 7.23707 46.5846 7.64121L42.1117 11.6687C41.9027 11.8569 41.641 11.9496 41.3801 11.9496C41.0811 11.9496 40.7831 11.8277 40.5671 11.5877ZM23.3345 6.09656C23.7386 5.64758 24.4301 5.61135 24.8793 6.01562L29.3522 10.0431C29.801 10.4472 29.8372 11.1389 29.4331 11.5877C29.2171 11.8275 28.919 11.9496 28.6199 11.9496C28.3592 11.9496 28.0975 11.8569 27.8883 11.6687L23.4154 7.64121C22.9664 7.23707 22.9303 6.54541 23.3345 6.09656ZM49.032 18.1266L53.5485 21.7567L52.0283 27.3484C51.8577 27.9762 52.0875 28.6292 52.6143 29.0123C53.1408 29.3945 53.8326 29.4112 54.3774 29.0551L59.2256 25.8814L64.0739 29.0552C64.3353 29.2262 64.6305 29.3113 64.9251 29.3113C65.2445 29.3113 65.5632 29.2113 65.8368 29.0123C66.3636 28.6299 66.5935 27.9768 66.4228 27.3484L64.9026 21.7569L69.4188 18.1269C69.9263 17.7193 70.1243 17.0558 69.923 16.4365C69.7219 15.8171 69.1718 15.3967 68.5218 15.3653L62.7341 15.0831L60.6774 9.66602C60.4465 9.05748 59.8765 8.66414 59.2256 8.66414C58.5746 8.66414 58.0046 9.05734 57.7737 9.66588L55.717 15.0831L49.9297 15.3651C49.2792 15.3966 48.729 15.8171 48.5279 16.4365C48.3267 17.0557 48.5246 17.7192 49.032 18.1266ZM56.2382 17.2478C56.8552 17.2177 57.3955 16.8252 57.6145 16.2478L59.2255 12.0047L60.8363 16.2477C61.0555 16.8252 61.5958 17.2177 62.2125 17.2476L66.7457 17.4687L63.2084 20.3118C62.7267 20.6987 62.5203 21.3339 62.6824 21.9297L63.8731 26.3093L60.0756 23.8234C59.8172 23.6544 59.5212 23.5699 59.2252 23.5699C58.9291 23.5699 58.6329 23.6545 58.3747 23.8235L54.5774 26.3093L55.7681 21.93C55.9301 21.3343 55.724 20.6992 55.2424 20.312L51.7048 17.4687L56.2382 17.2478ZM0.581061 18.1266L5.09757 21.7567L3.57739 27.3484C3.40676 27.9762 3.63659 28.6292 4.16337 29.0123C4.69028 29.3945 5.38194 29.4113 5.92649 29.0551L10.7747 25.8814L15.623 29.0552C15.8844 29.2262 16.1796 29.3113 16.4742 29.3113C16.7936 29.3113 17.1123 29.2113 17.3858 29.0123C17.9126 28.6299 18.1426 27.9768 17.9718 27.3484L16.4516 21.7569L20.9679 18.1269C21.4751 17.7196 21.6732 17.0562 21.4721 16.4358C21.2706 15.8169 20.7204 15.3966 20.0709 15.3651L14.2832 15.0829L12.2265 9.66602C11.9956 9.05748 11.4256 8.66414 10.7747 8.66414C10.1236 8.66414 9.55364 9.05734 9.32272 9.66588L7.26606 15.0831L1.47876 15.3651C0.828385 15.3966 0.278229 15.8171 0.0772527 16.4358C-0.124407 17.0553 0.0734245 17.719 0.581061 18.1266ZM7.78723 17.2478C8.40424 17.2177 8.94456 16.8252 9.16358 16.2478L10.7745 12.0047L12.3854 16.2477C12.6045 16.8252 13.1448 17.2177 13.7616 17.2476L18.2948 17.4687L14.7574 20.3118C14.2758 20.6987 14.0693 21.3339 14.2315 21.9297L15.4222 26.3093L11.6247 23.8234C11.3663 23.6544 11.0703 23.5699 10.7743 23.5699C10.4781 23.5699 10.182 23.6545 9.92374 23.8235L6.12651 26.3093L7.31719 21.93C7.47921 21.3343 7.27303 20.6992 6.79151 20.312L3.25391 17.4687L7.78723 17.2478ZM69.8279 58.0963C69.0583 55.611 67.4821 53.3795 65.3893 51.8124C64.3874 51.0623 63.2964 50.4779 62.1455 50.0642C63.7412 48.8119 64.7693 46.8677 64.7693 44.6867C64.7693 40.9179 61.7031 37.8518 57.9344 37.8518C54.1656 37.8518 51.0995 40.9179 51.0995 44.6867C51.0995 46.8651 52.1251 48.8074 53.7176 50.0598C51.5833 50.8216 49.6925 52.1601 48.2445 53.9637C47.5677 53.0169 46.7871 52.1376 45.9095 51.3439C44.1412 49.7447 42.0659 48.5703 39.831 47.8762C42.201 46.305 43.7678 43.6148 43.7678 40.5645C43.7678 35.7301 39.8345 31.797 35.0001 31.797C30.1658 31.797 26.2325 35.7301 26.2325 40.5645C26.2325 43.6148 27.7992 46.305 30.1692 47.8762C27.9341 48.5702 25.8589 49.7447 24.0905 51.3439C23.2129 52.1376 22.4323 53.0169 21.7557 53.9636C20.3078 52.1598 18.417 50.8214 16.2825 50.0594C17.8749 48.8069 18.9007 46.8647 18.9007 44.6862C18.9007 40.9175 15.8345 37.8514 12.0658 37.8514C8.29706 37.8514 5.23087 40.9175 5.23087 44.6862C5.23087 46.8672 6.25899 48.8115 7.8545 50.0638C6.7036 50.4775 5.61258 51.0619 4.61057 51.812C2.51782 53.379 0.941589 55.6106 0.171999 58.0958C-0.183607 59.2436 0.013405 60.4086 0.726667 61.3763C1.43979 62.3438 2.49444 62.8764 3.6962 62.8764H18.8163V64.8504C18.8163 67.69 21.1265 70.0001 23.9661 70.0001H46.0339C48.8734 70.0001 51.1837 67.69 51.1838 64.8504V62.877H66.3038C67.5057 62.877 68.5604 62.3442 69.2733 61.3769C69.9865 60.4092 70.1835 59.2441 69.8279 58.0963ZM57.9344 40.0393C60.497 40.0393 62.5818 42.1241 62.5818 44.6867C62.5818 47.2493 60.497 49.3341 57.9344 49.3341C55.3718 49.3341 53.287 47.2493 53.287 44.6867C53.287 42.1241 55.3718 40.0393 57.9344 40.0393ZM28.42 40.5645C28.42 36.9362 31.3719 33.9845 35.0001 33.9845C38.6284 33.9845 41.5803 36.9362 41.5803 40.5645C41.5803 44.1916 38.6303 47.1425 35.0037 47.1445C35.0025 47.1445 35.0011 47.1445 35 47.1445C34.9989 47.1445 34.9977 47.1445 34.9965 47.1445C31.3699 47.1424 28.42 44.1915 28.42 40.5645ZM12.0658 40.0388C14.6284 40.0388 16.7132 42.1236 16.7132 44.6861C16.7132 47.2488 14.6284 49.3336 12.0658 49.3336C9.50319 49.3336 7.41837 47.2488 7.41837 44.6861C7.41837 42.1236 9.50319 40.0388 12.0658 40.0388ZM18.9584 60.6888H3.69633C3.19294 60.6888 2.78633 60.4834 2.4876 60.0782C2.18874 59.6729 2.11286 59.2237 2.26174 58.7429C3.5994 54.4232 7.5395 51.5211 12.0658 51.5211C15.4897 51.5211 18.6087 53.1754 20.527 55.9758C19.7686 57.4491 19.2374 59.0371 18.9584 60.6888ZM48.9963 64.8502C48.9962 66.4836 47.6673 67.8125 46.0339 67.8125H23.9661C22.3327 67.8125 21.0038 66.4836 21.0038 64.8502V61.842C21.7957 54.7069 27.8009 49.3337 34.9965 49.332C34.9977 49.332 34.9989 49.3321 35.0001 49.3321C35.0014 49.3321 35.0026 49.332 35.0037 49.332C42.1991 49.3339 48.2042 54.7069 48.9963 61.842V64.8502ZM67.5125 60.0789C67.2138 60.484 66.8074 60.6893 66.3038 60.6893H51.0419C50.7627 59.0375 50.2316 57.4495 49.4733 55.9761C51.3918 53.1758 54.5106 51.5216 57.9343 51.5216C62.4606 51.5216 66.4007 54.4239 67.7384 58.7435C67.8873 59.2241 67.8113 59.6734 67.5125 60.0789Z" fill="url(#paint0_linear_279_197)"/>
</g>
<defs>
<linearGradient id="paint0_linear_279_197" x1="34.9999" y1="0" x2="34.9999" y2="70.0001" gradientUnits="userSpaceOnUse">
<stop stop-color="#CE0695"/>
<stop offset="1" stop-color="#47A1D9"/>
</linearGradient>
<clipPath id="clip0_279_197">
<rect width="70" height="70" fill="white"/>
</clipPath>
</defs>
</svg>
