<svg width="70" height="70" viewBox="0 0 70 70" fill="none" xmlns="http://www.w3.org/2000/svg">
<path d="M29.1667 46.6667H40.8334C42.7664 46.6667 44.3334 45.0997 44.3334 43.1667V32.6667C44.3334 30.7337 42.7664 29.1667 40.8334 29.1667V26.8333C40.8334 23.6117 38.2217 21 35.0001 21C31.7784 21 29.1667 23.6117 29.1667 26.8333V29.1667C27.2338 29.1667 25.6667 30.7337 25.6667 32.6667V43.1667C25.6667 45.0997 27.2338 46.6667 29.1667 46.6667ZM31.5001 26.8333C31.5001 24.9003 33.0671 23.3333 35.0001 23.3333C36.9331 23.3333 38.5001 24.9003 38.5001 26.8333V29.1667H31.5001V26.8333ZM28.0001 32.6667C28.0001 32.0223 28.5224 31.5 29.1667 31.5H40.8334C41.4777 31.5 42.0001 32.0223 42.0001 32.6667V43.1667C42.0001 43.811 41.4777 44.3333 40.8334 44.3333H29.1667C28.5224 44.3333 28.0001 43.811 28.0001 43.1667V32.6667Z" fill="url(#paint0_linear_279_200)"/>
<path d="M33.8334 40.6187V40.8333C33.8334 41.4777 34.3558 42 35.0001 42C35.6444 42 36.1668 41.4777 36.1668 40.8333V40.6187C37.7739 40.0505 38.7379 38.4071 38.4497 36.727C38.1614 35.0469 36.7047 33.8188 35.0001 33.8188C33.2955 33.8188 31.8387 35.0469 31.5505 36.727C31.2622 38.4071 32.2263 40.0505 33.8334 40.6187ZM35.0001 36.1667C35.6444 36.1667 36.1668 36.689 36.1668 37.3333C36.1668 37.9777 35.6444 38.5 35.0001 38.5C34.3558 38.5 33.8334 37.9777 33.8334 37.3333C33.8334 36.689 34.3558 36.1667 35.0001 36.1667Z" fill="url(#paint1_linear_279_200)"/>
<path d="M15.1667 34.9998C15.1667 45.9535 24.0464 54.8332 35.0001 54.8332C45.9537 54.8332 54.8334 45.9535 54.8334 34.9998C54.8334 24.0462 45.9537 15.1665 35.0001 15.1665C24.0515 15.1787 15.179 24.0513 15.1667 34.9998ZM35.0001 17.4998C44.6651 17.4998 52.5001 25.3349 52.5001 34.9998C52.5001 44.6648 44.6651 52.4998 35.0001 52.4998C25.3351 52.4998 17.5001 44.6648 17.5001 34.9998C17.511 25.3394 25.3396 17.5108 35.0001 17.4998Z" fill="url(#paint2_linear_279_200)"/>
<path d="M58.3334 60.6667C56.2119 60.6747 54.3628 62.1126 53.8324 64.1667H45.5001V57.1142C48.1085 55.8863 50.4786 54.2056 52.5001 52.15C52.7989 51.8538 52.9151 51.4196 52.8041 51.0137C52.6931 50.6079 52.3721 50.2932 51.9642 50.1903C51.5562 50.0873 51.1243 50.2121 50.8341 50.5167C48.8532 52.5419 46.5018 54.1677 43.9076 55.3059C43.7509 55.3681 43.6099 55.4641 43.4946 55.587C43.4817 55.601 43.4747 55.6197 43.4619 55.636C43.3766 55.731 43.3076 55.8394 43.2577 55.9569C43.2349 56.0302 43.2196 56.1056 43.2122 56.182C43.1906 56.2481 43.1753 56.3161 43.1667 56.385V56.406V64.1667C43.1667 65.4554 44.2114 66.5 45.5001 66.5H53.8324C54.4428 68.8422 56.7452 70.3268 59.1306 69.9162C61.5159 69.5056 63.1895 67.3367 62.9816 64.9252C62.7738 62.5137 60.7538 60.6631 58.3334 60.6667ZM58.3334 67.6667C57.0448 67.6667 56.0001 66.622 56.0001 65.3334C56.0001 64.0447 57.0448 63 58.3334 63C59.6221 63 60.6667 64.0447 60.6667 65.3334C60.6667 66.622 59.6221 67.6667 58.3334 67.6667Z" fill="url(#paint3_linear_279_200)"/>
<path d="M9.16769 47.833H14.805C14.8144 47.833 14.8225 47.8272 14.833 47.8272C14.9491 47.822 15.0636 47.7988 15.1725 47.7583C15.2269 47.7405 15.28 47.7187 15.3312 47.693C15.344 47.686 15.3592 47.6837 15.372 47.6755C15.3849 47.6673 15.4047 47.6428 15.4234 47.63C15.5292 47.5647 15.6231 47.4819 15.701 47.385C15.7148 47.367 15.7276 47.3483 15.7395 47.329C15.815 47.2228 15.8719 47.1044 15.9075 46.979C15.9075 46.9615 15.9145 46.944 15.918 46.9265C15.9462 46.8422 15.9643 46.7549 15.9717 46.6663C15.9657 46.6222 15.9567 46.5786 15.9449 46.5357C15.9449 46.5205 15.9449 46.5065 15.9367 46.4902C15.9169 46.3533 15.8722 46.2213 15.8049 46.1005L15.799 46.0818C14.6027 44.0168 13.7508 41.7708 13.2767 39.4318C13.1478 38.8004 12.5315 38.393 11.9 38.5218C11.2686 38.6507 10.8612 39.2671 10.99 39.8985C11.3826 41.834 12.0094 43.7146 12.8567 45.4985H9.16769C8.5802 43.2232 6.39244 41.7396 4.06119 42.0357C1.72994 42.3318 -0.0174561 44.3152 -0.0174561 46.6652C-0.0174561 49.0152 1.72994 50.9985 4.06119 51.2946C6.39244 51.5908 8.5802 50.1072 9.16769 47.8318V47.833ZM4.66669 48.9997C3.37803 48.9997 2.33336 47.955 2.33336 46.6663C2.33336 45.3777 3.37803 44.333 4.66669 44.333C5.95536 44.333 7.00002 45.3777 7.00002 46.6663C7.00002 47.955 5.95536 48.9997 4.66669 48.9997Z" fill="url(#paint4_linear_279_200)"/>
<path d="M3.65773e-06 23.3332C-0.00291493 25.6802 1.7411 27.6628 4.06939 27.9591C6.39768 28.2553 8.58265 26.7728 9.16767 24.4998H14.805H14.8365C14.9516 24.4933 15.0652 24.4701 15.1737 24.431C15.2249 24.4146 15.2749 24.3944 15.323 24.3703C15.3852 24.3376 15.4438 24.2985 15.498 24.2537C15.5964 24.1794 15.6816 24.0891 15.75 23.9865C15.7652 23.9643 15.785 23.948 15.799 23.9247C17.295 21.3287 19.3025 19.0635 21.7 17.2665C22.0335 17.0164 22.2082 16.6074 22.1583 16.1936C22.1084 15.7798 21.8416 15.424 21.4583 15.2603C21.075 15.0966 20.6335 15.1498 20.3 15.3998C17.8448 17.2493 15.7601 19.5449 14.1552 22.1665H9.16767C8.58265 19.8935 6.39768 18.411 4.06939 18.7073C1.7411 19.0036 -0.00291493 20.9861 3.65773e-06 23.3332ZM7.00001 23.3332C7.00001 24.6218 5.95534 25.6665 4.66667 25.6665C3.37801 25.6665 2.33334 24.6218 2.33334 23.3332C2.33334 22.0445 3.37801 20.9998 4.66667 20.9998C5.28551 20.9998 5.879 21.2457 6.31659 21.6833C6.75417 22.1209 7.00001 22.7143 7.00001 23.3332Z" fill="url(#paint5_linear_279_200)"/>
<path d="M65.3333 42.0001C63.2118 42.008 61.3627 43.4459 60.8323 45.5001H57.1422C57.9902 43.7164 58.6171 41.8358 59.0088 39.9001C59.1377 39.2683 58.73 38.6517 58.0982 38.5228C57.4665 38.3939 56.8499 38.8016 56.721 39.4334C56.2477 41.7722 55.3966 44.0183 54.201 46.0834V46.0986C54.1313 46.2219 54.0854 46.3573 54.0657 46.4976C54.0657 46.5104 54.0657 46.5221 54.0575 46.5349C54.0454 46.5783 54.0357 46.6223 54.0283 46.6667C54.0354 46.7584 54.0534 46.8489 54.082 46.9362C54.082 46.9514 54.082 46.9666 54.0913 46.9817C54.1275 47.1075 54.1856 47.226 54.2628 47.3317C54.2745 47.3492 54.2838 47.3667 54.2967 47.3831C54.3757 47.4804 54.4703 47.564 54.5767 47.6304C54.5953 47.6432 54.607 47.6631 54.6268 47.6747C54.6467 47.6864 54.6548 47.6852 54.6677 47.6922C54.7195 47.7187 54.7733 47.7409 54.8287 47.7587C54.9371 47.7978 55.0507 47.8206 55.1658 47.8264C55.1763 47.8264 55.1845 47.8322 55.195 47.8322H60.8323C61.4422 50.1748 63.7445 51.6599 66.1301 51.2497C68.5157 50.8394 70.1896 48.6704 69.9819 46.2587C69.7741 43.8471 67.7539 41.9963 65.3333 42.0001ZM65.3333 49.0001C64.0447 49.0001 63 47.9554 63 46.6667C63 45.3781 64.0447 44.3334 65.3333 44.3334C66.622 44.3334 67.6667 45.3781 67.6667 46.6667C67.6667 47.9554 66.622 49.0001 65.3333 49.0001Z" fill="url(#paint6_linear_279_200)"/>
<path d="M26.8334 56.4045V56.3847C26.8259 56.3191 26.8131 56.2544 26.7949 56.191C26.7866 56.1118 26.7706 56.0337 26.747 55.9577C26.6979 55.842 26.6301 55.7352 26.5464 55.6415C26.5312 55.624 26.5242 55.603 26.509 55.5867C26.3933 55.4637 26.2519 55.3677 26.0949 55.3055C23.041 53.9576 20.3278 51.9429 18.1545 49.4092C17.8872 49.0801 17.4624 48.9219 17.045 48.996C16.6276 49.0701 16.2832 49.3648 16.1455 49.7658C16.0078 50.1668 16.0985 50.6109 16.3824 50.9258C18.626 53.5374 21.3911 55.6507 24.5 57.1302V64.1663H16.1677C15.5802 61.891 13.3924 60.4074 11.0612 60.7035C8.72994 60.9996 6.98254 62.983 6.98254 65.333C6.98254 67.683 8.72994 69.6664 11.0612 69.9625C13.3924 70.2586 15.5802 68.775 16.1677 66.4997H24.5C25.7887 66.4997 26.8334 65.455 26.8334 64.1663V56.4045ZM11.6667 67.6663C10.378 67.6663 9.33336 66.6217 9.33336 65.333C9.33336 64.0443 10.378 62.9997 11.6667 62.9997C12.9554 62.9997 14 64.0443 14 65.333C14 66.6217 12.9554 67.6663 11.6667 67.6663Z" fill="url(#paint7_linear_279_200)"/>
<path d="M39.4334 56.7234C36.507 57.3111 33.493 57.3111 30.5667 56.7234C30.1539 56.6287 29.7222 56.7652 29.4389 57.0799C29.1555 57.3946 29.0649 57.8382 29.2022 58.2388C29.3395 58.6395 29.6832 58.9342 30.1 59.0089C31.3316 59.2482 32.5797 59.3929 33.8334 59.4418V68.8334C33.8334 69.4777 34.3557 70.0001 35 70.0001C35.6444 70.0001 36.1667 69.4777 36.1667 68.8334V59.4418C37.4204 59.393 38.6685 59.2483 39.9 59.0089C40.5174 58.8673 40.909 58.259 40.7823 57.6384C40.6555 57.0178 40.0568 56.6117 39.4334 56.7234Z" fill="url(#paint8_linear_279_200)"/>
<path d="M24.5 3.49986H16.1677C15.5802 1.2245 13.3924 -0.259056 11.0612 0.0370518C8.72994 0.333159 6.98254 2.31654 6.98254 4.66652C6.98254 7.0165 8.72994 8.99989 11.0612 9.296C13.3924 9.5921 15.5802 8.10855 16.1677 5.83319H24.5V13.6172C24.5 13.6639 24.5222 13.7094 24.528 13.756C24.5402 13.8768 24.5713 13.9949 24.6202 14.106C24.6687 14.21 24.7332 14.3057 24.8115 14.3895C24.8506 14.4319 24.8932 14.4709 24.9387 14.5062C24.9958 14.553 25.0571 14.5944 25.1219 14.6299C25.1758 14.6597 25.232 14.6855 25.2899 14.7069C25.3733 14.7333 25.4593 14.7506 25.5465 14.7582C25.5849 14.7687 25.6238 14.7769 25.6632 14.7827C25.8304 14.7792 25.9948 14.7394 26.145 14.666C27.5663 14.0498 29.0483 13.5844 30.5667 13.2777C31.1985 13.1488 31.6061 12.5322 31.4773 11.9004C31.3484 11.2687 30.7318 10.861 30.1 10.9899C28.9913 11.2167 27.8997 11.5208 26.8334 11.8999V5.83319C26.8334 4.54453 25.7887 3.49986 24.5 3.49986ZM11.6667 6.99986C10.378 6.99986 9.33336 5.95519 9.33336 4.66652C9.33336 3.37786 10.378 2.33319 11.6667 2.33319C12.9554 2.33319 14 3.37786 14 4.66652C14 5.28536 13.7542 5.87886 13.3166 6.31644C12.879 6.75402 12.2855 6.99986 11.6667 6.99986Z" fill="url(#paint9_linear_279_200)"/>
<path d="M53.8324 5.83319C54.4199 8.10855 56.6077 9.5921 58.9389 9.296C61.2702 8.99989 63.0176 7.0165 63.0176 4.66652C63.0176 2.31654 61.2702 0.333159 58.9389 0.0370518C56.6077 -0.259056 54.4199 1.2245 53.8324 3.49986H45.5001C44.2114 3.49986 43.1667 4.54453 43.1667 5.83319V13.5927V13.6137C43.1738 13.6825 43.1875 13.7505 43.2076 13.8167C43.215 13.8931 43.2302 13.9686 43.2531 14.0419C43.3029 14.1594 43.3719 14.2678 43.4572 14.3627C43.4701 14.3779 43.4771 14.3977 43.4899 14.4117C43.6052 14.5347 43.7462 14.6307 43.9029 14.6929C46.4966 15.8293 48.848 17.4531 50.8294 19.4762C51.1155 19.7941 51.5527 19.93 51.9686 19.8303C52.3845 19.7306 52.7126 19.4113 52.8234 18.9982C52.9343 18.5851 52.8102 18.1444 52.5001 17.8499C50.4786 15.7943 48.1085 14.1136 45.5001 12.8857V5.83319H53.8324ZM58.3334 2.33319C59.6221 2.33319 60.6667 3.37786 60.6667 4.66652C60.6667 5.95519 59.6221 6.99986 58.3334 6.99986C57.0448 6.99986 56.0001 5.95519 56.0001 4.66652C56.0001 3.37786 57.0448 2.33319 58.3334 2.33319Z" fill="url(#paint10_linear_279_200)"/>
<path d="M35 0C34.3557 0 33.8334 0.522334 33.8334 1.16667V11.6667C33.8334 12.311 34.3557 12.8333 35 12.8333C36.4889 12.833 37.9741 12.9815 39.4334 13.2767C39.5101 13.2925 39.5883 13.3003 39.6667 13.3C40.2639 13.2977 40.763 12.8448 40.823 12.2506C40.883 11.6565 40.4847 11.1129 39.9 10.9912C38.6685 10.7518 37.4204 10.6071 36.1667 10.5583V1.16667C36.1667 0.522334 35.6444 0 35 0V0Z" fill="url(#paint11_linear_279_200)"/>
<path d="M60.8323 24.4997C61.4198 26.7751 63.6076 28.2586 65.9388 27.9625C68.2701 27.6664 70.0175 25.683 70.0175 23.333C70.0175 20.983 68.2701 18.9997 65.9388 18.7036C63.6076 18.4074 61.4198 19.891 60.8323 22.1664H55.195C55.1728 22.1664 55.1553 22.178 55.1343 22.178C55.0667 22.1853 54.9999 22.199 54.9348 22.2189C54.839 22.2378 54.746 22.2692 54.6583 22.3122C54.649 22.3122 54.6373 22.3122 54.6268 22.3239C54.6163 22.3355 54.5965 22.3554 54.5767 22.3682C54.4703 22.4346 54.3757 22.5182 54.2967 22.6155C54.2838 22.6319 54.2745 22.6494 54.2628 22.6669C54.1856 22.7726 54.1275 22.8911 54.0913 23.0169C54.0913 23.032 54.0913 23.0472 54.082 23.0624C54.0533 23.1501 54.0353 23.241 54.0283 23.333C54.0345 23.3778 54.0431 23.4222 54.054 23.466C54.054 23.4789 54.0598 23.4905 54.0622 23.5034C54.0819 23.6437 54.1278 23.779 54.1975 23.9024V23.9175C56.1432 27.2867 57.1673 31.109 57.1667 34.9997C57.1667 35.644 57.689 36.1664 58.3333 36.1664H68.8333C69.4777 36.1664 70 35.644 70 34.9997C70 34.3554 69.4777 33.833 68.8333 33.833H59.4615C59.3085 30.5982 58.5154 27.4259 57.1282 24.4997H60.8323ZM65.3333 20.9997C66.622 20.9997 67.6667 22.0444 67.6667 23.333C67.6667 24.6217 66.622 25.6664 65.3333 25.6664C64.0447 25.6664 63 24.6217 63 23.333C63 22.0444 64.0447 20.9997 65.3333 20.9997Z" fill="url(#paint12_linear_279_200)"/>
<path d="M1.16667 36.1667H11.6667C12.311 36.1667 12.8333 35.6443 12.8333 35C12.8309 32.6427 13.2046 30.3001 13.9405 28.0607C14.0708 27.6647 13.9799 27.2293 13.7021 26.9185C13.4243 26.6077 13.0018 26.4688 12.5937 26.5539C12.1857 26.6391 11.8541 26.9355 11.7238 27.3315C11.0385 29.4354 10.6421 31.6227 10.5455 33.8333H1.16667C0.522334 33.8333 0 34.3557 0 35C0 35.6443 0.522334 36.1667 1.16667 36.1667Z" fill="url(#paint13_linear_279_200)"/>
<defs>
<linearGradient id="paint0_linear_279_200" x1="35.0001" y1="21" x2="35.0001" y2="46.6667" gradientUnits="userSpaceOnUse">
<stop stop-color="#CE0695"/>
<stop offset="1" stop-color="#47A1D9"/>
</linearGradient>
<linearGradient id="paint1_linear_279_200" x1="35.0001" y1="33.8188" x2="35.0001" y2="42" gradientUnits="userSpaceOnUse">
<stop stop-color="#CE0695"/>
<stop offset="1" stop-color="#47A1D9"/>
</linearGradient>
<linearGradient id="paint2_linear_279_200" x1="35.0001" y1="15.1665" x2="35.0001" y2="54.8332" gradientUnits="userSpaceOnUse">
<stop stop-color="#CE0695"/>
<stop offset="1" stop-color="#47A1D9"/>
</linearGradient>
<linearGradient id="paint3_linear_279_200" x1="53.0829" y1="50.1548" x2="53.0829" y2="69.9843" gradientUnits="userSpaceOnUse">
<stop stop-color="#CE0695"/>
<stop offset="1" stop-color="#47A1D9"/>
</linearGradient>
<linearGradient id="paint4_linear_279_200" x1="7.97712" y1="38.498" x2="7.97712" y2="51.3322" gradientUnits="userSpaceOnUse">
<stop stop-color="#CE0695"/>
<stop offset="1" stop-color="#47A1D9"/>
</linearGradient>
<linearGradient id="paint5_linear_279_200" x1="11.0833" y1="15.1665" x2="11.0833" y2="27.9967" gradientUnits="userSpaceOnUse">
<stop stop-color="#CE0695"/>
<stop offset="1" stop-color="#47A1D9"/>
</linearGradient>
<linearGradient id="paint6_linear_279_200" x1="62.0138" y1="38.499" x2="62.0138" y2="51.3176" gradientUnits="userSpaceOnUse">
<stop stop-color="#CE0695"/>
<stop offset="1" stop-color="#47A1D9"/>
</linearGradient>
<linearGradient id="paint7_linear_279_200" x1="16.908" y1="48.978" x2="16.908" y2="70" gradientUnits="userSpaceOnUse">
<stop stop-color="#CE0695"/>
<stop offset="1" stop-color="#47A1D9"/>
</linearGradient>
<linearGradient id="paint8_linear_279_200" x1="34.9726" y1="56.6938" x2="34.9726" y2="70.0001" gradientUnits="userSpaceOnUse">
<stop stop-color="#CE0695"/>
<stop offset="1" stop-color="#47A1D9"/>
</linearGradient>
<linearGradient id="paint9_linear_279_200" x1="19.2418" y1="-0.000488281" x2="19.2418" y2="14.7827" gradientUnits="userSpaceOnUse">
<stop stop-color="#CE0695"/>
<stop offset="1" stop-color="#47A1D9"/>
</linearGradient>
<linearGradient id="paint10_linear_279_200" x1="53.0922" y1="-0.000488281" x2="53.0922" y2="19.8625" gradientUnits="userSpaceOnUse">
<stop stop-color="#CE0695"/>
<stop offset="1" stop-color="#47A1D9"/>
</linearGradient>
<linearGradient id="paint11_linear_279_200" x1="37.3312" y1="0" x2="37.3312" y2="13.3" gradientUnits="userSpaceOnUse">
<stop stop-color="#CE0695"/>
<stop offset="1" stop-color="#47A1D9"/>
</linearGradient>
<linearGradient id="paint12_linear_279_200" x1="62.0229" y1="18.666" x2="62.0229" y2="36.1664" gradientUnits="userSpaceOnUse">
<stop stop-color="#CE0695"/>
<stop offset="1" stop-color="#47A1D9"/>
</linearGradient>
<linearGradient id="paint13_linear_279_200" x1="6.99947" y1="26.5293" x2="6.99947" y2="36.1667" gradientUnits="userSpaceOnUse">
<stop stop-color="#CE0695"/>
<stop offset="1" stop-color="#47A1D9"/>
</linearGradient>
</defs>
</svg>
