<svg width="70" height="70" viewBox="0 0 70 70" fill="none" xmlns="http://www.w3.org/2000/svg">
<g clip-path="url(#clip0_279_215)">
<path d="M29.668 49.9023C30.4226 49.9023 31.0352 49.2898 31.0352 48.5352C31.0352 47.7805 30.4226 47.168 29.668 47.168C28.9133 47.168 28.3008 47.7805 28.3008 48.5352C28.3008 49.2898 28.9133 49.9023 29.668 49.9023Z" fill="url(#paint0_linear_279_215)"/>
<path d="M0.537201 53.0566L16.9435 69.4628C17.4775 69.9969 18.3427 69.9969 18.8768 69.4628L27.9002 60.4394C28.4343 59.9053 28.4343 59.0401 27.9002 58.5061L27.4997 58.1055H47.2075C48.9384 58.1055 50.5902 57.4567 51.8639 56.2743L68.4502 40.7294C70.0379 39.2549 70.564 36.9125 69.7586 34.9012C69.1765 33.4454 67.9877 32.3314 66.4977 31.8448C65.0071 31.3572 63.3905 31.5548 62.0607 32.3858C62.0522 32.3912 58.3784 34.8019 58.3784 34.8019C58.3533 27.3908 53.8741 19.4878 47.7084 15.9299C48.0604 15.5256 48.337 15.0471 48.5133 14.5114C49.2188 12.3651 48.046 10.0419 45.8964 9.33214C45.8291 9.3097 45.7618 9.28994 45.6945 9.26912L49.2139 2.94693C49.4164 2.58324 49.4425 2.14691 49.2839 1.76239C49.1258 1.37734 48.8011 1.08521 48.4011 0.969316C45.8777 0.23552 43.2549 -0.136719 40.6055 -0.136719C37.9565 -0.136719 35.3332 0.23552 32.8098 0.968782C32.4098 1.08521 32.0851 1.3768 31.9265 1.76186C31.7684 2.14691 31.794 2.58324 31.997 2.94693L35.5164 9.26912C35.4481 9.29048 35.3797 9.31077 35.3113 9.3332C33.165 10.0419 31.9927 12.3645 32.6982 14.5125C32.8744 15.0471 33.1532 15.524 33.5062 15.9288C27.2487 19.5396 22.832 27.5238 22.832 34.8633C22.832 35.0636 22.8368 35.2612 22.8432 35.4572C20.3946 36.1253 18.1179 37.3424 16.2033 39.0188L12.0483 42.6542L11.4939 42.0998C10.9599 41.5658 10.0947 41.5658 9.56065 42.0998L0.537201 51.1233C0.00314313 51.6573 0.00314313 52.5225 0.537201 53.0566ZM35.2505 3.16964C37.0022 2.78939 38.7966 2.59766 40.6055 2.59766C42.4143 2.59766 44.2088 2.78939 45.961 3.16964L42.9142 8.64213C41.3782 8.42797 39.8316 8.42797 38.2973 8.64213L35.2505 3.16964ZM36.1648 11.9309C38.9702 11.0128 42.0287 10.9434 45.0424 11.9298C45.7597 12.1664 46.1511 12.9418 45.9156 13.6575C45.7383 14.1963 45.2576 14.5622 44.7006 14.5947C42.0047 13.7376 39.2046 13.736 36.5098 14.5921C36.5098 14.5921 36.5098 14.5921 36.5092 14.5921C35.9474 14.5568 35.4705 14.1894 35.2953 13.658C35.0598 12.9413 35.4513 12.1658 36.1648 11.9309ZM36.921 17.3382C39.2917 16.4842 41.7478 16.4639 44.1244 17.2805C50.4765 19.4648 55.6445 27.3523 55.6445 34.8633C55.6445 35.4999 55.6045 36.1066 55.5254 36.6738L48.9539 40.9852C47.9365 39.7249 46.3947 38.9649 44.707 38.9649H41.9726V37.3627C43.5641 36.7982 44.707 35.2783 44.707 33.4961C44.707 31.2344 42.8672 29.3946 40.6055 29.3946C39.8519 29.3946 39.2383 28.7815 39.2383 28.0274C39.2383 27.2733 39.8519 26.6602 40.6055 26.6602C41.0899 26.6602 41.6009 26.9075 42.0843 27.3748C42.6269 27.8997 43.4926 27.8853 44.0176 27.3433C44.5425 26.8006 44.5281 25.9349 43.9855 25.41C43.2918 24.7381 42.5975 24.3584 41.9726 24.1512V22.5586C41.9726 21.8035 41.3606 21.1914 40.6055 21.1914C39.8503 21.1914 39.2383 21.8035 39.2383 22.5586V24.1608C37.6473 24.7253 36.5039 26.2452 36.5039 28.0274C36.5039 30.2891 38.3437 32.1289 40.6055 32.1289C41.3596 32.1289 41.9726 32.742 41.9726 33.4961C41.9726 34.2502 41.3596 34.8633 40.6055 34.8633C40.0212 34.8633 39.391 34.4959 38.8302 33.8289C38.3443 33.251 37.4818 33.1762 36.9039 33.6622C36.326 34.1482 36.2513 35.0107 36.7373 35.5886C37.4679 36.458 38.3277 37.0636 39.2383 37.3691V38.9649H38.7833C38.1114 38.9649 37.8097 38.527 37.3365 38.221C34.4478 36.0559 30.8696 34.8633 27.2604 34.8633C26.6959 34.8633 26.1303 34.8927 25.5674 34.9498C25.5674 34.921 25.5664 34.8927 25.5664 34.8633C25.5664 27.4575 30.6602 19.5962 36.921 17.3382ZM18.0041 41.076C20.5729 38.8266 23.8739 37.5977 27.2604 37.5977C30.2821 37.5977 33.2776 38.5959 35.6948 40.4079C36.0435 40.6119 37.0145 41.6993 38.7827 41.6993H44.707C46.2633 41.6993 47.4414 42.9645 47.4414 44.4337C47.4414 45.9413 46.2147 47.168 44.707 47.168H35.1367C34.3815 47.168 33.7695 47.7801 33.7695 48.5352C33.7695 49.2904 34.3815 49.9024 35.1367 49.9024H44.707C47.7223 49.9024 50.1758 47.4489 50.1758 44.4337C50.1758 44.1202 50.148 43.8109 50.0957 43.5065L63.5214 34.6978C64.1601 34.3031 64.935 34.2107 65.6485 34.4436C66.3663 34.6785 66.9393 35.2153 67.2197 35.917C67.6144 36.9018 67.3666 38.0047 66.5847 38.7304L49.999 54.2747C49.2374 54.9818 48.2462 55.3712 47.2075 55.3712H24.7653L13.9864 44.5917L18.0041 41.076ZM10.5273 44.9998L25.0003 59.4727L17.9101 66.5629L3.43714 52.0899L10.5273 44.9998Z" fill="url(#paint1_linear_279_215)"/>
</g>
<defs>
<linearGradient id="paint0_linear_279_215" x1="29.668" y1="47.168" x2="29.668" y2="49.9023" gradientUnits="userSpaceOnUse">
<stop stop-color="#CE0695"/>
<stop offset="1" stop-color="#47A1D9"/>
</linearGradient>
<linearGradient id="paint1_linear_279_215" x1="35.1342" y1="-0.136719" x2="35.1342" y2="69.8634" gradientUnits="userSpaceOnUse">
<stop stop-color="#CE0695"/>
<stop offset="1" stop-color="#47A1D9"/>
</linearGradient>
<clipPath id="clip0_279_215">
<rect width="70" height="70" fill="white"/>
</clipPath>
</defs>
</svg>
