<svg width="64" height="42" viewBox="0 0 64 42" fill="none" xmlns="http://www.w3.org/2000/svg">
<path d="M59.5555 16.3743H32.8888C32.2746 16.3743 31.7777 16.8718 31.7777 17.4854H21.838L22.8318 14.5038C22.8699 14.3904 22.8888 14.2716 22.8888 14.1521V3.041C22.8888 2.56239 22.5827 2.13822 22.1293 1.98683L18.796 0.875723C18.5671 0.799889 18.3218 0.799889 18.093 0.875723L15.111 1.86961L12.1293 0.875723C11.9005 0.799889 11.6552 0.799889 11.4263 0.875723L8.44434 1.86961L5.46268 0.875723C5.23379 0.799889 4.98851 0.799889 4.75962 0.875723L1.42629 1.98683C0.972676 2.13822 0.666565 2.56267 0.666565 3.041V15.2632C0.666565 15.4049 0.693787 15.5449 0.745732 15.676L2.81712 20.8535L0.72351 27.1338C0.685454 27.2471 0.666565 27.366 0.666565 27.4854V40.8188C0.666565 41.4324 1.16406 41.9299 1.77768 41.9299C2.39129 41.9299 2.88879 41.4324 2.88879 40.8188V39.7077H3.9999V40.8188C3.9999 41.4324 4.4974 41.9299 5.11101 41.9299C5.72462 41.9299 6.22212 41.4324 6.22212 40.8188V39.7077H7.33323V40.8188C7.33323 41.4324 7.83073 41.9299 8.44434 41.9299C9.05795 41.9299 9.55545 41.4324 9.55545 40.8188V39.7077H10.6666V40.8188C10.6666 41.4324 11.1641 41.9299 11.7777 41.9299C12.3913 41.9299 12.8888 41.4324 12.8888 40.8188V39.7077H13.9999V40.8188C13.9999 41.4324 14.4974 41.9299 15.111 41.9299C15.7246 41.9299 16.2221 41.4324 16.2221 40.8188V39.7077H17.3332V40.8188C17.3332 41.4324 17.8307 41.9299 18.4443 41.9299C19.058 41.9299 19.5555 41.4324 19.5555 40.8188V39.7077H20.6666V40.8188C20.6666 41.4324 21.1641 41.9299 21.7777 41.9299C22.3913 41.9299 22.8888 41.4324 22.8888 40.8188V27.4854C22.8888 27.366 22.8699 27.2474 22.8318 27.1338L21.838 24.1521H31.7777C31.7777 24.7657 32.2746 25.2632 32.8888 25.2632H59.5555C62.0066 25.2632 63.9999 23.2693 63.9999 20.8188C63.9999 18.3682 62.0066 16.3743 59.5555 16.3743ZM12.8888 28.5966H20.6666V30.8188H2.88879V27.6654L5.05406 21.1702C5.13712 20.9207 5.12907 20.6499 5.03184 20.4057L2.97434 15.2629H10.6666C11.2802 15.2629 11.7777 14.7654 11.7777 14.1518C11.7777 13.5382 11.2802 13.0407 10.6666 13.0407H2.88879V10.8185H20.6666V13.9718L18.5013 20.4671C18.4255 20.6954 18.4255 20.9418 18.5013 21.1702L20.236 26.3741H12.8888C12.2752 26.3741 11.7777 26.8716 11.7777 27.4852C11.7777 28.0988 12.2752 28.5966 12.8888 28.5966ZM5.11101 3.10128L8.09268 4.09517C8.32157 4.171 8.56684 4.171 8.79573 4.09517L11.7777 3.10128L14.7593 4.09517C14.9882 4.171 15.2335 4.171 15.4624 4.09517L18.4443 3.10128L20.6666 3.84183V8.59656H2.88879V3.84183L5.11101 3.10128ZM2.88879 33.041H20.6666V37.4854H2.88879V33.041ZM21.0971 21.9299L20.7268 20.8188L21.0971 19.7077H31.7777V21.9299H21.0971ZM59.5555 23.041H33.9999V18.5966H59.5555C60.7805 18.5966 61.7777 19.5932 61.7777 20.8188C61.7777 22.0443 60.7805 23.041 59.5555 23.041Z" fill="url(#paint0_linear_279_226)"/>
<defs>
<linearGradient id="paint0_linear_279_226" x1="32.3332" y1="0.818848" x2="32.3332" y2="41.9299" gradientUnits="userSpaceOnUse">
<stop stop-color="#CE0695"/>
<stop offset="1" stop-color="#47A1D9"/>
</linearGradient>
</defs>
</svg>
